<?xml version="1.0" encoding="UTF-8"?>
<svg id="Layer_1" xmlns="http://www.w3.org/2000/svg" version="1.1" viewBox="0 0 128 128">
  <!-- Generator: Adobe Illustrator 29.3.0, SVG Export Plug-In . SVG Version: 2.1.0 Build 146)  -->
  <defs>
    <style>
      .st0 {
        fill: #fff;
      }

      .st1 {
        fill: #a259ff;
      }
    </style>
  </defs>
  <g>
    <path d="M122,64c0,32-26,58-58,58h-30.5c-15.1,0-27.5-12.1-27.5-27.1,0-3.6.7-7.1,2.1-10.5,1.4-3.3,3.4-6.3,5.9-8.8l11.6-11.6-11.6-11.6c-5.1-5.1-8-12-8-19.2s2.8-14.1,8-19.2c5.1-5.1,12-8,19.2-8h30.8c9.2,0,18,2.2,25.7,6,11.4,5.6,20.6,14.9,26.3,26.3,3.8,7.7,6,16.5,6,25.7h0Z"/>
    <g>
      <path class="st1" d="M64,90.3l26.3-26.3,8.8,8.8c1.7,1.7,3.1,3.8,4,6s1.4,4.6,1.4,7.1c0,10.3-8.3,18.6-18.6,18.6h0c-4.9,0-9.6-2-13.1-5.4l-8.8-8.8h0Z"/>
      <path class="st1" d="M119.8,13.1v19.4c0,1.3-.5,2.5-1.4,3.5l-2.4,2.4c-5.6-11.4-14.9-20.6-26.3-26.3l2.4-2.4c.9-.9,2.2-1.4,3.5-1.4h19.4c2.7,0,4.9,2.2,4.9,4.9Z"/>
      <path class="st1" d="M116,38.3l-1.5,1.5-24.2,24.2-26.3-26.3,25.7-25.7c11.4,5.6,20.6,14.9,26.3,26.3h0Z"/>
      <polygon class="st0" points="90.3 64 64 90.3 64 90.3 37.7 64 64 37.7 90.3 64"/>
      <path class="st0" d="M37.7,64h0l-17.7-17.7c-3.5-3.5-5.4-8.2-5.4-13.1s2.1-9.8,5.4-13.1,8-5.4,13.1-5.4,4.9.5,7.1,1.4c2.2.9,4.3,2.3,6,4l17.7,17.7-26.3,26.3h0Z"/>
      <path class="st0" d="M37.7,64l26.3,26.3-17.7,17.7c-3.5,3.5-8.2,5.4-13.1,5.4h0c-10.3,0-18.6-8.3-18.6-18.6s.5-4.9,1.4-7.1c.9-2.2,2.3-4.3,4-6l17.7-17.7h0Z"/>
    </g>
  </g>
  <path d="M116.7,14.2v14.9c0,2.1-2.5,3.1-4,1.6l-15.7-15.7c-1.5-1.5-.4-4,1.6-4h14.9c1.7,0,3.1,1.4,3.1,3.1Z"/>
</svg>