<?xml version="1.0" encoding="UTF-8"?>
<svg id="Layer_1" data-name="Layer 1" xmlns="http://www.w3.org/2000/svg" viewBox="0 0 256 256">
  <defs>
    <style>
      .cls-1 {
        fill: #001b39;
      }

      .cls-2 {
        fill: #0048c9;
      }
    </style>
  </defs>
  <path class="cls-1" d="M177.19,112.18h-31.68v-31.27c0-23.84-13.33-44.63-32.93-55.3v149.47c0,34.69,28.22,62.91,62.91,62.91h1.69c34.69,0,62.91-28.22,62.91-62.91s-28.22-62.91-62.91-62.91ZM177.19,205.07h-1.69c-16.53,0-29.98-13.45-29.98-29.98v-29.98h31.68c16.53,0,29.98,13.45,29.98,29.98s-13.45,29.98-29.98,29.98Z"/>
  <path class="cls-2" d="M78.81,112.18c-16.53,0-29.98-13.45-29.98-29.98v-1.28c0-16.53,13.45-29.98,29.98-29.98h3.79c16.53,0,29.98,13.45,29.98,29.98V25.62c-8.92-4.85-19.13-7.62-29.98-7.62h-3.79c-34.69,0-62.91,28.22-62.91,62.91v1.28c0,34.69,28.22,62.91,62.91,62.91h33.78v-32.93h-33.78Z"/>
</svg>