<?xml version="1.0" encoding="UTF-8"?>
<svg id="Layer_1" xmlns="http://www.w3.org/2000/svg" version="1.1" xmlns:xlink="http://www.w3.org/1999/xlink" viewBox="0 0 512 512">
  <!-- Generator: Adobe Illustrator 29.3.0, SVG Export Plug-In . SVG Version: 2.1.0 Build 146)  -->
  <defs>
    <style>
      .st0 {
        fill: #757575;
      }

      .st1 {
        fill: #585858;
      }

      .st2 {
        fill: #ef9e42;
      }

      .st3 {
        fill: #010101;
      }

      .st4 {
        fill: #41a3f3;
      }

      .st5 {
        fill: #fda626;
      }

      .st6 {
        fill: #fee1ef;
      }

      .st7 {
        fill: #777;
      }

      .st8 {
        fill: #ff9773;
      }

      .st9 {
        fill: #a8b7d4;
      }

      .st10 {
        fill: #64b4f5;
      }

      .st11 {
        fill: #72d7fe;
      }

      .st12 {
        fill: #7fb5fe;
      }

      .st13 {
        fill: #020202;
      }

      .st14 {
        fill: #fff;
      }

      .st15 {
        fill: #fcb52f;
      }

      .st16 {
        fill: #6cbac6;
      }

      .st17 {
        fill: #36d08e;
      }

      .st18 {
        fill: #efbb5e;
      }

      .st19 {
        fill: #606060;
      }

      .st20 {
        fill: #fe5d5d;
      }

      .st21 {
        fill: #ecf2f8;
      }

      .st22 {
        fill: #e5e5e5;
      }

      .st23 {
        fill: #ff8894;
      }

      .st24 {
        fill: #2195f1;
      }

      .st25 {
        fill: #bbb;
      }

      .st26 {
        fill: #bedafe;
      }

      .st27 {
        fill: #bdcae3;
      }

      .st28 {
        fill: #febd4f;
      }

      .st29 {
        fill: #becbe4;
      }

      .st30 {
        fill: #f4ce68;
      }

      .st31 {
        fill: #616161;
      }

      .st32 {
        fill: #4b4a4a;
      }

      .st33 {
        fill: #0f0f0f;
      }

      .st34 {
        fill: #dfdfdf;
      }

      .st35 {
        fill: #191919;
      }

      .st36 {
        fill: #010100;
      }

      .st37 {
        fill: #feb64d;
      }

      .st38 {
        fill: #a6d5dc;
      }

      .st39 {
        fill: #d6d6e2;
      }

      .st40 {
        fill: #94cfff;
      }

      .st41 {
        fill: #ffe885;
      }

      .st42 {
        fill: #fefefe;
      }

      .st43 {
        fill: #ededed;
      }

      .st44 {
        fill: #edf3f9;
      }

      .st45 {
        fill: #030202;
      }

      .st46 {
        fill: #9fe4a4;
      }
    </style>
  </defs>
  <g>
    <path class="st41" d="M57.6,318.5c27.2,83.8,105.8,144.3,198.6,144.3v-208.8l-198.6,64.6h0Z"/>
    <path class="st6" d="M256.2,462.8c92.8,0,171.5-60.6,198.6-144.3l-198.6-64.6v208.8h0Z"/>
    <path class="st23" d="M379,84.9c-34.5-25-76.9-39.9-122.8-39.9s-88.3,14.8-122.8,39.9l122.8,169,122.8-169Z"/>
    <path class="st40" d="M454.9,318.5c6.6-20.3,10.2-42,10.2-64.6,0-69.5-33.9-131-86-169l-122.8,169,198.6,64.6h0Z"/>
    <path class="st8" d="M47.4,253.9c0,22.6,3.5,44.3,10.2,64.6l198.6-64.6-122.8-169c-52.2,37.9-86,99.5-86,169h0Z"/>
  </g>
  <g>
    <path class="st18" d="M335.1,354.6c.6.3,1.2.9,1.5,1.5,1.4.9,2.7,2.1,3.5,3.5.6.1,1.4.9,1.5,1.5h.4c1.2,1.2,2.5,2,4.1,2.3l.2.3c.8-.2,1.9-.3,2.7-.2l.2.2c18.4,0,27.1,22.1,13.3,34.3-12.8,11.2-32.3,1.6-32.2-15.3l-.2-.2c0-.8,0-2,.2-2.7l-.3-.2c-.2-1.7-1.1-3-2.3-4.1v-.4c-.6-.2-1.4-.9-1.5-1.5-1.4-.9-2.7-2.1-3.5-3.5-.6-.3-1.2-.9-1.5-1.5-.5-.5-1-1.1-1.5-1.5,1.2-1.8,2.9-3.3,4.5-4.8h.3l20.2,23c0,.2,0,.4-.2.5-4.9.5-4.5,7.9.5,7.7,2.9-.1,4.1-3,3.5-5.6l.2-.3v-.2c.6,0,4.8-.1,5,0v.2c.1,0,0-.1,0-.1v-5.9h.2c0-.2,0-.4.1-.4h2.3c.1,0,.2.1.2.2v-.3c4.1-.9,4.5-6.4.3-7.6-2.7-.8-4.9,1.6-4.8,4.3,0,.2-.2.2-.5.2l-22.9-20.1s-.2-.3-.1-.3c0-.1.2-.3.3-.4.6-.8,3.3-3.5,4.1-4,.1,0,.2-.1.4-.2.4.6,1.1,1.1,1.5,1.5h0v.2h.1Z"/>
    <path d="M319.6,366.9c-.8.8-2.3,2.4-3.1,2.8-2.8,1.3-5.5-1.4-4.3-4.3.1-.3.4-.4.4-.9-2.1-1.1-2.4-3.7-.8-5.4-1.5-1.5-3-3.1-3.7-5.3-2.3-7.6,4.7-14.6,12.4-12.2,2,.6,3.7,2,5.2,3.7,1.7-1.5,4.3-1.4,5.4.8,2.8-2.1,6.7.5,5.2,3.9-.4.9-2,2.4-2.8,3.1-1.5,1.5-3.1,3-4.6,4.5l23,20.2c-.2-3.3,2.9-5.8,6-4.3s2.9,6.3-.4,7.5c-.1,0-.8.2-.8.2h-2.6v5c0,.6-.5,1.1-1.1,1.1h-4.1c.6,2.9-.6,6.1-3.9,6.1-5.3,0-5.6-7.8-.3-8.2l-20.3-23.1c-1.6,1.5-3,3.1-4.5,4.6h-.3Z"/>
    <path d="M322.7,369.9v.2c.1,0-9.9,10-9.9,10,1.1,1.2,2.1,2.3,3.3,3.2l10-10h.3c.5.5,1.1,1.1,1.5,1.6v.2c.1,0-9.9,10-9.9,10,.3.4,3,3.2,3.2,3.2l8.8-8.7h.3c.2,1.3,0,1.9,0,3l-8.7,8.6-13.4,4.2h-.5c-1.1,0-1.9-.9-1.9-1.9h0v-.8l4.2-13.3,10.1-10.1,2.6.4h0Z"/>
    <path d="M349.4,363.8c-1.1,0-1.7.2-2.9,0,1.2-1.8,2.7-3.4,4.5-4.6,1.3-1.8,2.8-3.3,4.6-4.6v-.3l2.3-2.1c4.2-3.8,1.3-6.4-2-9.2-2.6-2.1-4.2-1.6-6.4.6l-2.1,2.4h-.3c-1.3,1.7-2.8,3.3-4.6,4.6v.2c-1.7,1.8-3.5,3.7-5.4,5.5h-.3l-1.5-1.6,13.8-13.8c4.6-4,8.6-.2,11.7,3.4,2.3,2.6,2.3,5.7,0,8.3l-11.2,11.3h0Z"/>
    <path class="st42" d="M326.3,373.6l-10.2,10.2c-.2,0-3.2-3.1-3.7-3.5v-.2c.1,0,10.3-10.1,10.3-10.1l3.5,3.5h0Z"/>
    <path class="st42" d="M330.4,379.8l-9.2,9.1-3.7-3.5,10.2-10.3c1.5,1.6,2.3,2.4,2.6,4.7h.1Z"/>
    <path class="st42" d="M345.8,354s.1.2,0,.2c-1.5,1.6-3.3,3.4-4.9,4.9-.3.4-.5.5-.8.4l-3.5-3.5,5.7-5.7s.2-.1.3,0c.5.5,3.1,2.9,3.3,3.3v.3h-.1Z"/>
    <path class="st42" d="M351,359.2c-1.5,1.5-3,3.1-4.5,4.6-2.4-.3-3.1-1.1-4.7-2.6,0,0-.1-.2,0-.2,1.5-1.6,3.2-3.2,4.7-4.7.3-.4.6-.6,1-.6,0,0,.2-.1.3,0,.4.4,3.3,3.2,3.3,3.4v.2h-.1Z"/>
    <path d="M364.2,383.3c.6,0,1.1.5,1.1,1.2-.4,5.9-4.4,11.1-9.8,13.2-.5.2-1.3,0-1.4-.6h0c-.1-.5.1-1.1.6-1.3,4.7-1.7,8.2-6.4,8.6-11.5,0-.5.5-1,1-1h-.1Z"/>
    <path d="M347.3,355.7l-5.7,5.7c-.5-.5-1-1.1-1.5-1.5l5.7-5.7c.6.3,1.2.9,1.5,1.5Z"/>
    <path class="st36" d="M350.9,396.6h0c.5,0,1,.3,1.1.9h0c0,.6-.3,1.2-1,1.2h0c-.5,0-1.1-.4-1.1-1h0c0-.5.4-1,1-1.1h0Z"/>
    <polygon class="st18" points="351.9 385.4 347.3 385.4 325.6 360.8 327.4 359.1 351.9 380.6 351.9 385.4"/>
    <path class="st42" d="M316.7,343.3c3.1-.3,5.8,1.2,7.6,3.7l-10.9,10.7c-1.9-1.6-3.3-3.5-3.5-6.1-.3-4,2.8-7.7,6.8-8.3h0Z"/>
    <path class="st18" d="M333,347.5c1.1-.2,1.9,1.1,1.2,1.9l-18.4,18.4c-1,.8-2.1-.2-1.8-1.3,6-6.3,12.4-12.5,18.6-18.7s.3-.2.4-.3h0Z"/>
    <path class="st18" d="M328,346.4c1.1-.2,1.9,1,1.2,1.8l-14.6,14.5c-1,.3-1.8-.5-1.5-1.5l14.4-14.5c.1-.1.3-.2.4-.3h.1Z"/>
    <path class="st18" d="M354,379.2v-2.5c0-.3.6-1.1.9-1.3,1.9-1.3,4.2,1.2,2.8,3-.2.2-.9.8-1.2.8h-2.5Z"/>
    <path class="st18" d="M344.3,387.5h2c.8.2.9,3.8-1.2,4.1-2.9.4-3.3-3.7-.9-4.1h0Z"/>
    <polygon class="st42" points="319.2 390.1 308 393.5 311.3 382.3 319.2 390.1"/>
    <path class="st42" d="M355.6,354.6s-.2.2-.2.1c-2.6-2.5-5.4-5.3-7.8-7.8-.4-.3-.6-.6-.5-1,2.1-2,4.4-5.7,7.7-4.3.9.3,4.1,3.5,4.7,4.4,2.7,3.7-1.5,6.3-3.8,8.6h-.1Z"/>
    <path class="st18" d="M355.6,354.6l-4.6,4.6-3.5-3.5-1.5-1.5-3.5-3.5c1.5-1.5,3-3.1,4.6-4.6l8.7,8.7h-.1Z"/>
  </g>
  <g>
    <path d="M188.3,339.9c1.3,0,2.4.8,3.1,1.8.2.3.6.9.6,1.5v11.9l-.2.9.2-.9c.3-.9,2-3.8,2.6-4.4,4.4-4.9,11,0,8.1,5.5-1,1.8-1.9,3.7-3,5.5-2.7,4.3-5.2,8.6-7.6,13v23.6c-.2,2.1-1.8,4-4.1,3.9h-41.4c-2.3.1-4-1.7-4.2-3.9v-54.6c.2-1.9,1.6-3.8,3.7-3.8h42.2Z"/>
    <path class="st42" d="M177.9,380.3s-1.1,1.8-1.2,2.1c-.8,2.6-.5,6.3-1.3,9.1,0,1.3,1,1.7,2,1.1,2.4-1.4,4.7-4,7.1-5.5l4.8-8.2v19.4c0,.5-1.2,1.4-1.7,1.3h-40.7c-1,0-1.7-.8-1.7-1.6v-54.5c.3-.6,1-1.2,1.6-1.2h40.9c.9,0,1.5.8,1.6,1.5v16.5l-10,17.3h-.3c0,.1-17.8.1-17.8.1-.8.2-1.4,1-.9,1.8,0,.1.6.6.8.6h16.9-.1Z"/>
    <polygon class="st11" points="194.9 355.5 198.7 357.8 183.1 384.4 179.7 382.5 179.6 382.2 194.9 355.5"/>
    <path class="st20" d="M200,355.5l-3.9-2c.4-1.5,2-2.8,3.7-1.7s1,2.5.2,3.8h0Z"/>
    <path class="st39" d="M178.2,388.8c.3-1.2.2-2.6.5-3.7,0-.1,0-.3.2-.3s2.3,1.3,2.6,1.5l-3.3,2.5h0Z"/>
    <path d="M151.4,360.4c.8-.2,4.4-.1,5.2,0,.6,0,1.1.3,1.2,1.1.1,1.2.1,3.9,0,5.2,0,.8-.4,1.1-1.2,1.2-1.2.1-3.8.1-4.8,0-1,0-1.2-.6-1.3-1.5v-4.3c0-.5.3-1.4,1-1.5h0Z"/>
    <path d="M151.4,372.9c.8-.2,4.4-.1,5.2,0,.6,0,1.1.3,1.2,1.1.1,1.2.1,3.9,0,5.2,0,.8-.4,1.1-1.2,1.2-1.2.1-3.8.1-4.8,0-1,0-1.2-.6-1.3-1.5v-4.3c0-.5.3-1.4,1-1.5h0Z"/>
    <path d="M151.4,385.6c.8-.2,4.4-.1,5.2,0,.6,0,1.1.3,1.2,1.1.1,1.2.1,3.9,0,5.2,0,.8-.4,1.1-1.2,1.2-1.2.1-3.8.1-4.8,0-1,0-1.2-.6-1.3-1.5v-4.3c0-.5.3-1.4,1-1.5h0Z"/>
    <path d="M161,365.2h16.7c1.3.1,1.5,1.7.4,2.4-5.7.1-11.5.1-17.2,0-1.1-.6-1-1.8.2-2.3h-.1Z"/>
    <path d="M170.3,345.2c1-.1,3.3-.3,3.1,1.3-.2,2-3.4.2-3.3,1.8,0,.9,1.3.6,2,.9,3,1.2,2.5,5.8-.9,6.1-.6,0-2.6.1-3-.2-.6-.4-.8-1.2-.2-1.7,1-1,3.4.2,3.7-1s-1.2-.9-1.9-1.1c-3-1.1-2.6-5.7.5-6.1h0Z"/>
    <path d="M162.5,347.7c-.1,0-.1,1.2-.1,1.5h1.9c1.2,0,1.2,2.5,0,2.5h-1.9c0,.2,0,1.5.1,1.5h2.3c.2,0,.8.4.9.8.2.9-.1,1.6-1,1.7-1.7.2-3.9,0-4.5-1.8-.3-1.2-.3-5.7,0-6.8.6-1.6,2.8-1.7,4.3-1.6,1,.1,1.6,1.2,1,2l-.6.4h-2.3v-.2h0Z"/>
    <path d="M154.4,347.7c-.8,0-1.5,0-1.9-.6-.3-.6,0-1.5.8-1.7.5-.1,4,0,4.5,0s1,.5,1,1.2c0,1.2-1,1.4-1.9,1.3-.1,2,.2,4.4,0,6.3,0,.8-.4,1.4-1.3,1.4s-1.2-.4-1.2-.8v-7h.1Z"/>
    <path d="M180.2,347.7v7c0,.3-.9.8-1.2.8-.9,0-1.2-.6-1.3-1.4-.2-2,.1-4.3,0-6.3-1,0-2,0-1.9-1.3,0-.5.4-1,1-1.2s4.1-.1,4.5,0c.6.2,1.1,1.1.8,1.7-.4.8-1.2.8-1.9.6h.1Z"/>
    <path d="M161,390.5h10.9c1.4.3,1.4,2.3-.1,2.4h-10.7c-1.3-.4-1.4-1.8,0-2.4h0Z"/>
    <path class="st3" d="M182.2,365.2c1.8-.3,1.8,2.6,0,2.4-1.4-.1-1.4-2.1,0-2.4Z"/>
    <rect class="st17" x="152.9" y="362.7" width="2.5" height="2.5"/>
    <rect class="st17" x="152.9" y="375.4" width="2.5" height="2.5"/>
    <rect class="st17" x="152.9" y="388" width="2.5" height="2.5"/>
  </g>
  <g>
    <path class="st43" d="M387.5,190.3c.3,0-.4.2,0,.5h11.6l.3.5c.2,0,.5,0,.5.2,0,.6,0,5.4-.2,5.7,0,0-.2.1-.3.2h.5c1,2,2.6,2.1,4.5,2l.3.5c.6,1.1,1.2,4.6-.3,4.6l-.4.4c-2.1-.2-4.3-.3-6.4-.2-2.9,1,1.7,1.5,2.8,1.2l3.7-.3.4.5s.2-.1.3-.1c.9-.2.6,7,0,8.5l-.8.3c-21.1-3.7-23.3,26.6-2.4,26.6l.6.4c1.1,0,1.3.2.4,1l-2.1.6h-30.4l-.8-.5h-.6c-.4-6.6-.4-13-.1-19.6,0-1.3,0-2.1-.6-3.1v-6.8h.8c0,.1.8,3,.8,3,2.4,2.7,6.2,1.2,6.4-2.6,1.1-1.3,1.5-3,1.3-4.9,6.7-4.1,7.4-14,.3-18.2l-4-.8h14-.1Z"/>
    <path d="M404.8,214.6l.4-.4c1.1.2,3.7,1.7,3.9,2.8,5.4,4.1,6.9,11.6,3.8,17.6,2.3,3.1,10.3,7.6,5.5,11.8-3.5,3.1-6.6-1.2-9-3.5l-.5.2c-1.6-2.3-1.7-2.3-4.3-1.1-.9.4-1.6.4-2.3,0-11.4,1.4-19.9-10.9-14.1-20.9,3.2-5.6,10.3-8.5,16.5-6.4h.1Z"/>
    <path d="M377.3,190.3c7.1,3.4,7.8,13,2,18-.3.3-1.4.8-1.4.9-.4.8.5,2.8-.6,4.1-1.2,1.4-.8,1.2-1.3,3-.9,2.4-2.6,2.4-5,2s-1.7-3.1-2.8-4.6c0-.1-.4-.2-.6-.5-.9-1.4,0-3.3-.4-4,0,0-1.1-.6-1.4-.9-9.8-8.6.4-23.5,11.7-18h-.1Z"/>
    <path d="M368.2,220.5c.6,0,1.1.5,1.1,1.2-.2,6.9-.3,13.9,0,20.2,0,.5.1.8.3,1.2l.6.2c.5.8,1.2,1.3,2.3,1.4,7.3-.2,14.6-.1,22,.2,4.6.4,8.9,0,13.1-1.1.5,0-1.1,1.2,0,1.2,1.1.2,1.1,1.3.8,1.6-.5.9-2,.6-3.1.6-11,.2-20.9,0-32.9,0-2.9-.2-5.2-2.1-5.3-4.9-.3-6.6,0-14,0-20.7s.4-1.2,1.1-1.2h0Z"/>
    <path d="M409.1,214.1c-.5,1.1-1.6-.2-1.6-1.2v-12c-1.1,0-2-.2-2.8-.8-1.2,0-2.5.2-3.5-.3-.5-.2-1.8-1.3-1.8-2.3v-6h-11.9c-.6,0-1-.5-1-1.1s.3-1.1,1.2-1.1c2,0,10.4-.2,12.2.1.6.1,1.5.5,2,1,1.3,1,6,5.7,7,7,.8,1,1.2,1.8,1.2,3.1,0,4.4.1,8.7,0,12.7,0,.3,0,.9-1.1,1h.1Z"/>
    <path class="st34" d="M409.3,242.9c0,.5,0,1.4-1.1,1.9s-2.1.4-3.7.4c-11.1.2-21.3,0-32.3,0s-2.4-1-2.8-2.1h31.2l2.3-.6-.5-.4c1.4-.2,3.3-1.1,4.6-1.6.4,0,1.8,1.9,2.4,2.4h0Z"/>
    <path class="st34" d="M404.8,200h3.2c0,2.4,0,12.8.2,13.6.1.3.9.4.9.4v3s-3.1-2-4.3-2.5v-7.4c0-2.5-.3-.9-.3-1-.8-.1-.8-1.5,0-1.6,0,0,.3-.3.3-.6v-4h0Z"/>
    <path class="st13" d="M372.1,182.8c2.4-.6,1.8,5.8-.3,4.1-.6-.5-.8-3.8.3-4.1Z"/>
    <path class="st13" d="M355.9,199c.8-.2,3.1-.2,3.4.4,1,1.8-2.4,1.9-3.4,1.6-1-.3-1-1.7,0-2Z"/>
    <path class="st13" d="M360.5,187.6c1.4-.4,4,2.6,2.8,3.3-1.3,1-4.5-2.8-2.8-3.3Z"/>
    <path class="st13" d="M362.1,208.9c3.3-1,0,4.6-1.8,3.3-1.1-.8,1.1-3.1,1.8-3.3Z"/>
    <path class="st3" d="M384.1,190c-1,1.1-3,.9-2.7-.3s1.6-2.4,2.8-2.1c1.4.2.5,1.7-.1,2.5Z"/>
    <path d="M380.6,210.8h12.7c.9,0,.9,2.1,0,2.1h-12.7c-.6,0-1-1.8,0-2.1h0Z"/>
    <path d="M373.1,236.6h12.7c.9,0,.9,2.1,0,2.1h-12.7c-.6,0-1-1.8,0-2.1Z"/>
    <path d="M373.1,223.7h10.5c.9,0,.9,2.1,0,2.1h-10.5c-.6,0-1-1.8,0-2.1Z"/>
    <path d="M373.1,230.2h10.5c.9,0,.9,2.1,0,2.1h-10.5c-.6,0-1-1.8,0-2.1Z"/>
    <path d="M386,197.8h9.5c.9,0,.9,2.1,0,2.1h-9.5c-.6,0-1-1.8,0-2.1h0Z"/>
    <path d="M384.9,204.3h8.4c.9,0,.9,2.1,0,2.1h-8.4c-.6,0-1-1.8,0-2.1Z"/>
    <path d="M378.5,217.3h8.4c.9,0,.9,2.1,0,2.1h-8.4c-.6,0-1-1.8,0-2.1Z"/>
    <path class="st3" d="M404.5,204.6v1.6c-1.9.2-5.5.6-7.4.2-1-.2-1.3-1.3-.5-1.9.6-.5,6.8-.3,7.9,0h0Z"/>
    <path class="st10" d="M398.8,216.2c16.1-2,18.3,22,3.1,23.6-15.1,1.6-18-21.7-3.1-23.6Z"/>
    <path class="st24" d="M416.9,244.7h-.6c-1.4-1.9-4-4.6-6.1-4.3-.2-.2-1.4-1-1.4-1.2,1.2-.8,2-1.7,2.8-2.8,1.2,1.7,4.8,4.2,5.8,5.8.5,1.1.4,1.8-.5,2.6h.1Z"/>
    <path class="st4" d="M416.9,244.7c-.3.2-.4.5-1,.5-1.6.1-4.6-3.7-5.8-4.8-.1-.8.4-.5,1-.5,2.1.3,4.7,3,5.8,4.8h0Z"/>
    <path class="st37" d="M374.3,191.6c6.2,2.5,7,12.8,1.1,15.9h-1.9c.1-1.1-.2-2.6,0-3.7.2-1.3,4.5-3.4,2.9-4.7-1.3-1.1-2.8,1.8-3.9,2.5-1.3-.4-2.7-3.5-4.1-2.5-1.7,1.3,2.9,3.8,2.9,4.5v3.9c-3,.4-4.7-.5-6.2-3-4-6.7,1.6-14.4,9.2-12.9h0Z"/>
    <path class="st5" d="M375.4,207.5c5-4.6,4.5-11.9-1.1-15.9,6,1.2,8.5,7.8,5.4,13-1,1.7-2.3,2.8-4.3,2.9h0Z"/>
    <path class="st0" d="M373.5,209.8c.9.1.8,1.9,0,2.1-.5,0-4.3.1-4.3-.2v-2h4.3Z"/>
    <path class="st32" d="M371.1,215.7c-.2-.5-.5-1-.5-1.6h3.8c-.4,1.3,0,2-1.4,2.1-.9-.4-1.5-.6-1.9-.5h.1Z"/>
    <path class="st31" d="M373.5,209.8c.4,0,2.1-.1,2.1.2v2h-2.1v-2.1h0Z"/>
    <path class="st19" d="M373,216.2h-1.7c-.3,0-.1-.4-.2-.5-.2-1.2,1.6-.2,1.9.5h0Z"/>
    <path class="st25" d="M406.4,197.8h-4.1c-.4,0-.8-.3-.8-.8v-4.1l4.8,4.8h0Z"/>
    <path d="M399,218.4c11.6-1.6,15.5,14.9,4.7,18.7-13.5,4.7-18.3-16.9-4.7-18.7Z"/>
    <path class="st43" d="M400.5,220.5c6.4,1.9,6.4,13.1,0,15-10,0-9.9-15.1,0-15Z"/>
    <path class="st34" d="M400.5,235.5c5.7-3.5,5.7-11.6,0-15,10,0,9.9,15,0,15Z"/>
  </g>
  <g>
    <path d="M277.5,85.9c1.7,0,5.3-.5,3.4,2.3l-4.5,4.3v.3c7.9,12.7,2.5,29.7-11.1,35.6l.9,5.5c-.1,1.2-1.6,1.1-1.7,1.2s-.3,3.2-.3,3.7c.8-.1,1.7.2,1.9,1.1.2,1,.1,5.2,0,6.2-.2,2.1-2.3,1.1-2.9,1.5-.1,0-.2,2.1-.4,2.6-1.5,6.4-12.7,6.7-14.4.3-.1-.5-.3-2.8-.4-2.9s-2.5.3-2.9-.9v-7c.2-.8,1.3-1,1.9-.9-.1-.4-.2-3.5-.3-3.7s-1.5.2-1.7-1.2c0-1,1.1-5,.8-5.6-.8-.3-1.5-.6-2.3-1.1-12.5-7.2-16.3-23.3-7.9-35.2,7.9-11.4,24-13.8,34.9-5.2l4.6-4.5c2.7-1.5,2.3,2,2.3,3.7h.2Z"/>
    <path class="st28" d="M263.4,132.4h-11.7c.1-1.6.3-3.1.6-4.7-6.6-2.5-11.7-8.2-13.8-14.8-.3-1-1.1-3.7-.8-4.4h1.5c.6,8.1,7.2,14.6,15.3,15.1.1,1-.4,3.1.8,3.4,2.1.6,1.7-2.1,1.7-3.4,1.2,0,2.5-.3,3.7-.6s5.3-1.7,3.9-3.4c0-.2.2-.4.6-.6l1.1-1h.6c1.3.2,1.4-.9,1.3-1.8-.4-.3.4-1.6,1-1.5,1.7.9,2.4-2.3,2.7-3.3.1-.4.3-2.7.4-2.8.4-.5,3.7.6,3.7-1.3s-2.6-1.3-3.7-1.3c-.1-2.5-1-5-2.1-7.1-.2-.4-1.7-2.3-1.6-2.5,0,0,.9-1,1-1,1.4-.4,3.8.6,4.8-.8,6.7,10.3,2.7,24.6-7.9,30.5-.6.4-3.2,1.4-3.5,1.8-.1.2-.2.4-.2.6,0,.6.9,4.6.8,4.8h0Z"/>
    <path class="st28" d="M252.6,84.4c.5,0,1.1-.2,1.6-.3,5.2-.3,10.7,1.3,14.7,4.5-1.7,1-.4,3.5-1,4.8,0,.2-1.2,1.2-1.4,1.2s-1.4-1.1-1.8-1.3c-2.4-1.4-4.9-2.4-7.6-2.6,0-1.1.4-3.7-1.3-3.5s-1,2.5-1.2,3.5c-8.2.5-14.6,7.1-15.4,15.1h-1.5s-.1-.2-.2-.3c-.4-1,.4-4.8.8-6,1.9-6.7,7.3-13.2,14.1-15.3h.2,0Z"/>
    <path class="st2" d="M252.6,84.4c-8.7,3.5-14.7,12-14.7,21.6-.8,0-1.8,0-1.9,1-.3,2.1,2.4,1.1,3.5,1.6h-1.4c.9,8.5,6.7,16,14.7,19l-.8,4.8h11.5-15.6c0-1.1,1.2-4.6.6-5.6-.2-.3-3.1-1.5-3.8-1.9-17.8-10.3-12.7-37.6,7.9-40.6h-.2Z"/>
    <path class="st29" d="M253.2,100c2.7-1,4.7-.6,7.2.8,0,.1,0,.3-.1.4-.1.2-1.8,1.9-2,2,0,0-1.3-.4-1.6-.5-4-.4-6.7,3.4-4.8,7,2.5,4.5,9.7,2.3,8.7-3.3,0-.3-.5-1.2-.5-1.3s2-2.1,2.1-2.3c.1,0,.2,0,.2.2,3.9,5.4-.9,12.7-7.4,12-6-2-7.2-11.6-1.8-15h.1Z"/>
    <path class="st44" d="M264.7,119.6c-.9-1.1-2.3.2-3.2.6-1.4.5-2.8.9-4.2,1.1v-3.9c3.2-.4,6.3-2.6,7.8-5.4.6-1.2.8-2.4,1.3-3.7h3.5c0,.6,0,1.3-.2,2-.2,1.2-1.7,3.7-.4,4.3l-1,1.5c-1.1-.2-1.9,0-1.8,1.3.1.2.2.4.1.6-.6.4-1.2,1.3-1.9,1.4h0Z"/>
    <path class="st44" d="M247.8,95.9c2.1-1.5,4.2-2.5,6.9-2.6v3.9c-4.6.5-8.3,4.2-8.9,8.7-.2.2-1.4,0-1.7,0,0,0-.1-.2-.2-.3-.2-.6.3-2.9.5-3.7.6-2.3,1.7-4.5,3.5-6.1h-.1Z"/>
    <path class="st44" d="M263.7,141.3v3.5h-10.7s-.2-.1-.2-.2c0-.2-.3-3.1-.2-3.3h11.3-.1Z"/>
    <path class="st29" d="M245.7,108.6c0,.3-.4.4-1,.3.9,5.2,4.7,9.5,9.5,11.3,0-.8.1-1.6,0-2.5l.3-.2c.3,1.2,0,2.6.1,3.9-5.8-.5-10.9-4.6-12.4-10.2-.1-.4-.5-2.1-.4-2.4s.3-.2.5-.2h3.3,0Z"/>
    <path class="st44" d="M252.1,135.1h10l-.3,3.7h-9.7c0-.1-.3-3.4-.3-3.4l.3-.2h0Z"/>
    <path class="st44" d="M253.3,147.5h7.5c-.2.9,0,1.6-.4,2.5-.6,1.9-3,2.8-4.9,2.8-1-.2-1.4-1.1-1.8-1.9s-.9-2.5-.3-3.2h0Z"/>
    <path class="st44" d="M245.7,108.6c.8,4.6,4.2,8.2,8.9,8.9,0,.9.1,1.9,0,2.8,0,.2,0,.3-.2.2-.5,0-1.7-.8-2.3-1-4.1-2.3-7.1-6.2-7.8-11h1.4Z"/>
    <path class="st44" d="M257.2,97.1v-3.9c2.8.2,5.5,1.3,7.6,3.1,0,.2-2.5,2.7-2.7,2.7-1.5-1-3.1-1.8-4.9-2h0Z"/>
    <path class="st44" d="M269.9,106h-3.9c-.1-1.8-1-3.5-2-4.9,0-.2,2.5-2.7,2.7-2.7,1.8,2.1,3,4.8,3.1,7.6h.1Z"/>
    <path class="st9" d="M253.2,100c-4.8,4.3-3.9,12,1.8,15-8.1-.8-9.6-12.2-1.8-15Z"/>
    <path class="st29" d="M263.7,141.3h-11.1c.2,1.2.3,2.4.3,3.5h10.7-16.1c0,.1,0-3.7,0-3.7h16.1v.2h0Z"/>
    <path class="st29" d="M247.8,95.9c-.5.9-1.2,1.6-1.7,2.5-1.4,2.4-1.9,4.8-2.1,7.6h-2.1c.4-3.5,2.1-7.1,4.9-9.5.3-.3.8-.4,1.1-.6h0Z"/>
    <path class="st29" d="M253.3,147.5c.1,2,.5,3.8,2.1,5.2-1.6,0-3.7-.9-4.4-2.4-.4-1-.3-1.8-.5-2.8h2.8Z"/>
    <path class="st44" d="M255.5,105c3.3-.4,3.5,4.4.4,4.4-1.6-.5-1.9-3.5-.4-4.4Z"/>
    <path class="st29" d="M275.3,88v.3c-1.4,1.3-2.7,2.7-4,4.1.6,0,1.1,0,1.4.3-.6.3-1.6,0-2.3,0v-2.4c0-.3,4.1-3.9,4.5-4.5.2.6,0,1.4.4,1.9h0v.2Z"/>
    <path class="st21" d="M275.3,88c.2,0,1.4.5,1.8.4-.9.5-3.9,4.2-4.4,4.4h-2.1c.6-.5,4.4-4.6,4.7-4.6h0v-.2Z"/>
    <path class="st29" d="M252.1,135.1l.3,3.7h-2.8l-.3-3.7h2.8Z"/>
    <path class="st27" d="M255.5,105c-1,1.5-.8,3.1.4,4.4-2.9,0-3-4.1-.4-4.4Z"/>
    <path class="st45" d="M268.4,116.2c1.1,1.1-.4,2.8-1.7,1.9-1.4-.9.3-3.3,1.7-1.9Z"/>
  </g>
  <g>
    <path d="M120.1,182.7c20.5-.3,33.9,21.6,24.3,39.7-.6,1.1-1.4,2.1-1.9,3.3,0,.1,1.7,1.8,1.8,1.8.3,0,.9-1.1,1.3-.9l11.2,11.2c4.8,5.4-2.1,12.9-7.8,8.2l-11.4-11.3c-.2-.4,1-1,.9-1.3,0-.1-1.7-1.8-1.8-1.8-.2,0-2.7,1.6-3.2,1.9-15.6,8.4-34.9-.3-39.1-17.4-4.1-16.9,8.6-33.2,25.9-33.5h0Z"/>
    <path class="st30" d="M118.8,184.9c17.9-1.2,31.3,16.7,24.8,33.6-7,18.5-32,21.7-43.5,5.5-11.2-15.8-.5-37.8,18.7-39.1h0Z"/>
    <path class="st16" d="M145.2,229.7c3.4,3.1,6.6,6.6,9.9,9.8,2.8,3.2-1.1,7.5-4.6,5.3l-10.1-10.1v-.3l4.7-4.6h.1Z"/>
    <path class="st15" d="M138.2,230.1c1-.6,1.9-1.6,2.6-2.6.2-.2,1.6,1.5,1.8,1.7,0,.2-2.3,2.4-2.7,2.8-.1,0-1.5-1.3-1.7-1.5,0-.1-.2-.1-.1-.3h.1Z"/>
    <path d="M118.8,187.2c18.2-1.3,30.4,18.4,21.2,34.2-8.5,14.5-29.4,14.9-38.6.9-9.1-14.1.3-33.8,17.4-35h0Z"/>
    <path class="st22" d="M119,189.4c17-1.3,28.1,17.7,18.6,31.9-8.4,12.4-26.7,12-34.6-.8-7.9-13.1.8-30.1,16-31.2h0Z"/>
    <path d="M134.5,214.1h2.1v3.9c0,1.1-2,2.8-3.1,2.7h-26.3c-1.1,0-2.9-1.6-2.9-2.7v-3.9h2.1v-14.6c0-1.1,2-2.8,3.1-2.7h22.1c1.1,0,2.8,1.6,2.8,2.7v14.6h0Z"/>
    <path class="st38" d="M132.4,214.1h-23.7v-14.4c0-.2.6-.9,1-.8h21.6c.3-.1,1.2.4,1.2.8v14.4h0Z"/>
    <path class="st16" d="M134.5,216.2c0,.8.2,1.6-.5,2-8.8.2-17.6,0-26.5,0-1.2-.1-1-1.2-1-2.1h28Z"/>
    <path d="M130.2,202.2v4.3c0,.6-.4,1.1-1.1,1.1h0c-.6,0-1.1-.4-1.1-1.1v-1.6l-4.5,4.4c-1.1,1.1-2.8,1.1-4,0l-2-1.9c-.2-.2-.6-.2-.9,0-1.1,1-2.6,2.5-3.4,3.3-.4.4-1.1.4-1.5,0h0c-.4-.4-.4-1.1,0-1.5l3.3-3.3c1.1-1.1,2.8-1.1,4,0l1.9,1.8c.2.2.6.2.9,0l4.4-4.4h-1.6c-.6,0-1.1-.4-1.1-1.1h0c0-.6.4-1.1,1.1-1.1h4.3c.6,0,1.1.4,1.1,1.1h.2,0Z"/>
  </g>
  <circle class="st14" cx="256.2" cy="253.9" r="68.3"/>
  <g>
    <path d="M241.1,262.1s.6-.5.6-.6c.4-.9-.3-2.4-.4-3.2-1.2-5.6-.3-11,2.8-15.8,3.4-5.6,9.6-9.1,16-9.7.3,0,0,.9,0,1.2-.2,2.9,2.3,4.6,5,4.2,3-.4,6.7-2.1,9.7-2.9,1.9-1.2,2.7-3.4,1.6-5.5-1.3-2.6-4.1-5.4-5.6-8.1-2.8-3.1-7.3-1.1-7.2,3-11.3-.5-21.8,5.3-27.3,15.1-6.2,11.5-4,25.7,5.3,34.8h-4.6c.9-3.3-2.3-6.2-5.5-4.9-1.3.5-7.1,4.8-8.3,5.9-1.8,1.7-1.8,4.3-.1,6.1,2.6,1.6,5.3,4.3,7.9,5.7,3.4,1.8,6.9-1,6-4.6h50.3c1.8-.2,3-1.5,3.5-3.2v-1.6c0-1.4-.8-2.3-1.9-2.9-.4-.2-1.4-.8-1.7-.3v-.3c-.9,0-4.1-.2-4.6,0l-.6.3c.1,0,.2,0,.4-.1s.2-.1.3-.2c4.7-4.6,7.8-11.3,8.2-17.9v-1c-.1,0,0-.1,0-.3v-.4c-.1-.2-.1-.5,0-.9v-.5c-.1-.2-.1-.5,0-.9v-1.5c-.4-4.2-3-12.2-6.1-15.3-2.1-2.1-6-1.2-6.8,1.8-.6,2.5,1,3.5,2,5.5,5.5,9.7,2.7,21.7-6.4,27.8-7.8,5.4-18.3,4.5-25.6-1.6-.4-.1-1.1,0-1.4.2-.8-.2-.9.8-.6,1.4.3,1.5,4.7,3.8,5.9,4.3,2.4,1.1,5.2,1.9,7.7,2.1,3.2.2,6.4.2,9.6.2,5.8-.2,11.7-.2,17.5-.1,1.3,0,1.6,1.8.3,2.1-7.9,0-15.8,0-23.7.1-16.2.6-29.4-13.4-27.3-29.7,1.9-14.3,15.4-24.5,29.4-22.3,2,0,2.6-1.7,1.3-3.1-.5-1.6,1.4-2.1,2.1-.8,1.6,2.4,3.2,4.8,4.9,7.2.2.6,0,1.1-.5,1.4-2.4.6-4.7,1.4-7.1,2.3-2.6,1.2-4.6-.8-1.4-2.1.9-.5.9-1.8,0-2.5-1-.8-4.2-.5-5.4-.4-12.4,1-21.7,12.4-21.5,24.5,0,1.5.4,7,1.9,7.9.3.2,1.2.4,1.3,0h-.1Z"/>
    <path class="st35" d="M290.7,253.3v-.9c-.2.1-.2.6,0,.9Z"/>
    <path class="st33" d="M290.7,254.7v-.9c-.2.1-.2.6,0,.9Z"/>
    <path class="st1" d="M290.6,255.3c0,0,0,0,.1,0v-.3c-.1,0-.1.1-.1.3Z"/>
    <path class="st7" d="M290.7,255.5v-.3h-.1c0,.1,0,.2.1.3Z"/>
    <path class="st26" d="M241.1,262.1c-1.7.4-2-1.5-2.4-2.8-3.7-15,8.6-30.6,24.3-29.3.9,0,1.7.2,1.9,1.2.3,1.9-2.7,1.3-2.1,3.3.2,1,1.1,1.1,1.8,1,2.7-.4,5.9-2,8.6-2.6.6-.4,1-1.1.6-1.8-1.8-2.3-3.3-5.4-5.3-7.6-1-1.2-2.7-.3-2.4,1.1.1.8.8,1,.8,1.8,0,2-2.8,1.1-4.1,1-17.3-.8-30.7,15.3-26.9,32.2,2.6,11.1,12.5,19.8,23.8,20.4,8.8.5,18.2-.4,27,0,1.7-.4,1.4-2.6-.3-2.7-8.7-.4-17.9.5-26.6,0-4.1-.2-8.5-1.9-11.8-4.2-.9-.6-3.2-2-1.7-3.3-.9-.5-1.8-1.5-2.3-2.5h-.3c-1.4.6-2.3-1.1-1.2-2v-.3c-.3,0-.5-.4-.6-.5-.4-.8-.8-1.5-1.1-2.3h.2,0Z"/>
    <path class="st3" d="M242.7,264.9s-.4.3-.4.4c-1,1.4.6,2.9,1.9,1.9,1.2-.9.2-2.8-1.5-2.3h0Z"/>
    <path class="st12" d="M277.7,274.4s1.4-1.1,1.5-1.3c8.6-7.6,11.2-20.2,6.3-30.7-.4-.9-2.6-4.8-3.2-5.2-1-.4-2.1.3-2,1.3,0,.5,1.7,2.7,2,3.3,5.8,10.5,2.8,23.8-7.1,30.7l-2.6,1.6h4.9v.2h.1Z"/>
    <path class="st12" d="M249.3,279.9l-4.6-2.7c-3.4-.2-7.3.3-10.6,0-1,0-1.5-.9-1.3-1.8.1-.6,1-.8,1.3-1.3.9-1.2-.3-2.8-1.9-1.9-2.5,1.4-4.9,3.9-7.4,5.4-.6.6-.5,1.5.1,2.1,2.5,1.4,4.8,3.9,7.2,5.2,1,.5,2,.3,2.1-.9.2-1.4-1.9-1.5-1.6-3,0-.3.8-1.1,1.1-1.1h15.7,0Z"/>
    <g>
      <path d="M260.8,240.7c10-.6,16.9,10,12.2,18.8-4.7,8.8-17.5,9.1-22.5.4-4.7-8.3.9-18.6,10.2-19.2h0Z"/>
      <path class="st46" d="M260.8,243.5c8.1-.8,13.6,8.1,9.7,15.1-3.9,6.7-13.6,6.8-17.5,0-3.9-6.7.4-14.6,7.8-15.3h0Z"/>
      <path d="M267.4,249.4c1.3-.2,2,1.4,1.2,2.3l-8.8,6c-.5,0-1.1,0-1.4-.3-1.1-1.4-2.6-2.7-3.7-4.1-1-1.3.1-2.8,1.4-2.3,1,.4,2.5,2.8,3.3,3.4.4,0,6-4.2,7.1-4.8l.9-.4h0v.2h0Z"/>
    </g>
  </g>
  <path d="M135.4,72.4c-.5,0-1-.2-1.3-.5,0,0-.3-.4-.4-.8-.2-1.2,1.4-2.5,2.6-3.3.5-.4,1.1-1.1,1.6-1.5,0,0,.2-.2.4-.5,0,0,.2-.3.1-.3h-.5c-.4.2-1,.4-1.4.6-1.2.5-2.9,1.5-4.9,2.8-1.5,1-8.1,5-14.5,11.8-1.5,1.6-2.8,3-4,4.4-1.1,1.3-3,4.3-3.9,4.9s-1.9.4-2.7,0c-1.2-.6-1.6-2.1-1.2-3.2s4.1-4.8,6.3-7c6.8-6.8,14.4-12.2,23.2-16.1,0,0,1.5-.4,1.4-.6h-.3c-1.6-.2-3.5,0-3.5,0h-1.1c-.4,0-1,0-1.2-.4-.3-.4-.3-1.2,0-1.6.5-.8,1.7-.6,3.4-.6h5.7c.9,0,4.2-.3,6.2.2.2,0,.6.2.8.5.2.5-.6,1.4-1,1.7-2.6,2.6-3.5,3.1-4.8,4.3-1.5,1.5-2.9,3.4-4.5,4.9-.2.2-.5.3-.6.4h.1Z"/>
  <g>
    <path d="M39,251.8l-18.9-.8.5-14.1h3.2c0,.1-.4,10.3-.4,10.3h4.2c0,.1.3-9.3.3-9.3h3.2c0,.1-.3,9.7-.3,9.7l5.2.2.4-10.5h3.2c0,.1-.5,14.5-.5,14.5h-.1Z"/>
    <path d="M26,233.1l.4-3.3,1.8.2c-1.3-1.4-1.8-2.9-1.6-4.5.1-.9.4-1.6.9-2.1.4-.6,1.1-1.1,1.8-1.4-.6-.6-1.1-1.4-1.4-2.1-.2-.8-.3-1.5-.2-2.3.1-1,.4-1.8,1-2.5s1.2-1.1,2-1.3c.6-.2,1.6-.2,2.9,0l8.7,1.2-.4,3.5-7.7-1c-1.4-.2-2.3-.2-2.7,0-.5.2-.9.8-1,1.4,0,.5,0,1,.3,1.5.2.5.6.9,1.2,1.2s1.5.5,2.8.6l6.6.9-.4,3.5-7.4-1c-1.3-.2-2.1-.2-2.6-.1s-.8.2-1,.4-.3.6-.4,1.1c0,.5,0,1.1.2,1.5s.6.9,1.2,1.1,1.5.5,2.8.6l6.6.9-.4,3.5-13.6-1.8-.2.2Z"/>
    <path d="M29.5,208.8l.8-3.3,1.9.4c-.5-.5-1-1.3-1.3-2.1s-.3-1.7,0-2.6c.3-1.5,1.3-2.7,2.7-3.5,1.5-.9,3.3-1,5.5-.5,2.3.5,3.9,1.4,4.8,2.8s1.3,2.8,1,4.4c-.2.8-.4,1.4-.9,1.9-.4.5-1.1,1.1-1.9,1.5l6.8,1.5-.8,3.5-18.5-4.2v.2ZM36.8,206.8c1.5.3,2.7.3,3.5-.1.9-.4,1.4-1.1,1.6-1.9s0-1.6-.5-2.3-1.5-1.2-3-1.5c-1.4-.3-2.5-.2-3.3.1-.9.4-1.3,1.1-1.5,1.8-.2.9,0,1.6.5,2.4s1.5,1.2,2.8,1.5h-.1Z"/>
    <path d="M38.2,191l-1.5,3c-1.2-.8-1.9-1.6-2.3-2.7s-.3-2.5.2-4.1c.4-1.5,1-2.7,1.6-3.3s1.2-1.1,1.8-1.2c.6-.1,1.7,0,3.2.4l4.1,1.3c1.2.3,2,.5,2.6.6h1.9l-1.1,3.4h-1.5c.4.8.6,1.5.8,2.3,0,.8,0,1.5-.2,2.3-.4,1.4-1.1,2.3-2,2.9s-2,.6-3.1.3c-.8-.2-1.4-.6-1.8-1.1s-.8-1.2-.9-1.9-.1-1.7,0-3c.2-1.7.2-2.9.1-3.7h-.3c-.6-.3-1.2-.3-1.6,0-.4.2-.8.9-1,1.7-.2.6-.2,1.2,0,1.5s.4.9,1.1,1.2h-.1ZM42.4,187.1v4.3c.2.5.5.9,1.1,1.1.5.1,1,0,1.4-.2.4-.2.8-.6,1-1.2.2-.6.1-1.3,0-1.9-.2-.5-.5-.9-.9-1.2-.3-.2-.9-.4-1.6-.6l-.6-.2h-.3Z"/>
    <path d="M40.1,172l2.7,1-.9,2.4,5.2,1.8c1.1.4,1.7.5,1.8.6.2,0,.3,0,.5-.1s.3-.3.4-.5c.1-.3.2-.9.2-1.5l2.8.6c0,1,0,1.8-.4,2.9-.2.6-.5,1.2-.9,1.5-.4.4-.8.6-1.2.8-.4.1-.9.1-1.5,0-.4,0-1.3-.3-2.5-.8l-5.6-2-.5,1.6-2.7-1,.5-1.6-2.6-1-.8-4.2,4.5,1.6.9-2.4v.2Z"/>
    <path d="M37.7,163.7l6.4,2.7c-.8-1.6-.9-3.1-.2-4.6.3-.8.8-1.4,1.3-1.9s1.1-.9,1.7-1c.5-.1,1.2-.1,1.7,0s1.4.4,2.6.9l7.4,3.1-1.4,3.3-6.7-2.8c-1.3-.5-2.1-.9-2.6-.9s-.8,0-1.2.3c-.3.2-.6.5-.9,1.1s-.3,1.1-.2,1.6c0,.5.3,1.1.9,1.5.4.4,1.2.9,2.3,1.3l6.3,2.7-1.4,3.3-17.4-7.4,1.4-3.3h-.1Z"/>
    <path d="M46.2,153l-3-1.5,1.6-3.2,3,1.5-1.6,3.2ZM60.2,159.8l-12.4-6,1.6-3.2,12.4,6-1.6,3.2Z"/>
    <path d="M62.6,154.7l-2.5-1.4-2.7-7.3c-.4-1.2-.8-2-.9-2.6l-.8,1.5-2.3,4.3-2.7-1.4,5.5-10,2.3,1.2,2.8,7.5.9,2.6.9-1.7,2.7-4.9,2.8,1.5-5.9,10.7h-.1Z"/>
    <path d="M70.1,133.1l2.5-2.7c.9,1.1,1.3,2.3,1.4,3.4,0,1.2-.3,2.5-1.2,3.8-1.3,2-2.9,3.1-4.8,3.2-1.5,0-3.1-.3-4.7-1.4-1.9-1.2-3.1-2.7-3.5-4.4s-.2-3.3.8-4.8c1.1-1.7,2.5-2.7,4.3-3s3.9.3,6.1,1.8l-4.8,7.7c1,.5,1.8.8,2.6.6.9-.1,1.4-.5,1.8-1.3.3-.4.4-1,.3-1.5,0-.5-.3-1-.8-1.5h.1ZM67.1,130.9c-.9-.5-1.7-.8-2.5-.6-.8.1-1.3.5-1.7,1.2s-.5,1.4-.3,2.1.8,1.4,1.6,1.9c0,0,2.9-4.6,2.9-4.6Z"/>
    <path d="M224.2,19.3l7-.8c1.6-.1,2.8-.2,3.7,0,1.2.2,2.1.6,3,1.4s1.6,1.7,2.1,2.9c.5,1.2.9,2.6,1.1,4.4.1,1.5,0,2.9-.2,4.1-.3,1.4-.9,2.6-1.7,3.5-.6.8-1.4,1.3-2.5,1.8-.9.3-1.9.6-3.3.8l-7.2.8-1.9-18.8h0ZM228.4,22.1l1.3,12.5,2.8-.3c1.1-.1,1.8-.2,2.3-.4.6-.2,1.1-.5,1.5-1,.3-.4.6-1.1.9-1.9s.2-2,0-3.4c-.1-1.5-.4-2.6-.8-3.3-.3-.8-.8-1.3-1.3-1.7s-1.1-.6-1.8-.8c-.5,0-1.6,0-3.1.1l-1.7.2h0Z"/>
    <path d="M252.7,31.9l3.7.5c-.4,1.3-1.2,2.4-2.1,3.1s-2.3,1.1-3.8,1.2c-2.4,0-4.2-.6-5.4-2.1-1-1.2-1.4-2.8-1.5-4.7,0-2.3.5-4.1,1.6-5.4,1.2-1.3,2.7-2,4.4-2s3.7.5,4.8,1.9c1.2,1.3,1.8,3.3,1.8,6.1l-9.1.2c0,1.1.3,1.9,1,2.5.5.5,1.3.9,2.1.9s1.1-.2,1.4-.5c.4-.3.6-.9.9-1.5h.2ZM252.8,28.2c0-1.1-.3-1.8-.9-2.4s-1.2-.8-1.9-.8-1.4.3-1.9,1c-.5.5-.8,1.4-.6,2.4h5.4v-.2Z"/>
    <path d="M258,22.4h2v-1c0-1.2.2-2,.4-2.6.2-.5.8-1,1.4-1.4s1.5-.5,2.5-.4c1.1,0,2,.2,3,.5l-.5,2.5c-.5-.1-1.1-.2-1.6-.2s-.9,0-1.2.3c-.2.2-.3.8-.4,1.4v1h2.7v2.9h-2.8l-.3,10.9h-3.7l.3-11h-2v-2.9h.2Z"/>
    <path d="M267.9,36.5l.9-13.6,3.7.2-.9,13.6-3.7-.2ZM268.9,20.9l.2-3.3,3.7.2-.2,3.3-3.7-.2Z"/>
    <path d="M287.5,38.3l-3.7-.4.8-7c.2-1.5.2-2.5,0-2.9,0-.4-.3-.9-.6-1.1-.3-.3-.8-.4-1.2-.5-.6,0-1.2,0-1.7.3s-1,.8-1.2,1.3-.4,1.6-.6,3.1l-.8,6.1-3.7-.4,1.6-13.6,3.3.4-.2,2c1.4-1.4,2.9-2,4.7-1.8.8,0,1.5.3,2.1.6s1.1.8,1.4,1.3.4,1,.5,1.6v2.5l-1,8.5h.1Z"/>
    <path d="M299.4,36.1l3.4,1.3c-.8,1.2-1.6,2-2.7,2.6s-2.4.6-3.9.3c-2.4-.4-4-1.5-4.7-3.2-.6-1.4-.9-3-.4-4.9.4-2.3,1.3-3.9,2.7-4.9s3-1.4,4.8-1.1c2,.3,3.4,1.3,4.4,2.9,1,1.5,1.1,3.7.5,6.4l-8.9-1.6c-.2,1.1,0,1.9.4,2.6s1.1,1.1,1.9,1.3c.5,0,1.1,0,1.5-.2s.9-.6,1.2-1.3h-.3ZM300.3,32.4c.2-1.1,0-1.8-.3-2.5s-1-1-1.7-1.2c-.8-.1-1.5,0-2,.5-.6.4-1,1.2-1.2,2.1l5.4,1h-.1Z"/>
    <path d="M448.5,152.4l16.9-8.7,1.7,3.4-16.9,8.7-1.7-3.4Z"/>
    <path d="M457,170.2l-1.4-3.1,1.8-.9c-1-.2-1.7-.5-2.4-1.1s-1.2-1.2-1.5-1.8c-.6-1.4-.6-2.9,0-4.5.8-1.5,2-2.8,4.2-3.8s4-1.2,5.5-.6,2.7,1.5,3.3,3c.6,1.4.5,2.9-.1,4.4l6.2-2.8,1.5,3.3-17.3,7.7h.1ZM459.6,158.5c-1.3.6-2.3,1.2-2.7,1.8-.6,1-.8,1.8-.3,2.8.3.8,1,1.3,1.8,1.5s1.9,0,3.2-.5c1.4-.6,2.4-1.4,2.8-2.1s.4-1.6,0-2.4c-.3-.8-1-1.3-1.8-1.5-.9-.2-1.9,0-3.1.4h.1Z"/>
    <path d="M465.1,179.3l.6,3.7c-1.4,0-2.6-.3-3.7-1.1-1-.8-1.7-1.7-2.3-3.2-.9-2.3-.8-4.2.3-5.8.9-1.3,2.1-2.3,4-2.9,2.1-.8,4-.9,5.6-.2s2.8,1.8,3.3,3.5c.8,1.9.6,3.7-.2,5.3-.9,1.6-2.6,2.8-5.3,3.8l-3.1-8.5c-1,.4-1.7,1-2,1.7-.3.8-.4,1.5-.1,2.3.2.5.5,1,1,1.2.4.2,1,.3,1.7.3h.1ZM468.6,178.2c1-.4,1.6-1,1.9-1.6s.3-1.4.1-2c-.3-.8-.8-1.3-1.5-1.5-.8-.3-1.5-.2-2.5,0l1.8,5h.1Z"/>
    <path d="M473,186.8l-.3-3.3c1.4,0,2.5.3,3.3,1,.9.6,1.5,1.9,2,3.5.4,1.5.6,2.8.4,3.7-.1.9-.4,1.5-1,2s-1.5,1-3,1.4l-4.1,1.2c-1.2.3-2,.6-2.5,1s-1.1.6-1.6,1.2l-1-3.4c.2-.1.5-.3,1-.6.2-.1.3-.2.3-.2-.8-.4-1.4-1-1.8-1.5-.5-.6-.9-1.3-1.1-2-.4-1.4-.3-2.6.2-3.5s1.3-1.6,2.5-2c.8-.2,1.5-.2,2.1,0s1.3.5,1.8,1.1,1.1,1.4,1.6,2.6c.8,1.5,1.4,2.6,1.8,3.1h.3c.6-.3,1.1-.6,1.3-1,.2-.4.1-1.1-.1-2-.2-.6-.4-1.1-.8-1.3-.3-.3-.9-.4-1.5-.4v-.2ZM471.5,192.3c-.3-.4-.6-1.1-1.2-1.9s-.9-1.5-1.2-1.7c-.4-.3-1-.4-1.4-.3-.5.1-.9.4-1.1,1-.2.4-.3,1-.1,1.5.2.6.5,1.2,1.2,1.6.4.3.9.5,1.4.5s.9-.1,1.7-.3l.6-.2h0Z"/>
    <path d="M481.8,203.7l-2.8.6-.5-2.4-5.4,1.3c-1.1.2-1.7.4-1.9.5s-.3.2-.3.4v.6c0,.3.3.8.6,1.3l-2.7,1c-.5-.8-1-1.6-1.2-2.7-.1-.6-.2-1.2,0-1.8,0-.5.3-1,.5-1.3.3-.3.8-.6,1.3-.9.4-.2,1.2-.4,2.5-.8l5.8-1.4-.4-1.6,2.8-.6.4,1.6,2.7-.6,2.9,3-4.7,1.1.5,2.4v.2Z"/>
    <path d="M474.6,216.1v3.7c-1.3-.2-2.5-.8-3.3-1.6-.9-.9-1.4-2-1.7-3.5-.4-2.4,0-4.2,1.4-5.6,1.1-1.1,2.6-1.8,4.4-2.1,2.3-.4,4.1-.1,5.6.8s2.4,2.3,2.7,4.1c.3,2,0,3.8-1.2,5.2-1.1,1.4-3,2.4-5.8,2.8l-1.6-8.9c-1.1.2-1.8.6-2.4,1.3-.5.6-.6,1.4-.5,2.3,0,.5.3,1,.8,1.3.3.3,1,.5,1.6.6h.1ZM478.3,215.7c1.1-.2,1.7-.6,2.3-1.2.4-.6.6-1.3.4-2-.1-.8-.5-1.4-1.2-1.8s-1.5-.5-2.5-.3l1,5.4Z"/>
    <g>
      <path d="M91.9,421.2l10.6-11.1-4-3.8,2.1-2.3,10.5,10.2-2.1,2.3-4-3.8-10.6,11.1-2.7-2.6h.1Z"/>
      <path d="M108,430.1l2.3,2.8c-1.2.6-2.4,1-3.5.9s-2.4-.6-3.4-1.6c-1.7-1.5-2.6-3.2-2.5-5,.1-1.5.8-2.9,2-4.4,1.4-1.7,3-2.6,4.7-2.8s3.2.3,4.5,1.4c1.5,1.3,2.3,2.8,2.3,4.5s-.9,3.7-2.7,5.7l-6.8-5.8c-.6.9-1,1.6-1,2.4s.3,1.5,1,2c.4.3.9.5,1.4.5s1-.2,1.6-.5h.1ZM110.4,427.5c.6-.8,1-1.5,1-2.3s-.3-1.3-.9-1.8-1.3-.8-2-.6c-.8,0-1.4.5-2,1.3,0,0,4,3.4,4,3.4Z"/>
      <path d="M112.2,434.2l3.1,1.7c-.3.6-.3,1.3-.2,1.8s.5,1.1,1.2,1.6c.8.5,1.4.9,1.9.9s.8-.1,1-.4c.2-.2.2-.4.2-.6s-.2-.6-.6-1.1c-1.9-2.3-3-3.8-3.3-4.6-.4-1.2-.2-2.4.5-3.3.6-1,1.6-1.4,2.9-1.5,1.2,0,2.6.4,4.1,1.6,1.5,1.1,2.4,2.1,2.7,3.1s.3,2-.1,3.2l-3-1.5c.2-.5.2-1,0-1.4-.1-.4-.5-1-1.1-1.4-.8-.5-1.4-.9-1.8-.9s-.5,0-.8.3c-.1.2-.2.4,0,.8.1.4.8,1.3,2,2.8s1.9,2.7,2.3,3.7c.2,1,0,1.8-.6,2.8-.8,1-1.8,1.5-3.1,1.6-1.4,0-2.8-.4-4.4-1.7-1.5-1.1-2.4-2.3-2.8-3.4s-.3-2.5.1-3.7v-.3Z"/>
      <path d="M135.5,439.1l-1.6,2.4-2-1.4-3,4.5c-.6.9-1,1.4-1,1.6v.5c0,.2.2.3.4.4.3.2.8.3,1.4.5l-1.3,2.5c-.9-.2-1.7-.5-2.6-1.1-.5-.3-1-.8-1.3-1.2s-.4-.9-.4-1.3.1-.9.3-1.4c.2-.4.6-1.1,1.3-2.1l3.2-4.8-1.4-.9,1.6-2.4,1.4.9,1.5-2.1,4.1.3-2.7,3.9,2,1.4v-.2Z"/>
      <path d="M340.1,473l-7.1-17.1,5.5-2.3c2-.9,3.5-1.4,4.2-1.4,1.1-.1,2.1,0,3.1.6s1.8,1.5,2.4,2.9c.4,1.1.6,2,.5,2.9,0,.9-.3,1.6-.8,2.3-.4.6-.9,1.2-1.4,1.5-.8.5-1.9,1.1-3.4,1.7l-2.3,1,2.7,6.4-3.4,1.4h0ZM337.6,457.4l2,4.8,1.9-.8c1.4-.5,2.3-1.1,2.6-1.4.4-.3.6-.8.8-1.3,0-.5,0-1-.2-1.5-.2-.6-.6-1.1-1.2-1.3s-1.1-.3-1.7-.2c-.4,0-1.3.4-2.6.9l-1.6.6h0Z"/>
      <path d="M359.6,464.4l-3.2,1.5-5.9-12,2.9-1.4.9,1.7c.1-1.1.3-1.8.5-2.3.3-.4.6-.9,1.2-1.1.8-.3,1.5-.5,2.4-.4l.3,3.2c-.8,0-1.3,0-1.7.2s-.8.5-1,1c-.2.4-.2,1,0,1.7.1.8.8,2.1,1.7,4.2l1.8,3.8h.1Z"/>
      <path d="M362,455.6c-.5-1.1-.9-2.1-1-3.4,0-1.3.2-2.4.9-3.4.6-1.1,1.5-1.8,2.7-2.5,1.7-1,3.5-1.2,5.3-.8,1.7.5,3.1,1.6,4.1,3.4,1,1.7,1.3,3.5.8,5.4s-1.6,3.2-3.3,4.2c-1.1.6-2.3,1-3.4,1s-2.4-.2-3.4-.9c-1.1-.6-1.9-1.6-2.7-3h.2ZM365.3,453.9c.6,1.2,1.4,1.9,2.4,2.1.9.3,1.7.2,2.6-.2.8-.4,1.3-1.2,1.5-2,.2-1,0-1.9-.6-3.1s-1.4-1.8-2.3-2.1-1.7-.2-2.6.2c-.8.4-1.3,1.2-1.5,2s0,1.9.6,3.1h-.1Z"/>
      <path d="M378.3,438.4l1.5,2.4-2,1.3,2.9,4.5c.5,1,1,1.4,1.1,1.6.1.1.3.2.5.2s.4,0,.6-.2c.3-.2.6-.5,1-1.1l1.7,2.1c-.5.8-1.2,1.4-2,1.9-.5.3-1.1.5-1.6.6s-1,0-1.4,0c-.4-.1-.8-.4-1.2-.9s-.8-1-1.4-2l-3.1-4.9-1.4.9-1.5-2.4,1.4-.9-1.4-2.3,1.9-3.7,2.6,4,2-1.3h-.2Z"/>
      <path d="M383.3,442.8c-.6-1-1.1-2-1.3-3.3-.2-1.2,0-2.4.5-3.4s1.3-2,2.4-2.8c1.6-1.2,3.3-1.6,5.2-1.3,1.8.3,3.3,1.3,4.5,2.9s1.6,3.4,1.3,5.3c-.3,1.8-1.2,3.3-2.8,4.5-1,.8-2.1,1.2-3.3,1.4-1.2.2-2.4,0-3.4-.5s-2-1.4-3-2.7h0ZM386.4,440.8c.8,1.1,1.6,1.7,2.6,1.9s1.7,0,2.5-.5c.8-.5,1.2-1.3,1.3-2.3,0-1-.2-1.9-1.1-3-.8-1.1-1.6-1.7-2.5-1.9s-1.7,0-2.5.5c-.8.5-1.2,1.3-1.3,2.3,0,1,.2,1.9,1,3Z"/>
      <path d="M397.6,424l1.7,2.1-1.9,1.5,3.3,4.2c.6.9,1.1,1.3,1.3,1.4.1.1.3.2.5.1s.4,0,.5-.2c.2-.2.5-.5.9-1.2l1.9,1.9c-.4.8-1.1,1.5-1.8,2.1-.5.4-1,.6-1.5.9-.5.1-1,.2-1.4,0s-.9-.3-1.3-.8-.9-.9-1.6-1.8l-3.7-4.5-1.3,1-1.7-2.1,1.3-1-1.6-2,1.5-3.9,2.9,3.7,1.9-1.5h0Z"/>
      <path d="M398.1,423.5l2.8-2.5,8.7,4.9-4-9.1,2.7-2.5,5,12.8,1,2.3c.3.8.4,1.4.5,1.9v1.4c0,.4-.3.9-.6,1.3-.3.4-.8,1-1.2,1.4-.5.4-1.1.9-1.6,1.2l-2-1.8c.5-.3.9-.5,1.2-.9.6-.5.9-1.2.9-1.7s-.2-1.3-.5-1.9l-12.7-6.7h-.1Z"/>
      <path d="M409.9,413l2.4-2.4,1.4,1.4c-.2-.8-.2-1.6,0-2.4.2-.9.6-1.5,1.3-2.1,1.1-1.1,2.5-1.6,4.1-1.5,1.6,0,3.2.9,4.7,2.4,1.6,1.6,2.5,3.2,2.6,4.8s-.3,3-1.5,4.1c-.5.5-1.1.9-1.7,1.1s-1.4.3-2.4.3l4.8,4.7-2.5,2.5-13.1-12.9h-.1ZM416.9,415.1c1.1,1.1,2,1.6,3,1.7s1.7-.2,2.3-.8.9-1.3.8-2.1-.6-1.8-1.7-2.9-1.9-1.5-2.8-1.6-1.6.2-2.1.8-.9,1.4-.8,2.3c0,.9.5,1.7,1.5,2.7h-.1Z"/>
      <path d="M432.8,401.7l2.8-2.3c.6,1.2,1,2.4.9,3.5-.1,1.2-.6,2.4-1.6,3.4-1.5,1.7-3.2,2.6-5,2.5-1.5-.1-2.9-.8-4.4-2-1.7-1.4-2.6-3-2.8-4.7s.3-3.2,1.4-4.5c1.3-1.5,2.8-2.3,4.5-2.3s3.7.9,5.7,2.7l-5.8,6.8c.9.6,1.6,1,2.4,1s1.5-.3,2-1c.3-.4.5-.9.5-1.4s-.2-1-.5-1.6h0ZM430.2,399.3c-.8-.6-1.5-1-2.3-1s-1.3.3-1.8.9-.8,1.3-.6,2c0,.8.5,1.4,1.3,2l3.4-4h0Z"/>
    </g>
  </g>
</svg>