<?xml version="1.0" encoding="UTF-8"?>
<svg id="Layer_1" xmlns="http://www.w3.org/2000/svg" version="1.1" xmlns:xlink="http://www.w3.org/1999/xlink" viewBox="0 0 512 512">
  <!-- Generator: Adobe Illustrator 29.3.0, SVG Export Plug-In . SVG Version: 2.1.0 Build 146)  -->
  <defs>
    <style>
      .st0 {
        fill: #757575;
      }

      .st1 {
        fill: #585858;
      }

      .st2 {
        fill: #ef9e42;
      }

      .st3 {
        fill: #010101;
      }

      .st4 {
        fill: #41a3f3;
      }

      .st5 {
        fill: #fda626;
      }

      .st6 {
        fill: #fee1ef;
      }

      .st7 {
        fill: #777;
      }

      .st8 {
        fill: #ff9773;
      }

      .st9 {
        fill: #a8b7d4;
      }

      .st10 {
        fill: #64b4f5;
      }

      .st11 {
        fill: #72d7fe;
      }

      .st12 {
        fill: #7fb5fe;
      }

      .st13 {
        fill: #020202;
      }

      .st14 {
        fill: #fff;
      }

      .st15 {
        fill: #fcb52f;
      }

      .st16 {
        fill: #6cbac6;
      }

      .st17 {
        fill: #36d08e;
      }

      .st18 {
        fill: #efbb5e;
      }

      .st19 {
        fill: #606060;
      }

      .st20 {
        fill: #fe5d5d;
      }

      .st21 {
        fill: #ecf2f8;
      }

      .st22 {
        fill: #e5e5e5;
      }

      .st23 {
        fill: #ff8894;
      }

      .st24 {
        fill: #2195f1;
      }

      .st25 {
        fill: #bbb;
      }

      .st26 {
        fill: #bedafe;
      }

      .st27 {
        fill: #bdcae3;
      }

      .st28 {
        fill: #febd4f;
      }

      .st29 {
        fill: #becbe4;
      }

      .st30 {
        fill: #f4ce68;
      }

      .st31 {
        fill: #616161;
      }

      .st32 {
        fill: #4b4a4a;
      }

      .st33 {
        fill: #0f0f0f;
      }

      .st34 {
        fill: #dfdfdf;
      }

      .st35 {
        fill: #191919;
      }

      .st36 {
        fill: #010100;
      }

      .st37 {
        fill: #feb64d;
      }

      .st38 {
        fill: #a6d5dc;
      }

      .st39 {
        fill: #d6d6e2;
      }

      .st40 {
        fill: #94cfff;
      }

      .st41 {
        fill: #ffe885;
      }

      .st42 {
        fill: #fefefe;
      }

      .st43 {
        fill: #ededed;
      }

      .st44 {
        fill: #edf3f9;
      }

      .st45 {
        font-family: Arial-BoldMT, Arial;
        font-size: 24.6px;
        font-weight: 700;
      }

      .st46 {
        fill: #030202;
      }

      .st47 {
        fill: #9fe4a4;
      }
    </style>
    <path id="path" d="M1227.4,254c0,111.6-90.5,202.1-202.1,202.1s-202.1-90.5-202.1-202.1,90.5-202.1,202.1-202.1,202.1,90.5,202.1,202.1Z"/>
  </defs>
  <g>
    <path class="st41" d="M71.1,313.4c25.3,78,98.5,134.3,184.9,134.3v-194.4l-184.9,60.1h0Z"/>
    <path class="st6" d="M256,447.7c86.4,0,159.6-56.4,184.9-134.3l-184.9-60.1v194.4h0Z"/>
    <path class="st23" d="M370.3,96c-32.1-23.3-71.6-37.1-114.3-37.1s-82.2,13.8-114.3,37.1l114.3,157.3,114.3-157.3Z"/>
    <path class="st40" d="M440.9,313.4c6.1-18.9,9.5-39.1,9.5-60.1,0-64.7-31.6-121.9-80.1-157.3l-114.3,157.3,184.9,60.1h0Z"/>
    <path class="st8" d="M61.6,253.3c0,21,3.3,41.2,9.5,60.1l184.9-60.1-114.3-157.3c-48.6,35.3-80.1,92.6-80.1,157.3h0Z"/>
  </g>
  <g>
    <path class="st18" d="M329.4,347c.6.3,1.1.8,1.4,1.4,1.3.8,2.5,2,3.3,3.3.6.1,1.3.8,1.4,1.4h.4c1.1,1.1,2.3,1.9,3.8,2.1l.2.3c.7-.2,1.8-.3,2.5-.2l.2.2c17.1,0,25.2,20.6,12.4,31.9-11.9,10.4-30.1,1.5-30-14.2l-.2-.2c0-.7,0-1.9.2-2.5l-.3-.2c-.2-1.6-1-2.8-2.1-3.8v-.4c-.6-.2-1.3-.8-1.4-1.4-1.3-.8-2.5-2-3.3-3.3-.6-.3-1.1-.8-1.4-1.4-.5-.5-.9-1-1.4-1.4,1.1-1.7,2.7-3.1,4.2-4.5h.3l18.8,21.4c0,.2,0,.4-.2.5-4.6.5-4.2,7.4.5,7.2,2.7-.1,3.8-2.8,3.3-5.2l.2-.3v-.2c.6,0,4.5-.1,4.7,0v.2c.1,0,0-.1,0-.1v-5.5h.2c0-.2,0-.4.1-.4h2.1c.1,0,.2.1.2.2v-.3c3.8-.8,4.2-6,.3-7.1-2.5-.7-4.6,1.5-4.5,4,0,.2-.2.2-.5.2l-21.3-18.7s-.2-.3-.1-.3c0-.1.2-.3.3-.4.6-.7,3.1-3.3,3.8-3.7.1,0,.2-.1.4-.2.4.6,1,1,1.4,1.4h0v.2Z"/>
    <path d="M315,358.5c-.7.7-2.1,2.2-2.9,2.6-2.6,1.2-5.1-1.3-4-4,.1-.3.4-.4.4-.8-2-1-2.2-3.4-.7-5-1.4-1.4-2.8-2.9-3.4-4.9-2.1-7.1,4.4-13.6,11.5-11.4,1.9.6,3.4,1.9,4.8,3.4,1.6-1.4,4-1.3,5,.7,2.6-2,6.2.5,4.8,3.6-.4.8-1.9,2.2-2.6,2.9-1.4,1.4-2.9,2.8-4.3,4.2l21.4,18.8c-.2-3.1,2.7-5.4,5.6-4s2.7,5.9-.4,7c-.1,0-.7.2-.7.2h-2.4v4.7c0,.6-.5,1-1,1h-3.8c.6,2.7-.6,5.7-3.6,5.7-4.9,0-5.2-7.3-.3-7.6l-18.9-21.5c-1.5,1.4-2.8,2.9-4.2,4.3h-.3Z"/>
    <path d="M317.9,361.3v.2c.1,0-9.2,9.3-9.2,9.3,1,1.1,2,2.1,3.1,3l9.3-9.3h.3c.5.5,1,1,1.4,1.5v.2c.1,0-9.2,9.3-9.2,9.3.3.4,2.8,3,3,3l8.2-8.1h.3c.2,1.2,0,1.8,0,2.8l-8.1,8-12.5,3.9h-.5c-1,0-1.8-.8-1.8-1.8h0v-.7l3.9-12.4,9.4-9.4,2.4.4h0Z"/>
    <path d="M342.7,355.6c-1,0-1.6.2-2.7,0,1.1-1.7,2.5-3.2,4.2-4.3,1.2-1.7,2.6-3.1,4.3-4.3v-.3l2.1-2c3.9-3.5,1.2-6-1.9-8.6-2.4-2-3.9-1.5-6,.6l-2,2.2h-.3c-1.2,1.6-2.6,3.1-4.3,4.3v.2c-1.6,1.7-3.3,3.4-5,5.1h-.3l-1.4-1.5,12.8-12.8c4.3-3.7,8-.2,10.9,3.2,2.1,2.4,2.1,5.3,0,7.7l-10.4,10.5h0Z"/>
    <path class="st42" d="M321.2,364.7l-9.5,9.5c-.2,0-3-2.9-3.4-3.3v-.2c.1,0,9.6-9.4,9.6-9.4l3.3,3.3h0Z"/>
    <path class="st42" d="M325.1,370.5l-8.6,8.5-3.4-3.3,9.5-9.6c1.4,1.5,2.1,2.2,2.4,4.4h.1Z"/>
    <path class="st42" d="M339.4,346.5s.1.2,0,.2c-1.4,1.5-3.1,3.2-4.6,4.6-.3.4-.5.5-.7.4l-3.3-3.3,5.3-5.3s.2-.1.3,0c.5.5,2.9,2.7,3.1,3.1v.3h0Z"/>
    <path class="st42" d="M344.2,351.3c-1.4,1.4-2.8,2.9-4.2,4.3-2.2-.3-2.9-1-4.4-2.4,0,0-.1-.2,0-.2,1.4-1.5,3-3,4.4-4.4.3-.4.6-.6.9-.6,0,0,.2-.1.3,0,.4.4,3.1,3,3.1,3.2v.2h0Z"/>
    <path d="M356.5,373.7c.6,0,1,.5,1,1.1-.4,5.5-4.1,10.3-9.1,12.3-.5.2-1.2,0-1.3-.6h0c-.1-.5.1-1,.6-1.2,4.4-1.6,7.6-6,8-10.7,0-.5.5-.9.9-.9h-.1Z"/>
    <path d="M340.8,348l-5.3,5.3c-.5-.5-.9-1-1.4-1.4l5.3-5.3c.6.3,1.1.8,1.4,1.4Z"/>
    <path class="st36" d="M344.1,386.1h0c.5,0,.9.3,1,.8h0c0,.6-.3,1.1-.9,1.1h0c-.5,0-1-.4-1-.9h0c0-.5.4-.9.9-1h0Z"/>
    <polygon class="st18" points="345.1 375.7 340.8 375.7 320.6 352.8 322.3 351.2 345.1 371.2 345.1 375.7"/>
    <path class="st42" d="M312.3,336.5c2.9-.3,5.4,1.1,7.1,3.4l-10.1,10c-1.8-1.5-3.1-3.3-3.3-5.7-.3-3.7,2.6-7.2,6.3-7.7h0Z"/>
    <path class="st18" d="M327.5,340.4c1-.2,1.8,1,1.1,1.8l-17.1,17.1c-.9.7-2-.2-1.7-1.2,5.6-5.9,11.5-11.6,17.3-17.4s.3-.2.4-.3h0Z"/>
    <path class="st18" d="M322.8,339.4c1-.2,1.8.9,1.1,1.7l-13.6,13.5c-.9.3-1.7-.5-1.4-1.4l13.4-13.5c.1-.1.3-.2.4-.3h.1Z"/>
    <path class="st18" d="M347,369.9v-2.3c0-.3.6-1,.8-1.2,1.8-1.2,3.9,1.1,2.6,2.8-.2.2-.8.7-1.1.7h-2.3Z"/>
    <path class="st18" d="M338,377.6h1.9c.7.2.8,3.5-1.1,3.8-2.7.4-3.1-3.4-.8-3.8h0Z"/>
    <polygon class="st42" points="314.6 380.1 304.2 383.2 307.3 372.8 314.6 380.1"/>
    <path class="st42" d="M348.5,347s-.2.2-.2.1c-2.4-2.3-5-4.9-7.3-7.3-.4-.3-.6-.6-.5-.9,2-1.9,4.1-5.3,7.2-4,.8.3,3.8,3.3,4.4,4.1,2.5,3.4-1.4,5.9-3.5,8h-.1Z"/>
    <path class="st18" d="M348.5,347l-4.3,4.3-3.3-3.3-1.4-1.4-3.3-3.3c1.4-1.4,2.8-2.9,4.3-4.3l8.1,8.1h-.1Z"/>
  </g>
  <g>
    <path d="M192.8,333.3c1.2,0,2.2.7,2.9,1.7.2.3.6.8.6,1.4v11.1l-.2.8.2-.8c.3-.8,1.9-3.5,2.4-4.1,4.1-4.6,10.2,0,7.5,5.1-.9,1.7-1.8,3.4-2.8,5.1-2.5,4-4.8,8-7.1,12.1v22c-.2,2-1.7,3.7-3.8,3.6h-38.5c-2.1.1-3.7-1.6-3.9-3.6v-50.8c.2-1.8,1.5-3.5,3.4-3.5h39.3Z"/>
    <path class="st42" d="M183.1,370.9s-1,1.7-1.1,2c-.7,2.4-.5,5.9-1.2,8.5,0,1.2.9,1.6,1.9,1,2.2-1.3,4.4-3.7,6.6-5.1l4.5-7.6v18.1c0,.5-1.1,1.3-1.6,1.2h-37.9c-.9,0-1.6-.7-1.6-1.5v-50.7c.3-.6.9-1.1,1.5-1.1h38.1c.8,0,1.4.7,1.5,1.4v15.4l-9.3,16.1h-.3c0,.1-16.6.1-16.6.1-.7.2-1.3.9-.8,1.7,0,.1.6.6.7.6h15.7,0Z"/>
    <polygon class="st11" points="198.9 347.9 202.5 350 187.9 374.8 184.8 373 184.7 372.7 198.9 347.9"/>
    <path class="st20" d="M203.7,347.9l-3.6-1.9c.4-1.4,1.9-2.6,3.4-1.6s.9,2.3.2,3.5h0Z"/>
    <path class="st39" d="M183.4,378.9c.3-1.1.2-2.4.5-3.4,0-.1,0-.3.2-.3s2.1,1.2,2.4,1.4l-3.1,2.3h0Z"/>
    <path d="M158.4,352.4c.7-.2,4.1-.1,4.8,0,.6,0,1,.3,1.1,1,.1,1.1.1,3.6,0,4.8,0,.7-.4,1-1.1,1.1-1.1.1-3.5.1-4.5,0-.9,0-1.1-.6-1.2-1.4v-4c0-.5.3-1.3.9-1.4h0Z"/>
    <path d="M158.4,364.1c.7-.2,4.1-.1,4.8,0,.6,0,1,.3,1.1,1,.1,1.1.1,3.6,0,4.8,0,.7-.4,1-1.1,1.1-1.1.1-3.5.1-4.5,0-.9,0-1.1-.6-1.2-1.4v-4c0-.5.3-1.3.9-1.4h0Z"/>
    <path d="M158.4,375.9c.7-.2,4.1-.1,4.8,0,.6,0,1,.3,1.1,1,.1,1.1.1,3.6,0,4.8,0,.7-.4,1-1.1,1.1-1.1.1-3.5.1-4.5,0-.9,0-1.1-.6-1.2-1.4v-4c0-.5.3-1.3.9-1.4h0Z"/>
    <path d="M167.4,356.9h15.5c1.2.1,1.4,1.6.4,2.2-5.3.1-10.7.1-16,0-1-.6-.9-1.7.2-2.1h0Z"/>
    <path d="M176,338.3c.9-.1,3.1-.3,2.9,1.2-.2,1.9-3.2.2-3.1,1.7,0,.8,1.2.6,1.9.8,2.8,1.1,2.3,5.4-.8,5.7-.6,0-2.4.1-2.8-.2-.6-.4-.7-1.1-.2-1.6.9-.9,3.2.2,3.4-.9s-1.1-.8-1.8-1c-2.8-1-2.4-5.3.5-5.7h0Z"/>
    <path d="M168.8,340.6c-.1,0-.1,1.1-.1,1.4h1.8c1.1,0,1.1,2.3,0,2.3h-1.8c0,.2,0,1.4.1,1.4h2.1c.2,0,.7.4.8.7.2.8-.1,1.5-.9,1.6-1.6.2-3.6,0-4.2-1.7-.3-1.1-.3-5.3,0-6.3.6-1.5,2.6-1.6,4-1.5.9.1,1.5,1.1.9,1.9l-.6.4h-2.1v-.2Z"/>
    <path d="M161.2,340.6c-.7,0-1.4,0-1.8-.6-.3-.6,0-1.4.7-1.6.5-.1,3.7,0,4.2,0s.9.5.9,1.1c0,1.1-.9,1.3-1.8,1.2-.1,1.9.2,4.1,0,5.9,0,.7-.4,1.3-1.2,1.3s-1.1-.4-1.1-.7v-6.5h.1Z"/>
    <path d="M185.2,340.6v6.5c0,.3-.8.7-1.1.7-.8,0-1.1-.6-1.2-1.3-.2-1.9.1-4,0-5.9-.9,0-1.9,0-1.8-1.2,0-.5.4-.9.9-1.1s3.8-.1,4.2,0c.6.2,1,1,.7,1.6-.4.7-1.1.7-1.8.6h.1Z"/>
    <path d="M167.4,380.4h10.1c1.3.3,1.3,2.1-.1,2.2h-10c-1.2-.4-1.3-1.7,0-2.2h0Z"/>
    <path class="st3" d="M187.1,356.9c1.7-.3,1.7,2.4,0,2.2-1.3-.1-1.3-2,0-2.2Z"/>
    <rect class="st17" x="159.8" y="354.6" width="2.3" height="2.3"/>
    <rect class="st17" x="159.8" y="366.4" width="2.3" height="2.3"/>
    <rect class="st17" x="159.8" y="378.1" width="2.3" height="2.3"/>
  </g>
  <g>
    <path class="st43" d="M378.2,194.1c.3,0-.4.2,0,.5h10.8l.3.5c.2,0,.5,0,.5.2,0,.6,0,5-.2,5.3,0,0-.2.1-.3.2h.5c.9,1.9,2.4,2,4.2,1.9l.3.5c.6,1,1.1,4.3-.3,4.3l-.4.4c-2-.2-4-.3-6-.2-2.7.9,1.6,1.4,2.6,1.1l3.4-.3.4.5s.2-.1.3-.1c.8-.2.6,6.5,0,7.9l-.7.3c-19.6-3.4-21.7,24.8-2.2,24.8l.6.4c1,0,1.2.2.4.9l-2,.6h-28.3l-.7-.5h-.6c-.4-6.1-.4-12.1-.1-18.2,0-1.2,0-2-.6-2.9v-6.3h.7c0,.1.7,2.8.7,2.8,2.2,2.5,5.8,1.1,6-2.4,1-1.2,1.4-2.8,1.2-4.6,6.2-3.8,6.9-13,.3-16.9l-3.7-.7h13,0Z"/>
    <path d="M394.3,216.7l.4-.4c1,.2,3.4,1.6,3.6,2.6,5,3.8,6.4,10.8,3.5,16.4,2.1,2.9,9.6,7.1,5.1,11-3.3,2.9-6.1-1.1-8.4-3.3l-.5.2c-1.5-2.1-1.6-2.1-4-1-.8.4-1.5.4-2.1,0-10.6,1.3-18.5-10.1-13.1-19.5,3-5.2,9.6-7.9,15.4-6h.1Z"/>
    <path d="M368.7,194.1c6.6,3.2,7.3,12.1,1.9,16.8-.3.3-1.3.7-1.3.8-.4.7.5,2.6-.6,3.8-1.1,1.3-.7,1.1-1.2,2.8-.8,2.2-2.4,2.2-4.7,1.9s-1.6-2.9-2.6-4.3c0-.1-.4-.2-.6-.5-.8-1.3,0-3.1-.4-3.7,0,0-1-.6-1.3-.8-9.1-8,.4-21.9,10.9-16.8h0Z"/>
    <path d="M360.2,222.2c.6,0,1,.5,1,1.1-.2,6.4-.3,12.9,0,18.8,0,.5.1.7.3,1.1l.6.2c.5.7,1.1,1.2,2.1,1.3,6.8-.2,13.6-.1,20.5.2,4.3.4,8.3,0,12.2-1,.5,0-1,1.1,0,1.1,1,.2,1,1.2.7,1.5-.5.8-1.9.6-2.9.6-10.2.2-19.5,0-30.6,0-2.7-.2-4.8-2-4.9-4.6-.3-6.1,0-13,0-19.3s.4-1.1,1-1.1h0Z"/>
    <path d="M398.3,216.2c-.5,1-1.5-.2-1.5-1.1v-11.2c-1,0-1.9-.2-2.6-.7-1.1,0-2.3.2-3.3-.3-.5-.2-1.7-1.2-1.7-2.1v-5.6h-11.1c-.6,0-.9-.5-.9-1s.3-1,1.1-1c1.9,0,9.7-.2,11.4.1.6.1,1.4.5,1.9.9,1.2.9,5.6,5.3,6.5,6.5.7.9,1.1,1.7,1.1,2.9,0,4.1.1,8.1,0,11.8,0,.3,0,.8-1,.9h.1Z"/>
    <path class="st34" d="M398.5,243c0,.5,0,1.3-1,1.8s-2,.4-3.4.4c-10.3.2-19.8,0-30.1,0s-2.2-.9-2.6-2h29l2.1-.6-.5-.4c1.3-.2,3.1-1,4.3-1.5.4,0,1.7,1.8,2.2,2.2h0Z"/>
    <path class="st34" d="M394.3,203.1h3c0,2.2,0,11.9.2,12.7.1.3.8.4.8.4v2.8s-2.9-1.9-4-2.3v-6.9c0-2.3-.3-.8-.3-.9-.7-.1-.7-1.4,0-1.5,0,0,.3-.3.3-.6v-3.7h0Z"/>
    <path class="st13" d="M363.9,187.1c2.2-.6,1.7,5.4-.3,3.8-.6-.5-.7-3.5.3-3.8Z"/>
    <path class="st13" d="M348.8,202.2c.7-.2,2.9-.2,3.2.4.9,1.7-2.2,1.8-3.2,1.5-.9-.3-.9-1.6,0-1.9Z"/>
    <path class="st13" d="M353.1,191.6c1.3-.4,3.7,2.4,2.6,3.1-1.2.9-4.2-2.6-2.6-3.1Z"/>
    <path class="st13" d="M354.6,211.4c3.1-.9,0,4.3-1.7,3.1-1-.7,1-2.9,1.7-3.1Z"/>
    <path class="st3" d="M375,193.8c-.9,1-2.8.8-2.5-.3s1.5-2.2,2.6-2c1.3.2.5,1.6-.1,2.3Z"/>
    <path d="M371.8,213.2h11.8c.8,0,.8,2,0,2h-11.8c-.6,0-.9-1.7,0-2h0Z"/>
    <path d="M364.8,237.2h11.8c.8,0,.8,2,0,2h-11.8c-.6,0-.9-1.7,0-2Z"/>
    <path d="M364.8,225.2h9.8c.8,0,.8,2,0,2h-9.8c-.6,0-.9-1.7,0-2Z"/>
    <path d="M364.8,231.2h9.8c.8,0,.8,2,0,2h-9.8c-.6,0-.9-1.7,0-2Z"/>
    <path d="M376.8,201.1h8.8c.8,0,.8,2,0,2h-8.8c-.6,0-.9-1.7,0-2h0Z"/>
    <path d="M375.8,207.1h7.8c.8,0,.8,2,0,2h-7.8c-.6,0-.9-1.7,0-2Z"/>
    <path d="M369.8,219.2h7.8c.8,0,.8,2,0,2h-7.8c-.6,0-.9-1.7,0-2Z"/>
    <path class="st3" d="M394,207.4v1.5c-1.8.2-5.1.6-6.9.2-.9-.2-1.2-1.2-.5-1.8.6-.5,6.3-.3,7.4,0h0Z"/>
    <path class="st10" d="M388.7,218.2c15-1.9,17,20.5,2.9,22s-16.8-20.2-2.9-22Z"/>
    <path class="st24" d="M405.6,244.7h-.6c-1.3-1.8-3.7-4.3-5.7-4-.2-.2-1.3-.9-1.3-1.1,1.1-.7,1.9-1.6,2.6-2.6,1.1,1.6,4.5,3.9,5.4,5.4.5,1,.4,1.7-.5,2.4h.1Z"/>
    <path class="st4" d="M405.6,244.7c-.3.2-.4.5-.9.5-1.5.1-4.3-3.4-5.4-4.5-.1-.7.4-.5.9-.5,2,.3,4.4,2.8,5.4,4.5h0Z"/>
    <path class="st37" d="M365.9,195.3c5.8,2.3,6.5,11.9,1,14.8h-1.8c.1-1-.2-2.4,0-3.4.2-1.2,4.2-3.2,2.7-4.4-1.2-1-2.6,1.7-3.6,2.3-1.2-.4-2.5-3.3-3.8-2.3-1.6,1.2,2.7,3.5,2.7,4.2v3.6c-2.8.4-4.4-.5-5.8-2.8-3.7-6.2,1.5-13.4,8.6-12h0Z"/>
    <path class="st5" d="M366.9,210.1c4.7-4.3,4.2-11.1-1-14.8,5.6,1.1,7.9,7.3,5,12.1-.9,1.6-2.1,2.6-4,2.7h0Z"/>
    <path class="st0" d="M365.2,212.2c.8.1.7,1.8,0,2-.5,0-4,.1-4-.2v-1.9h4Z"/>
    <path class="st32" d="M362.9,217.7c-.2-.5-.5-.9-.5-1.5h3.5c-.4,1.2,0,1.9-1.3,2-.8-.4-1.4-.6-1.8-.5h0Z"/>
    <path class="st31" d="M365.2,212.2c.4,0,2-.1,2,.2v1.9h-2v-2h0Z"/>
    <path class="st19" d="M364.7,218.2h-1.6c-.3,0-.1-.4-.2-.5-.2-1.1,1.5-.2,1.8.5h0Z"/>
    <path class="st25" d="M395.8,201.1h-3.8c-.4,0-.7-.3-.7-.7v-3.8l4.5,4.5h0Z"/>
    <path d="M388.9,220.2c10.8-1.5,14.4,13.9,4.4,17.4-12.6,4.4-17-15.7-4.4-17.4Z"/>
    <path class="st43" d="M390.3,222.2c6,1.8,6,12.2,0,14-9.3,0-9.2-14.1,0-14Z"/>
    <path class="st34" d="M390.3,236.2c5.3-3.3,5.3-10.8,0-14,9.3,0,9.2,14,0,14Z"/>
  </g>
  <g>
    <path d="M275.8,96.9c1.6,0,4.9-.5,3.2,2.1l-4.2,4v.3c7.4,11.8,2.3,27.6-10.3,33.1l.8,5.1c-.1,1.1-1.5,1-1.6,1.1s-.3,3-.3,3.4c.7-.1,1.6.2,1.8,1,.2.9.1,4.8,0,5.8-.2,2-2.1,1-2.7,1.4-.1,0-.2,2-.4,2.4-1.4,6-11.8,6.2-13.4.3-.1-.5-.3-2.6-.4-2.7s-2.3.3-2.7-.8v-6.5c.2-.7,1.2-.9,1.8-.8-.1-.4-.2-3.3-.3-3.4s-1.4.2-1.6-1.1c0-.9,1-4.7.7-5.2-.7-.3-1.4-.6-2.1-1-11.6-6.7-15.2-21.7-7.4-32.8,7.4-10.6,22.3-12.8,32.5-4.8l4.3-4.2c2.5-1.4,2.1,1.9,2.1,3.4h.2Z"/>
    <path class="st28" d="M262.7,140.2h-10.9c.1-1.5.3-2.9.6-4.4-6.1-2.3-10.9-7.6-12.8-13.8-.3-.9-1-3.4-.7-4.1h1.4c.6,7.5,6.7,13.6,14.2,14.1.1.9-.4,2.9.7,3.2,2,.6,1.6-2,1.6-3.2,1.1,0,2.3-.3,3.4-.6s4.9-1.6,3.6-3.2c0-.2.2-.4.6-.6l1-.9h.3c0,0,.3,0,.3,0,1.2.2,1.3-.8,1.2-1.7-.4-.3.4-1.5.9-1.4,1.6.8,2.2-2.1,2.5-3.1.1-.4.3-2.5.4-2.6.4-.5,3.4.6,3.4-1.2s-2.4-1.2-3.4-1.2c-.1-2.3-.9-4.7-2-6.6-.2-.4-1.6-2.1-1.5-2.3,0,0,.8-.9.9-.9,1.3-.4,3.5.6,4.5-.7,6.2,9.6,2.5,22.9-7.4,28.4-.6.4-3,1.3-3.3,1.7-.1.2-.2.4-.2.6,0,.6.8,4.3.7,4.5h0Z"/>
    <path class="st28" d="M252.6,95.5c.5,0,1-.2,1.5-.3,4.8-.3,10,1.2,13.7,4.2-1.6.9-.4,3.3-.9,4.5,0,.2-1.1,1.1-1.3,1.1s-1.3-1-1.7-1.2c-2.2-1.3-4.6-2.2-7.1-2.4,0-1,.4-3.4-1.2-3.3s-.9,2.3-1.1,3.3c-7.6.5-13.6,6.6-14.3,14.1h-1.4s-.1-.2-.2-.3c-.4-.9.4-4.5.7-5.6,1.8-6.2,6.8-12.3,13.1-14.2h.2Z"/>
    <path class="st2" d="M252.6,95.5c-8.1,3.3-13.7,11.2-13.7,20.1-.7,0-1.7,0-1.8.9-.3,2,2.2,1,3.3,1.5h-1.3c.8,7.9,6.2,14.9,13.7,17.7l-.7,4.5h10.7-14.5c0-1,1.1-4.3.6-5.2-.2-.3-2.9-1.4-3.5-1.8-16.6-9.6-11.8-35,7.4-37.8h-.2Z"/>
    <path class="st29" d="M253.2,110c2.5-.9,4.4-.6,6.7.7q0,.2-.1.4c-.1.2-1.7,1.8-1.9,1.9,0,0-1.2-.4-1.5-.5-3.7-.4-6.2,3.2-4.5,6.5,2.3,4.2,9,2.1,8.1-3.1,0-.3-.5-1.1-.5-1.2s1.9-2,2-2.1q.2,0,.2.2c3.6,5-.8,11.8-6.9,11.2-5.6-1.9-6.7-10.8-1.7-14h0Z"/>
    <path class="st44" d="M263.9,128.3c-.8-1-2.1.2-3,.6-1.3.5-2.6.8-3.9,1v-3.6c3-.4,5.9-2.4,7.3-5,.6-1.1.7-2.2,1.2-3.4h3.3c0,.6,0,1.2-.2,1.9-.2,1.1-1.6,3.4-.4,4l-.9,1.4c-1-.2-1.8,0-1.7,1.2.1.2.2.4.1.6-.6.4-1.1,1.2-1.8,1.3h0Z"/>
    <path class="st44" d="M248.2,106.2c2-1.4,3.9-2.3,6.4-2.4v3.6c-4.3.5-7.7,3.9-8.3,8.1-.2.2-1.3,0-1.6,0,0,0-.1-.2-.2-.3-.2-.6.3-2.7.5-3.4.6-2.1,1.6-4.2,3.3-5.7h0Z"/>
    <path class="st44" d="M263,148.5v3.3h-10s-.2-.1-.2-.2c0-.2-.3-2.9-.2-3.1h10.5-.1Z"/>
    <path class="st29" d="M246.2,118c0,.3-.4.4-.9.3.8,4.8,4.4,8.8,8.8,10.5,0-.7.1-1.5,0-2.3l.3-.2c.3,1.1,0,2.4.1,3.6-5.4-.5-10.1-4.3-11.5-9.5-.1-.4-.5-2-.4-2.2s.3-.2.5-.2h2.3c.7,0,.6,0,.8,0h0Z"/>
    <path class="st44" d="M252.2,142.7h9.3l-.3,3.4h-9c0-.1-.3-3.2-.3-3.2l.3-.2h0Z"/>
    <path class="st44" d="M253.3,154.2h7c-.2.8,0,1.5-.4,2.3-.6,1.8-2.8,2.6-4.6,2.6-.9-.2-1.3-1-1.7-1.8s-.8-2.3-.3-3h0Z"/>
    <path class="st44" d="M246.2,118c.7,4.3,3.9,7.6,8.3,8.3,0,.8.1,1.8,0,2.6,0,.2,0,.3-.2.2-.5,0-1.6-.7-2.1-.9-3.8-2.1-6.6-5.8-7.3-10.2h1.3Z"/>
    <path class="st44" d="M256.9,107.3v-3.6c2.6.2,5.1,1.2,7.1,2.9,0,.2-2.3,2.5-2.5,2.5-1.4-.9-2.9-1.7-4.6-1.9h0Z"/>
    <path class="st44" d="M268.7,115.6h-3.6c-.1-1.7-.9-3.3-1.9-4.6,0-.2,2.3-2.5,2.5-2.5,1.7,2,2.8,4.5,2.9,7.1h.1Z"/>
    <path class="st9" d="M253.2,110c-4.5,4-3.6,11.2,1.7,14-7.5-.7-8.9-11.4-1.7-14Z"/>
    <path class="st29" d="M263,148.5h-10.3c.2,1.1.3,2.2.3,3.3h10-15c0,.1,0-3.4,0-3.4h15v.2h0Z"/>
    <path class="st29" d="M248.2,106.2c-.5.8-1.1,1.5-1.6,2.3-1.3,2.2-1.8,4.5-2,7.1h-2c.4-3.3,2-6.6,4.6-8.8.3-.3.7-.4,1-.6h0Z"/>
    <path class="st29" d="M253.3,154.2c.1,1.9.5,3.5,2,4.8-1.5,0-3.4-.8-4.1-2.2-.4-.9-.3-1.7-.5-2.6h2.6Z"/>
    <path class="st44" d="M255.3,114.7c3.1-.4,3.3,4.1.4,4.1-1.5-.5-1.8-3.3-.4-4.1Z"/>
    <path class="st29" d="M273.8,98.9v.3c-1.3,1.2-2.5,2.5-3.7,3.8.6,0,1,0,1.3.3-.6.3-1.5,0-2.1,0v-2.2c0-.3,3.8-3.6,4.2-4.2.2.6,0,1.3.4,1.8h0Z"/>
    <path class="st21" d="M273.8,98.9c.2,0,1.3.5,1.7.4-.8.5-3.6,3.9-4.1,4.1-.6,0-1.4,0-2,0,.6-.5,4.1-4.3,4.4-4.3h0v-.2Z"/>
    <path class="st29" d="M252.2,142.7l.3,3.4h-2.6l-.3-3.4h2.6Z"/>
    <path class="st27" d="M255.3,114.7c-.9,1.4-.7,2.9.4,4.1-2.7,0-2.8-3.8-.4-4.1Z"/>
    <path class="st46" d="M267.3,125.1c1,1-.4,2.6-1.6,1.8-1.3-.8.3-3.1,1.6-1.8Z"/>
  </g>
  <g>
    <path d="M129.3,187c19.1-.3,31.6,20.1,22.6,37-.6,1-1.3,2-1.8,3.1,0,.1,1.6,1.7,1.7,1.7.3,0,.8-1,1.2-.8l10.4,10.4c4.5,5-2,12-7.3,7.6l-10.6-10.5c-.2-.4.9-.9.8-1.2,0-.1-1.6-1.7-1.7-1.7-.2,0-2.5,1.5-3,1.8-14.5,7.8-32.5-.3-36.4-16.2-3.8-15.7,8-30.9,24.1-31.2h0Z"/>
    <path class="st30" d="M128.1,189.1c16.7-1.1,29.1,15.5,23.1,31.3-6.5,17.2-29.8,20.2-40.5,5.1-10.4-14.7-.5-35.2,17.4-36.4h0Z"/>
    <path class="st16" d="M152.7,230.8c3.2,2.9,6.1,6.1,9.2,9.1,2.6,3-1,7-4.3,4.9l-9.4-9.4v-.3l4.4-4.3h.1Z"/>
    <path class="st15" d="M146.1,231.1c.9-.6,1.8-1.5,2.4-2.4.2-.2,1.5,1.4,1.7,1.6,0,.2-2.1,2.2-2.5,2.6-.1,0-1.4-1.2-1.6-1.4,0-.1-.2-.1-.1-.3h.1Z"/>
    <path d="M128.1,191.2c16.9-1.2,28.3,17.1,19.7,31.8-7.9,13.5-27.4,13.9-35.9.8s.3-31.5,16.2-32.6h0Z"/>
    <path class="st22" d="M128.3,193.2c15.8-1.2,26.2,16.5,17.3,29.7-7.8,11.5-24.9,11.2-32.2-.7-7.4-12.2.7-28,14.9-29h0Z"/>
    <path d="M142.7,216.2h2v3.6c0,1-1.9,2.6-2.9,2.5h-24.5c-1,0-2.7-1.5-2.7-2.5v-3.6h2v-13.6c0-1,1.9-2.6,2.9-2.5h20.6c1,0,2.6,1.5,2.6,2.5v13.6h0Z"/>
    <path class="st38" d="M140.7,216.2h-22.1v-13.4c0-.2.6-.8.9-.7h20.1c.3-.1,1.1.4,1.1.7v13.4h0Z"/>
    <path class="st16" d="M142.7,218.2c0,.7.2,1.5-.5,1.9-8.2.2-16.4,0-24.7,0-1.1-.1-.9-1.1-.9-2h26.1Z"/>
    <path d="M138.7,205.2v4c0,.6-.4,1-1,1h0c-.6,0-1-.4-1-1v-1.5l-4.2,4.1c-1,1-2.6,1-3.7,0l-1.9-1.8c-.2-.2-.6-.2-.8,0-1,.9-2.4,2.3-3.2,3.1-.4.4-1,.4-1.4,0h0c-.4-.4-.4-1,0-1.4l3.1-3.1c1-1,2.6-1,3.7,0l1.8,1.7c.2.2.6.2.8,0l4.1-4.1h-1.5c-.6,0-1-.4-1-1h0c0-.6.4-1,1-1h4c.6,0,1,.4,1,1h.2Z"/>
  </g>
  <circle class="st14" cx="256" cy="253.3" r="63.6"/>
  <g>
    <path d="M241.9,260.9s.6-.5.6-.6c.4-.8-.3-2.2-.4-3-1.1-5.2-.3-10.2,2.6-14.7,3.2-5.2,8.9-8.5,14.9-9,.3,0,0,.8,0,1.1-.2,2.7,2.1,4.3,4.7,3.9,2.8-.4,6.2-2,9-2.7,1.8-1.1,2.5-3.2,1.5-5.1-1.2-2.4-3.8-5-5.2-7.5-2.6-2.9-6.8-1-6.7,2.8-10.5-.5-20.3,4.9-25.4,14.1-5.8,10.7-3.7,23.9,4.9,32.4h-4.3c.8-3.1-2.1-5.8-5.1-4.6-1.2.5-6.6,4.5-7.7,5.5-1.7,1.6-1.7,4-.1,5.7,2.4,1.5,4.9,4,7.4,5.3,3.2,1.7,6.4-.9,5.6-4.3h46.8c1.7-.2,2.8-1.4,3.3-3v-1.5c0-1.3-.7-2.1-1.8-2.7-.4-.2-1.3-.7-1.6-.3v-.3c-.8,0-3.8-.2-4.3,0l-.6.3c.1,0,.2,0,.4-.1s.2-.1.3-.2c4.4-4.3,7.3-10.5,7.6-16.7v-.9c-.1,0,0-.1,0-.3v-.4c-.1-.2-.1-.5,0-.8v-.5c-.1-.2-.1-.5,0-.8v-1.4c-.4-3.9-2.8-11.4-5.7-14.2-2-2-5.6-1.1-6.3,1.7-.6,2.3.9,3.3,1.9,5.1,5.1,9,2.5,20.2-6,25.9-7.3,5-17,4.2-23.8-1.5-.4-.1-1,0-1.3.2-.7-.2-.8.7-.6,1.3.3,1.4,4.4,3.5,5.5,4,2.2,1,4.8,1.8,7.2,2,3,.2,6,.2,8.9.2,5.4-.2,10.9-.2,16.3-.1,1.2,0,1.5,1.7.3,2-7.4,0-14.7,0-22.1.1-15.1.6-27.4-12.5-25.4-27.6,1.8-13.3,14.3-22.8,27.4-20.8,1.9,0,2.4-1.6,1.2-2.9-.5-1.5,1.3-2,2-.7,1.5,2.2,3,4.5,4.6,6.7.2.6,0,1-.5,1.3-2.2.6-4.4,1.3-6.6,2.1-2.4,1.1-4.3-.7-1.3-2,.8-.5.8-1.7,0-2.3-.9-.7-3.9-.5-5-.4-11.5.9-20.2,11.5-20,22.8,0,1.4.4,6.5,1.8,7.4.3.2,1.1.4,1.2,0h0Z"/>
    <path class="st35" d="M288.1,252.7v-.8c-.2.1-.2.6,0,.8Z"/>
    <path class="st33" d="M288.1,254v-.8c-.2.1-.2.6,0,.8Z"/>
    <path class="st1" d="M288,254.6q0,.1.1,0v-.3c-.1,0-.1.1-.1.3Z"/>
    <path class="st7" d="M288.1,254.8v-.3h-.1c0,.1,0,.2.1.3Z"/>
    <path class="st26" d="M241.9,260.9c-1.6.4-1.9-1.4-2.2-2.6-3.4-14,8-28.5,22.6-27.3.8,0,1.6.2,1.8,1.1.3,1.8-2.5,1.2-2,3.1.2.9,1,1,1.7.9,2.5-.4,5.5-1.9,8-2.4.6-.4.9-1,.6-1.7-1.7-2.1-3.1-5-4.9-7.1-.9-1.1-2.5-.3-2.2,1,.1.7.7.9.7,1.7,0,1.9-2.6,1-3.8.9-16.1-.7-28.6,14.2-25,30,2.4,10.3,11.6,18.4,22.2,19,8.2.5,16.9-.4,25.1,0,1.6-.4,1.3-2.4-.3-2.5-8.1-.4-16.7.5-24.8,0-3.8-.2-7.9-1.8-11-3.9-.8-.6-3-1.9-1.6-3.1-.8-.5-1.7-1.4-2.1-2.3h-.3c-1.3.6-2.1-1-1.1-1.9v-.3c-.3,0-.5-.4-.6-.5-.4-.7-.7-1.4-1-2.1h.2Z"/>
    <path class="st3" d="M243.4,263.5s-.4.3-.4.4c-.9,1.3.6,2.7,1.8,1.8,1.1-.8.2-2.6-1.4-2.1h0Z"/>
    <path class="st12" d="M276,272.4s1.3-1,1.4-1.2c8-7.1,10.4-18.8,5.9-28.6-.4-.8-2.4-4.5-3-4.8-.9-.4-2,.3-1.9,1.2,0,.5,1.6,2.5,1.9,3.1,5.4,9.8,2.6,22.2-6.6,28.6l-2.4,1.5h4.6v.2Z"/>
    <path class="st12" d="M249.6,277.5l-4.3-2.5c-3.2-.2-6.8.3-9.9,0-.9,0-1.4-.8-1.2-1.7.1-.6.9-.7,1.2-1.2.8-1.1-.3-2.6-1.8-1.8-2.3,1.3-4.6,3.6-6.9,5-.6.6-.5,1.4.1,2,2.3,1.3,4.5,3.6,6.7,4.8.9.5,1.9.3,2-.8.2-1.3-1.8-1.4-1.5-2.8,0-.3.7-1,1-1h14.6Z"/>
    <g>
      <path d="M260.3,241c9.3-.6,15.7,9.3,11.4,17.5-4.4,8.2-16.3,8.5-20.9.4-4.4-7.7.8-17.3,9.5-17.9h0Z"/>
      <path class="st47" d="M260.3,243.6c7.5-.7,12.7,7.5,9,14.1-3.6,6.2-12.7,6.3-16.3,0-3.6-6.2.4-13.6,7.3-14.2h0Z"/>
      <path d="M266.4,249.1c1.2-.2,1.9,1.3,1.1,2.1l-8.2,5.6c-.5,0-1,0-1.3-.3-1-1.3-2.4-2.5-3.4-3.8-.9-1.2.1-2.6,1.3-2.1.9.4,2.3,2.6,3.1,3.2.4,0,5.6-3.9,6.6-4.5l.8-.4h0v.2Z"/>
    </g>
  </g>
  <path d="M143.5,84.3c-.5,0-.9-.2-1.2-.5,0,0-.3-.4-.4-.7-.2-1.1,1.3-2.3,2.4-3.1.5-.4,1-1,1.5-1.4,0,0,.2-.2.4-.5,0,0,.2-.3.1-.3,0,0-.4,0-.5,0-.4.2-.9.4-1.3.6-1.1.5-2.7,1.4-4.6,2.6-1.4.9-7.5,4.7-13.5,11-1.4,1.5-2.6,2.8-3.7,4.1-1,1.2-2.8,4-3.6,4.6s-1.8.4-2.5,0c-1.1-.6-1.5-2-1.1-3s3.8-4.5,5.9-6.5c6.3-6.3,13.4-11.4,21.6-15,0,0,1.4-.4,1.3-.6,0,0-.2,0-.3,0-1.5-.2-3.3,0-3.3,0h-1c-.4,0-.9,0-1.1-.4-.3-.4-.3-1.1,0-1.5.5-.7,1.6-.6,3.2-.6,2.8,0,4.2,0,5.3,0,.8,0,3.9-.3,5.8.2.2,0,.6.2.7.5.2.5-.6,1.3-.9,1.6-2.4,2.4-3.3,2.9-4.5,4-1.4,1.4-2.7,3.2-4.2,4.6-.2.2-.5.3-.6.4h.1Z"/>
  <g>
    <path d="M53.8,251.3l-17.6-.7.5-13.1h3c0,.1-.4,9.6-.4,9.6h3.9c0,.1.3-8.7.3-8.7h3c0,.1-.3,9-.3,9l4.8.2.4-9.8h3c0,.1-.5,13.5-.5,13.5Z"/>
    <path d="M41.7,233.9l.4-3.1,1.7.2c-1.2-1.3-1.7-2.7-1.5-4.2.1-.8.4-1.5.8-2,.4-.6,1-1,1.7-1.3-.6-.6-1-1.3-1.3-2-.2-.7-.3-1.4-.2-2.1.1-.9.4-1.7.9-2.3s1.1-1,1.9-1.2c.6-.2,1.5-.2,2.7,0l8.1,1.1-.4,3.3-7.2-.9c-1.3-.2-2.1-.2-2.5,0-.5.2-.8.7-.9,1.3,0,.5,0,.9.3,1.4.2.5.6.8,1.1,1.1.5.3,1.4.5,2.6.6l6.1.8-.4,3.3-6.9-.9c-1.2-.2-2-.2-2.4-.1s-.7.2-.9.4c-.2.2-.3.6-.4,1,0,.5,0,1,.2,1.4.2.4.6.8,1.1,1,.5.2,1.4.5,2.6.6l6.1.8-.4,3.3-12.7-1.7Z"/>
    <path d="M45,211.3l.7-3.1,1.8.4c-.5-.5-.9-1.2-1.2-2s-.3-1.6,0-2.4c.3-1.4,1.2-2.5,2.5-3.3,1.4-.8,3.1-.9,5.1-.5,2.1.5,3.6,1.3,4.5,2.6.9,1.3,1.2,2.6.9,4.1-.2.7-.4,1.3-.8,1.8-.4.5-1,1-1.8,1.4l6.3,1.4-.7,3.3-17.2-3.9ZM51.8,209.4c1.4.3,2.5.3,3.3-.1.8-.4,1.3-1,1.5-1.8.2-.8,0-1.5-.5-2.1-.5-.6-1.4-1.1-2.8-1.4-1.3-.3-2.3-.2-3.1.1-.8.4-1.2,1-1.4,1.7-.2.8,0,1.5.5,2.2.5.7,1.4,1.1,2.6,1.4Z"/>
    <path d="M53.1,194.7l-1.4,2.8c-1.1-.7-1.8-1.5-2.1-2.5-.3-1-.3-2.3.2-3.8.4-1.4.9-2.5,1.5-3.1s1.1-1,1.7-1.1c.6-.1,1.6,0,3,.4l3.8,1.2c1.1.3,1.9.5,2.4.6.5,0,1.1,0,1.8,0l-1,3.2c-.2,0-.6,0-1,0-.2,0-.3,0-.4,0,.4.7.6,1.4.7,2.1,0,.7,0,1.4-.2,2.1-.4,1.3-1,2.1-1.9,2.7s-1.9.6-2.9.3c-.7-.2-1.3-.6-1.7-1s-.7-1.1-.8-1.8c-.1-.7-.1-1.6,0-2.8.2-1.6.2-2.7.1-3.4h-.3c-.6-.3-1.1-.3-1.5,0-.4.2-.7.8-.9,1.6-.2.6-.2,1.1,0,1.4s.4.8,1,1.1ZM57,191.1c0,.5,0,1.2,0,2.1,0,1,0,1.6,0,1.9.2.5.5.8,1,1,.5.1.9,0,1.3-.2.4-.2.7-.6.9-1.1.2-.6.1-1.2,0-1.8-.2-.5-.5-.8-.8-1.1-.3-.2-.8-.4-1.5-.6l-.6-.2Z"/>
    <path d="M54.8,177l2.5.9-.8,2.2,4.8,1.7c1,.4,1.6.5,1.7.6.2,0,.3,0,.5-.1.2-.1.3-.3.4-.5.1-.3.2-.8.2-1.4l2.6.6c0,.9,0,1.7-.4,2.7-.2.6-.5,1.1-.8,1.4-.4.4-.7.6-1.1.7-.4.1-.8.1-1.4,0-.4,0-1.2-.3-2.3-.7l-5.2-1.9-.5,1.5-2.5-.9.5-1.5-2.4-.9-.7-3.9,4.2,1.5.8-2.2Z"/>
    <path d="M52.6,169.3l6,2.5c-.7-1.5-.8-2.9-.2-4.3.3-.7.7-1.3,1.2-1.8.5-.5,1-.8,1.6-.9.5-.1,1.1-.1,1.6,0,.5.1,1.3.4,2.4.8l6.9,2.9-1.3,3.1-6.2-2.6c-1.2-.5-2-.8-2.4-.8-.4,0-.7,0-1.1.3-.3.2-.6.5-.8,1-.2.5-.3,1-.2,1.5,0,.5.3,1,.8,1.4.4.4,1.1.8,2.1,1.2l5.9,2.5-1.3,3.1-16.2-6.9,1.3-3.1Z"/>
    <path d="M60.5,159.4l-2.8-1.4,1.5-3,2.8,1.4-1.5,3ZM73.5,165.7l-11.5-5.6,1.5-3,11.5,5.6-1.5,3Z"/>
    <path d="M75.8,160.9l-2.3-1.3-2.5-6.8c-.4-1.1-.7-1.9-.8-2.4-.2.4-.4.8-.7,1.4l-2.1,4-2.5-1.3,5.1-9.3,2.1,1.1,2.6,7,.8,2.4c.4-.8.7-1.4.8-1.6l2.5-4.6,2.6,1.4-5.5,10Z"/>
    <path d="M82.8,140.8l2.3-2.5c.8,1,1.2,2.1,1.3,3.2,0,1.1-.3,2.3-1.1,3.5-1.2,1.9-2.7,2.9-4.5,3-1.4,0-2.9-.3-4.4-1.3-1.8-1.1-2.9-2.5-3.3-4.1-.4-1.6-.2-3.1.7-4.5,1-1.6,2.3-2.5,4-2.8s3.6.3,5.7,1.7l-4.5,7.2c.9.5,1.7.7,2.4.6.8-.1,1.3-.5,1.7-1.2.3-.4.4-.9.3-1.4,0-.5-.3-.9-.7-1.4ZM80,138.8c-.8-.5-1.6-.7-2.3-.6-.7.1-1.2.5-1.6,1.1-.4.6-.5,1.3-.3,2,.2.7.7,1.3,1.5,1.8l2.7-4.3Z"/>
    <path d="M226.2,34.9l6.5-.7c1.5-.1,2.6-.2,3.4,0,1.1.2,2,.6,2.8,1.3s1.5,1.6,2,2.7c.5,1.1.8,2.4,1,4.1.1,1.4,0,2.7-.2,3.8-.3,1.3-.8,2.4-1.6,3.3-.6.7-1.3,1.2-2.3,1.7-.8.3-1.8.6-3.1.7l-6.7.7-1.8-17.5ZM230.1,37.5l1.2,11.6,2.6-.3c1-.1,1.7-.2,2.1-.4.6-.2,1-.5,1.4-.9.3-.4.6-1,.8-1.8s.2-1.9,0-3.2c-.1-1.4-.4-2.4-.7-3.1-.3-.7-.7-1.2-1.2-1.6s-1-.6-1.7-.7c-.5,0-1.5,0-2.9.1l-1.6.2Z"/>
    <path d="M252.7,46.6l3.4.5c-.4,1.2-1.1,2.2-2,2.9s-2.1,1-3.5,1.1c-2.2,0-3.9-.6-5-2-.9-1.1-1.3-2.6-1.4-4.4,0-2.1.5-3.8,1.5-5,1.1-1.2,2.5-1.9,4.1-1.9,1.9,0,3.4.5,4.5,1.8,1.1,1.2,1.7,3.1,1.7,5.7l-8.5.2c0,1,.3,1.8.9,2.3.5.5,1.2.8,2,.8.5,0,1-.2,1.3-.5.4-.3.6-.8.8-1.4ZM252.8,43.2c0-1-.3-1.7-.8-2.2s-1.1-.7-1.8-.7c-.7,0-1.3.3-1.8.9-.5.5-.7,1.3-.6,2.2h5Z"/>
    <path d="M257.7,37.8h1.9s0-.9,0-.9c0-1.1.2-1.9.4-2.4.2-.5.7-.9,1.3-1.3s1.4-.5,2.3-.4c1,0,1.9.2,2.8.5l-.5,2.3c-.5-.1-1-.2-1.5-.2-.5,0-.8,0-1.1.3-.2.2-.3.7-.4,1.3v.9s2.5,0,2.5,0v2.7c0,0-2.6,0-2.6,0l-.3,10.1h-3.4c0,0,.3-10.2.3-10.2h-1.9s0-2.7,0-2.7Z"/>
    <path d="M266.9,50.9l.8-12.7,3.4.2-.8,12.7-3.4-.2ZM267.8,36.4l.2-3.1,3.4.2-.2,3.1-3.4-.2Z"/>
    <path d="M285.1,52.6l-3.4-.4.7-6.5c.2-1.4.2-2.3,0-2.7,0-.4-.3-.8-.6-1-.3-.3-.7-.4-1.1-.5-.6,0-1.1,0-1.6.3-.5.3-.9.7-1.1,1.2s-.4,1.5-.6,2.9l-.7,5.7-3.4-.4,1.5-12.7,3.1.4-.2,1.9c1.3-1.3,2.7-1.9,4.4-1.7.7,0,1.4.3,2,.6.6.3,1,.7,1.3,1.2.3.5.4.9.5,1.5,0,.5,0,1.3,0,2.3l-.9,7.9Z"/>
    <path d="M296.2,50.5l3.2,1.2c-.7,1.1-1.5,1.9-2.5,2.4-1,.5-2.2.6-3.6.3-2.2-.4-3.7-1.4-4.4-3-.6-1.3-.8-2.8-.4-4.6.4-2.1,1.2-3.6,2.5-4.6,1.3-1,2.8-1.3,4.5-1,1.9.3,3.2,1.2,4.1,2.7.9,1.4,1,3.4.5,6l-8.3-1.5c-.2,1,0,1.8.4,2.4s1,1,1.8,1.2c.5,0,1,0,1.4-.2.4-.2.8-.6,1.1-1.2ZM297,47.1c.2-1,0-1.7-.3-2.3s-.9-.9-1.6-1.1c-.7-.1-1.4,0-1.9.5-.6.4-.9,1.1-1.1,2l5,.9Z"/>
    <path d="M435,158.8l15.7-8.1,1.6,3.2-15.7,8.1-1.6-3.2Z"/>
    <path d="M442.9,175.4l-1.3-2.9,1.7-.8c-.9-.2-1.6-.5-2.2-1s-1.1-1.1-1.4-1.7c-.6-1.3-.6-2.7,0-4.2.7-1.4,1.9-2.6,3.9-3.5,2-.9,3.7-1.1,5.1-.6,1.4.5,2.5,1.4,3.1,2.8.6,1.3.5,2.7-.1,4.1l5.8-2.6,1.4,3.1-16.1,7.2ZM445.3,164.5c-1.2.6-2.1,1.1-2.5,1.7-.6.9-.7,1.7-.3,2.6.3.7.9,1.2,1.7,1.4s1.8,0,3-.5c1.3-.6,2.2-1.3,2.6-2,.4-.7.4-1.5,0-2.2-.3-.7-.9-1.2-1.7-1.4-.8-.2-1.8,0-2.9.4Z"/>
    <path d="M450.4,183.8l.6,3.4c-1.3,0-2.4-.3-3.4-1-.9-.7-1.6-1.6-2.1-3-.8-2.1-.7-3.9.3-5.4.8-1.2,2-2.1,3.7-2.7,2-.7,3.7-.8,5.2-.2,1.5.6,2.6,1.7,3.1,3.3.7,1.8.6,3.4-.2,4.9-.8,1.5-2.4,2.6-4.9,3.5l-2.9-7.9c-.9.4-1.6.9-1.9,1.6-.3.7-.4,1.4-.1,2.1.2.5.5.9.9,1.1.4.2.9.3,1.6.3ZM453.7,182.8c.9-.4,1.5-.9,1.8-1.5.3-.6.3-1.3.1-1.9-.3-.7-.7-1.2-1.4-1.4-.7-.3-1.4-.2-2.3,0l1.7,4.7Z"/>
    <path d="M457.8,190.8l-.3-3.1c1.3,0,2.3.3,3.1.9.8.6,1.4,1.8,1.9,3.3.4,1.4.6,2.6.4,3.4-.1.8-.4,1.4-.9,1.9-.4.4-1.4.9-2.8,1.3l-3.8,1.1c-1.1.3-1.9.6-2.3.9s-1,.6-1.5,1.1l-.9-3.2c.2-.1.5-.3.9-.6.2-.1.3-.2.3-.2-.7-.4-1.3-.9-1.7-1.4-.5-.6-.8-1.2-1-1.9-.4-1.3-.3-2.4.2-3.3s1.2-1.5,2.3-1.9c.7-.2,1.4-.2,2,0s1.2.5,1.7,1c.5.5,1,1.3,1.5,2.4.7,1.4,1.3,2.4,1.7,2.9h.3c.6-.3,1-.6,1.2-.9.2-.4.1-1-.1-1.9-.2-.6-.4-1-.7-1.2-.3-.3-.8-.4-1.4-.4ZM456.4,195.9c-.3-.4-.6-1-1.1-1.8-.5-.8-.8-1.4-1.1-1.6-.4-.3-.9-.4-1.3-.3-.5.1-.8.4-1,.9-.2.4-.3.9-.1,1.4.2.6.5,1.1,1.1,1.5.4.3.8.5,1.3.5.3,0,.8-.1,1.6-.3l.6-.2Z"/>
    <path d="M466,206.6l-2.6.6-.5-2.2-5,1.2c-1,.2-1.6.4-1.8.5s-.3.2-.3.4c0,.2,0,.4,0,.6,0,.3.3.7.6,1.2l-2.5.9c-.5-.7-.9-1.5-1.1-2.5-.1-.6-.2-1.1,0-1.7,0-.5.3-.9.5-1.2.3-.3.7-.6,1.2-.8.4-.2,1.1-.4,2.3-.7l5.4-1.3-.4-1.5,2.6-.6.4,1.5,2.5-.6,2.7,2.8-4.4,1,.5,2.2Z"/>
    <path d="M459.3,218.1v3.4c-1.2-.2-2.3-.7-3.1-1.5-.8-.8-1.3-1.9-1.6-3.3-.4-2.2,0-3.9,1.3-5.2,1-1,2.4-1.7,4.1-2,2.1-.4,3.8-.1,5.2.7s2.2,2.1,2.5,3.8c.3,1.9,0,3.5-1.1,4.8-1,1.3-2.8,2.2-5.4,2.6l-1.5-8.3c-1,.2-1.7.6-2.2,1.2-.5.6-.6,1.3-.5,2.1,0,.5.3.9.7,1.2.3.3.9.5,1.5.6ZM462.7,217.7c1-.2,1.6-.6,2.1-1.1.4-.6.6-1.2.4-1.9-.1-.7-.5-1.3-1.1-1.7s-1.4-.5-2.3-.3l.9,5Z"/>
    <g>
      <path d="M103,409l9.9-10.3-3.7-3.5,2-2.1,9.8,9.5-2,2.1-3.7-3.5-9.9,10.3-2.5-2.4Z"/>
      <path d="M118,417.3l2.1,2.6c-1.1.6-2.2.9-3.3.8s-2.2-.6-3.2-1.5c-1.6-1.4-2.4-3-2.3-4.7.1-1.4.7-2.7,1.9-4.1,1.3-1.6,2.8-2.4,4.4-2.6,1.6-.2,3,.3,4.2,1.3,1.4,1.2,2.1,2.6,2.1,4.2s-.8,3.4-2.5,5.3l-6.3-5.4c-.6.8-.9,1.5-.9,2.2,0,.7.3,1.4.9,1.9.4.3.8.5,1.3.5.4,0,.9-.2,1.5-.5ZM120.3,414.9c.6-.7.9-1.4.9-2.1,0-.7-.3-1.2-.8-1.7-.5-.5-1.2-.7-1.9-.6-.7,0-1.3.5-1.9,1.2l3.7,3.2Z"/>
      <path d="M121.9,421.1l2.9,1.6c-.3.6-.3,1.2-.2,1.7s.5,1,1.1,1.5c.7.5,1.3.8,1.8.8.4,0,.7-.1.9-.4.2-.2.2-.4.2-.6,0-.2-.2-.6-.6-1-1.8-2.1-2.8-3.5-3.1-4.3-.4-1.1-.2-2.2.5-3.1.6-.9,1.5-1.3,2.7-1.4,1.1,0,2.4.4,3.8,1.5,1.4,1,2.2,2,2.5,2.9.3.9.3,1.9-.1,3l-2.8-1.4c.2-.5.2-.9,0-1.3-.1-.4-.5-.9-1-1.3-.7-.5-1.3-.8-1.7-.8-.3,0-.5,0-.7.3-.1.2-.2.4,0,.7.1.4.7,1.2,1.9,2.6,1.2,1.4,1.8,2.5,2.1,3.4.2.9,0,1.7-.6,2.6-.7.9-1.7,1.4-2.9,1.5-1.3,0-2.6-.4-4.1-1.6-1.4-1-2.2-2.1-2.6-3.2-.4-1.1-.3-2.3.1-3.4Z"/>
      <path d="M143.6,425.7l-1.5,2.2-1.9-1.3-2.8,4.2c-.6.8-.9,1.3-.9,1.5s0,.3,0,.5c0,.2.2.3.4.4.3.2.7.3,1.3.5l-1.2,2.3c-.8-.2-1.6-.5-2.4-1-.5-.3-.9-.7-1.2-1.1-.3-.4-.4-.8-.4-1.2,0-.4.1-.8.3-1.3.2-.4.6-1,1.2-2l3-4.5-1.3-.8,1.5-2.2,1.3.8,1.4-2,3.8.3-2.5,3.6,1.9,1.3Z"/>
      <path d="M334.1,457.2l-6.6-15.9,5.1-2.1c1.9-.8,3.3-1.3,3.9-1.3,1-.1,2,0,2.9.6s1.7,1.4,2.2,2.7c.4,1,.6,1.9.5,2.7,0,.8-.3,1.5-.7,2.1-.4.6-.8,1.1-1.3,1.4-.7.5-1.8,1-3.2,1.6l-2.1.9,2.5,6-3.2,1.3ZM331.8,442.7l1.9,4.5,1.8-.7c1.3-.5,2.1-1,2.4-1.3.4-.3.6-.7.7-1.2,0-.5,0-.9-.2-1.4-.2-.6-.6-1-1.1-1.2s-1-.3-1.6-.2c-.4,0-1.2.4-2.4.8l-1.5.6Z"/>
      <path d="M352.2,449.2l-3,1.4-5.5-11.2,2.7-1.3.8,1.6c.1-1,.3-1.7.5-2.1.3-.4.6-.8,1.1-1,.7-.3,1.4-.5,2.2-.4l.3,3c-.7,0-1.2,0-1.6.2-.4.2-.7.5-.9.9-.2.4-.2.9,0,1.6.1.7.7,2,1.6,3.9l1.7,3.5Z"/>
      <path d="M354.5,441c-.5-1-.8-2-.9-3.2,0-1.2.2-2.2.8-3.2.6-1,1.4-1.7,2.5-2.3,1.6-.9,3.3-1.1,4.9-.7,1.6.5,2.9,1.5,3.8,3.2.9,1.6,1.2,3.3.7,5-.5,1.7-1.5,3-3.1,3.9-1,.6-2.1.9-3.2.9s-2.2-.2-3.2-.8c-1-.6-1.8-1.5-2.5-2.8ZM357.5,439.5c.6,1.1,1.3,1.8,2.2,2,.8.3,1.6.2,2.4-.2.7-.4,1.2-1.1,1.4-1.9.2-.9,0-1.8-.6-2.9-.6-1.1-1.3-1.7-2.1-2s-1.6-.2-2.4.2c-.7.4-1.2,1.1-1.4,1.9s0,1.8.6,2.9Z"/>
      <path d="M369.6,425l1.4,2.2-1.9,1.2,2.7,4.2c.5.9.9,1.3,1,1.5.1.1.3.2.5.2.2,0,.4,0,.6-.2.3-.2.6-.5.9-1l1.6,2c-.5.7-1.1,1.3-1.9,1.8-.5.3-1,.5-1.5.6s-.9,0-1.3,0c-.4-.1-.7-.4-1.1-.8-.3-.3-.7-.9-1.3-1.9l-2.9-4.6-1.3.8-1.4-2.2,1.3-.8-1.3-2.1,1.8-3.4,2.4,3.7,1.9-1.2Z"/>
      <path d="M374.3,429.1c-.6-.9-1-1.9-1.2-3.1-.2-1.1,0-2.2.5-3.2s1.2-1.9,2.2-2.6c1.5-1.1,3.1-1.5,4.8-1.2,1.7.3,3.1,1.2,4.2,2.7,1.1,1.5,1.5,3.2,1.2,4.9-.3,1.7-1.1,3.1-2.6,4.2-.9.7-2,1.1-3.1,1.3-1.1.2-2.2,0-3.2-.5-1-.5-1.9-1.3-2.8-2.5ZM377.2,427.3c.7,1,1.5,1.6,2.4,1.8s1.6,0,2.3-.5c.7-.5,1.1-1.2,1.2-2.1,0-.9-.2-1.8-1-2.8-.7-1-1.5-1.6-2.3-1.8s-1.6,0-2.3.5c-.7.5-1.1,1.2-1.2,2.1,0,.9.2,1.8.9,2.8Z"/>
      <path d="M387.6,411.6l1.6,2-1.8,1.4,3.1,3.9c.6.8,1,1.2,1.2,1.3.1.1.3.2.5.1s.4,0,.5-.2c.2-.2.5-.5.8-1.1l1.8,1.8c-.4.7-1,1.4-1.7,2-.5.4-.9.6-1.4.8-.5.1-.9.2-1.3,0s-.8-.3-1.2-.7c-.3-.3-.8-.8-1.5-1.7l-3.4-4.2-1.2.9-1.6-2,1.2-.9-1.5-1.9,1.4-3.6,2.7,3.4,1.8-1.4Z"/>
      <path d="M388.1,411.2l2.6-2.3,8.1,4.6-3.7-8.5,2.5-2.3,4.7,11.9.9,2.1c.3.7.4,1.3.5,1.8,0,.5,0,.9,0,1.3,0,.4-.3.8-.6,1.2-.3.4-.7.9-1.1,1.3-.5.4-1,.8-1.5,1.1l-1.9-1.7c.5-.3.8-.5,1.1-.8.6-.5.8-1.1.8-1.6,0-.6-.2-1.2-.5-1.8l-11.8-6.2Z"/>
      <path d="M399.1,401.4l2.2-2.2,1.3,1.3c-.2-.7-.2-1.5,0-2.2.2-.8.6-1.4,1.2-2,1-1,2.3-1.5,3.8-1.4,1.5,0,3,.8,4.4,2.2,1.5,1.5,2.3,3,2.4,4.5s-.3,2.8-1.4,3.8c-.5.5-1,.8-1.6,1-.6.2-1.3.3-2.2.3l4.5,4.4-2.3,2.3-12.2-12ZM405.6,403.3c1,1,1.9,1.5,2.8,1.6s1.6-.2,2.1-.7c.5-.5.8-1.2.7-2s-.6-1.7-1.6-2.7c-.9-.9-1.8-1.4-2.6-1.5s-1.5.2-2,.7c-.6.6-.8,1.3-.7,2.1,0,.8.5,1.6,1.4,2.5Z"/>
      <path d="M420.4,390.9l2.6-2.1c.6,1.1.9,2.2.8,3.3-.1,1.1-.6,2.2-1.5,3.2-1.4,1.6-3,2.4-4.7,2.3-1.4-.1-2.7-.7-4.1-1.9-1.6-1.3-2.4-2.8-2.6-4.4-.2-1.6.3-3,1.3-4.2,1.2-1.4,2.6-2.1,4.2-2.1,1.6,0,3.4.8,5.3,2.5l-5.4,6.3c.8.6,1.5.9,2.2.9.7,0,1.4-.3,1.9-.9.3-.4.5-.8.5-1.3,0-.4-.2-.9-.5-1.5ZM418,388.6c-.7-.6-1.4-.9-2.1-.9s-1.2.3-1.7.8c-.5.5-.7,1.2-.6,1.9,0,.7.5,1.3,1.2,1.9l3.2-3.7Z"/>
    </g>
  </g>
  <text>
    <textPath startOffset="10600%" xlink:href="#path"><tspan class="st45"><tspan x="0" y="0" xml:space="preserve">Empathize                         Define                          Ideate                         Prototype                           Test</tspan></tspan>
    </textPath></text>
</svg>