<?xml version="1.0" encoding="UTF-8"?>
<svg id="Layer_1" xmlns="http://www.w3.org/2000/svg" version="1.1" viewBox="0 0 512 512">
  <!-- Generator: Adobe Illustrator 29.3.0, SVG Export Plug-In . SVG Version: 2.1.0 Build 146)  -->
  <defs>
    <style>
      .st0 {
        fill: #757575;
      }

      .st1 {
        fill: #585858;
      }

      .st2 {
        fill: #ef9e42;
      }

      .st3 {
        fill: #010101;
      }

      .st4 {
        fill: #41a3f3;
      }

      .st5 {
        fill: #fda626;
      }

      .st6 {
        fill: #fee1ef;
      }

      .st7 {
        fill: #777;
      }

      .st8 {
        fill: #ff9773;
      }

      .st9 {
        fill: #a8b7d4;
      }

      .st10 {
        fill: #64b4f5;
      }

      .st11 {
        fill: #72d7fe;
      }

      .st12 {
        fill: #7fb5fe;
      }

      .st13 {
        fill: #020202;
      }

      .st14 {
        fill: #fff;
      }

      .st15 {
        fill: #fcb52f;
      }

      .st16 {
        fill: #6cbac6;
      }

      .st17 {
        fill: #36d08e;
      }

      .st18 {
        fill: #efbb5e;
      }

      .st19 {
        fill: #606060;
      }

      .st20 {
        fill: #fe5d5d;
      }

      .st21 {
        fill: #ecf2f8;
      }

      .st22 {
        fill: #e5e5e5;
      }

      .st23 {
        fill: #ff8894;
      }

      .st24 {
        fill: #2195f1;
      }

      .st25 {
        fill: #bbb;
      }

      .st26 {
        fill: #bedafe;
      }

      .st27 {
        fill: #bdcae3;
      }

      .st28 {
        fill: #febd4f;
      }

      .st29 {
        fill: #becbe4;
      }

      .st30 {
        fill: #f4ce68;
      }

      .st31 {
        fill: #616161;
      }

      .st32 {
        fill: #4b4a4a;
      }

      .st33 {
        fill: #0f0f0f;
      }

      .st34 {
        fill: #dfdfdf;
      }

      .st35 {
        fill: #488cff;
      }

      .st36 {
        fill: #191919;
      }

      .st37 {
        fill: #010100;
      }

      .st38 {
        fill: #feb64d;
      }

      .st39 {
        fill: #a6d5dc;
      }

      .st40 {
        fill: #d6d6e2;
      }

      .st41 {
        fill: #94cfff;
      }

      .st42 {
        fill: #ffe885;
      }

      .st43 {
        fill: #fefefe;
      }

      .st44 {
        fill: #ededed;
      }

      .st45 {
        fill: #edf3f9;
      }

      .st46 {
        fill: #030202;
      }

      .st47 {
        fill: #9fe4a4;
      }
    </style>
  </defs>
  <g>
    <path class="st35" d="M18.5,209.68l1.22-5.73c.27-1.29.58-2.26.92-2.89.46-.85,1.1-1.54,1.93-2.04s1.76-.82,2.83-.95c1.07-.13,2.32-.04,3.78.27,1.28.27,2.34.66,3.21,1.18,1.05.63,1.85,1.37,2.39,2.25.41.65.67,1.48.77,2.46.07.73-.01,1.69-.26,2.84l-1.25,5.91-15.54-3.3h.01ZM21.79,207.1l10.28,2.18.5-2.34c.19-.88.27-1.51.25-1.93-.02-.53-.14-1.01-.38-1.41s-.67-.78-1.33-1.14-1.57-.66-2.78-.92c-1.2-.26-2.14-.34-2.83-.27-.69.07-1.25.26-1.69.57s-.79.73-1.04,1.3c-.19.41-.43,1.27-.7,2.54l-.3,1.41h.01Z"/>
    <path class="st35" d="M35.71,190.17l1.3-2.78c.97.67,1.62,1.49,1.95,2.46s.33,2.06,0,3.28c-.53,1.93-1.56,3.18-3.08,3.75-1.21.45-2.59.46-4.12.04-1.83-.51-3.14-1.38-3.92-2.64s-.96-2.6-.54-4.07c.46-1.65,1.36-2.79,2.72-3.46,1.35-.65,3.15-.64,5.38.02l-2.04,7.35c.88.22,1.62.18,2.22-.14.6-.32,1.01-.82,1.2-1.49.13-.46.11-.88-.06-1.27-.17-.38-.5-.73-1.02-1.04h-.01ZM32.79,189.18c-.85-.21-1.56-.18-2.12.12s-.92.75-1.09,1.34c-.18.64-.09,1.23.26,1.78s.92.92,1.73,1.15l1.22-4.38h0Z"/>
    <path class="st35" d="M29.47,183.59l.52-1.61-.83-.27c-.92-.3-1.57-.62-1.96-.96-.39-.34-.64-.83-.76-1.44s-.04-1.33.22-2.13c.27-.83.65-1.59,1.16-2.3l1.89,1.04c-.26.43-.46.85-.59,1.28-.13.41-.13.75,0,.99.14.25.49.46,1.04.64l.77.25.7-2.17,2.27.73-.7,2.17,8.66,2.82-.93,2.9-8.66-2.82-.52,1.61-2.27-.73h-.01Z"/>
    <path class="st35" d="M30.82,174.58l-2.65-.95,1.03-2.86,2.65.95s-1.03,2.86-1.03,2.86ZM43.12,178.97l-10.83-3.87,1.03-2.86,10.83,3.87-1.03,2.86Z"/>
    <path class="st35" d="M49.07,163.63l-1.15,2.82-5.44-2.21c-1.15-.47-1.92-.71-2.31-.72-.39-.01-.73.07-1.03.27-.3.19-.52.49-.67.86-.2.49-.25.98-.13,1.48s.36.91.73,1.23c.38.32,1.17.72,2.36,1.21l4.83,1.96-1.15,2.82-10.65-4.33,1.07-2.62,1.56.64c-.83-1.42-.95-2.84-.38-4.25.25-.63.59-1.15,1.03-1.57s.88-.7,1.34-.82c.45-.12.92-.14,1.41-.07s1.14.28,1.96.62l6.63,2.7h0Z"/>
    <path class="st35" d="M49.79,153.4l1.76-2.52c.84.83,1.34,1.75,1.5,2.76s-.02,2.08-.57,3.23c-.85,1.81-2.08,2.86-3.67,3.17-1.27.24-2.63.01-4.07-.67-1.73-.82-2.86-1.91-3.41-3.27s-.5-2.73.15-4.11c.73-1.55,1.82-2.52,3.27-2.94s3.21-.09,5.3.95l-3.27,6.89c.83.37,1.56.45,2.22.24.65-.21,1.14-.63,1.43-1.27.2-.43.26-.85.17-1.25s-.37-.8-.82-1.21h-.01ZM47.08,151.94c-.8-.36-1.5-.44-2.11-.25s-1.03.57-1.3,1.14c-.28.6-.3,1.2-.05,1.8.25.6.76,1.08,1.5,1.42l1.95-4.11Z"/>
    <path class="st35" d="M204.23,32.91l-3.3-15.53,6.6-1.4c1.66-.36,2.9-.47,3.7-.36s1.51.49,2.12,1.1,1.01,1.38,1.2,2.31c.25,1.16.11,2.2-.41,3.1s-1.44,1.6-2.77,2.08c.76.25,1.41.57,1.95.95.54.38,1.31,1.09,2.32,2.14l2.54,2.63-3.75.79-2.98-2.9c-1.07-1.04-1.78-1.68-2.14-1.93s-.72-.4-1.08-.45-.9,0-1.62.17l-.64.13,1.37,6.49-3.14.66h.02ZM205.46,23.28l2.32-.5c1.5-.32,2.43-.58,2.78-.79.34-.2.59-.49.73-.84.14-.36.17-.77.07-1.23-.11-.52-.34-.91-.69-1.17-.34-.26-.78-.38-1.31-.36-.26.02-1.03.17-2.3.44l-2.45.52.84,3.94h0Z"/>
    <path class="st35" d="M225.71,25.18l3.08.06c-.22,1.16-.71,2.08-1.46,2.78-.75.7-1.74,1.14-2.99,1.33-1.98.3-3.54-.13-4.69-1.29-.9-.92-1.47-2.18-1.7-3.75-.28-1.88,0-3.43.82-4.65.83-1.22,1.99-1.93,3.5-2.15,1.69-.25,3.11.11,4.26,1.08,1.15.97,1.87,2.62,2.17,4.92l-7.54,1.12c.15.89.5,1.55,1.04,1.98.53.43,1.15.59,1.85.49.47-.07.85-.26,1.14-.57s.46-.76.54-1.35h-.01ZM225.43,22.12c-.15-.86-.47-1.49-.97-1.88-.5-.39-1.05-.54-1.67-.45-.66.09-1.16.41-1.53.96-.36.54-.47,1.22-.34,2.05l4.5-.67h.01Z"/>
    <path class="st35" d="M230.3,24.91l2.99-.76c.19.58.49.99.91,1.27s.99.37,1.7.3c.78-.07,1.36-.27,1.73-.6.25-.22.36-.51.32-.85-.02-.22-.11-.41-.27-.56-.17-.13-.52-.22-1.05-.31-2.5-.31-4.09-.65-4.79-1.04-.97-.53-1.5-1.35-1.6-2.45-.09-.99.21-1.86.93-2.62.72-.75,1.91-1.21,3.55-1.36,1.56-.15,2.76,0,3.56.44s1.41,1.15,1.79,2.12l-2.8.8c-.17-.44-.43-.76-.79-.96s-.86-.27-1.49-.21c-.79.07-1.36.24-1.68.5-.21.18-.31.39-.28.65.02.21.14.39.36.52.3.18,1.27.37,2.91.58s2.82.56,3.5,1.03,1.07,1.2,1.16,2.17c.09,1.05-.25,1.99-1.07,2.83s-2.07,1.34-3.79,1.5c-1.56.14-2.83-.05-3.8-.6-.97-.54-1.65-1.35-2.02-2.4l.02.02Z"/>
    <path class="st35" d="M250.27,23.08l3.05.38c-.34,1.12-.92,2-1.74,2.62s-1.86.95-3.12,1.01c-2,.08-3.5-.51-4.52-1.78-.8-1.02-1.23-2.32-1.3-3.92-.08-1.91.36-3.42,1.3-4.53.95-1.12,2.19-1.72,3.7-1.78,1.72-.07,3.08.44,4.12,1.53,1.03,1.09,1.57,2.79,1.63,5.14l-7.62.32c.06.9.33,1.6.83,2.07.49.49,1.09.71,1.79.67.47-.02.88-.17,1.18-.44.32-.27.54-.7.69-1.29h.01ZM250.31,20c-.06-.88-.31-1.54-.77-1.98-.45-.44-.98-.65-1.61-.62-.66.02-1.21.3-1.61.79-.41.5-.6,1.17-.56,2l4.54-.19h0Z"/>
    <path class="st35" d="M258.29,18.6l-2.76-.54c.33-1.11.88-1.92,1.65-2.44s1.89-.77,3.4-.75c1.36.02,2.37.2,3.03.53s1.12.75,1.38,1.24c.26.5.38,1.41.37,2.73l-.09,3.55c-.01,1.01.02,1.75.11,2.24.09.49.26.99.52,1.55l-3.01-.05c-.07-.2-.17-.51-.27-.9-.05-.18-.08-.3-.11-.36-.53.5-1.09.86-1.68,1.11s-1.23.36-1.91.34c-1.18-.02-2.11-.36-2.78-1.01-.67-.65-.99-1.47-.98-2.45,0-.65.18-1.23.5-1.73s.76-.89,1.33-1.15,1.37-.49,2.44-.67c1.43-.25,2.41-.47,2.97-.7v-.31c.01-.58-.12-1.01-.4-1.25s-.83-.39-1.63-.4c-.54,0-.97.09-1.28.3-.31.21-.56.58-.76,1.11h-.02ZM262.33,21.14c-.39.12-1.02.27-1.86.44-.85.17-1.41.33-1.67.51-.4.27-.6.63-.62,1.07,0,.43.14.79.46,1.11.31.32.71.47,1.21.49.54,0,1.08-.17,1.57-.52.37-.27.62-.6.75-.99.08-.26.13-.76.14-1.48v-.6h.01Z"/>
    <path class="st35" d="M270.99,26.99l-3.04-.17.64-11.48,2.83.15-.09,1.63c.52-.75.99-1.23,1.38-1.46.4-.22.84-.32,1.34-.3.69.04,1.35.27,1.96.69l-1.09,2.59c-.5-.36-.96-.56-1.4-.58-.43-.02-.79.07-1.1.3-.31.21-.57.63-.77,1.23-.2.6-.36,1.88-.47,3.83l-.2,3.55h.01Z"/>
    <path class="st35" d="M287.3,20.27l-3.04.24c-.04-.6-.22-1.08-.54-1.42-.33-.34-.77-.53-1.34-.59-.76-.07-1.38.12-1.88.6s-.82,1.33-.93,2.54c-.14,1.36,0,2.34.39,2.95.4.6.98.95,1.75,1.03.58.06,1.07-.06,1.46-.34s.71-.83.95-1.61l2.92.8c-.45,1.34-1.15,2.31-2.09,2.91s-2.15.84-3.63.69c-1.67-.17-2.96-.83-3.85-1.99s-1.24-2.66-1.05-4.53c.19-1.89.84-3.31,1.94-4.26,1.1-.95,2.51-1.34,4.21-1.17,1.4.14,2.47.56,3.23,1.23.76.69,1.27,1.66,1.49,2.92h.02Z"/>
    <path class="st35" d="M294.07,13.4l-.91,5.76c1.15-.98,2.4-1.36,3.75-1.15.69.11,1.29.33,1.81.69.52.34.89.73,1.1,1.18s.34.91.37,1.42c.02.5-.04,1.27-.2,2.28l-1.05,6.66-3.01-.47.95-6c.19-1.2.25-1.95.19-2.3s-.22-.63-.49-.86c-.26-.24-.6-.39-1.04-.45-.5-.08-.96-.02-1.4.15s-.78.5-1.03.96c-.26.46-.46,1.17-.62,2.12l-.9,5.69-3.01-.47,2.47-15.68,3.01.47h0Z"/>
    <path class="st35" d="M462.85,154.75l-1.63-3.08,2.53-2.91-2.97-5.61-3.8.53-1.6-3.01,16.92-1.98,1.59,2.99-11.05,13.05h.01ZM465.63,146.6l4.18-4.7-6.21.86,2.02,3.82h.01Z"/>
    <path class="st35" d="M467.7,165.62l-1.25-2.77,5.35-2.41c1.14-.51,1.83-.9,2.12-1.17.28-.27.45-.58.51-.92.06-.36,0-.71-.15-1.09-.21-.49-.54-.85-.98-1.11s-.9-.37-1.4-.32c-.5.06-1.34.34-2.51.88l-4.75,2.14-1.25-2.77,10.49-4.72,1.16,2.58-1.54.7c1.6.38,2.71,1.27,3.34,2.65.27.62.41,1.22.43,1.82,0,.6-.11,1.11-.33,1.53-.22.41-.53.77-.92,1.07s-.98.63-1.8.99l-6.52,2.94h.02Z"/>
    <path class="st35" d="M477.06,167.53l-.52-2.76c1.15-.11,2.11.09,2.88.62s1.42,1.47,1.96,2.86c.49,1.27.7,2.27.64,3.01s-.27,1.31-.64,1.75c-.37.43-1.16.89-2.4,1.36l-3.33,1.24c-.95.37-1.62.67-2.04.93-.41.26-.83.62-1.24,1.07l-1.08-2.8c.17-.14.4-.34.73-.59.15-.11.25-.19.3-.22-.66-.31-1.21-.69-1.66-1.15s-.79-1.01-1.03-1.63c-.43-1.1-.46-2.09-.11-2.96.36-.86.99-1.48,1.91-1.83.6-.24,1.21-.3,1.79-.19.59.11,1.11.38,1.56.8.45.43.96,1.09,1.53,2,.76,1.23,1.35,2.06,1.76,2.5l.28-.11c.54-.21.89-.5,1.02-.85s.05-.91-.24-1.66c-.19-.51-.45-.86-.76-1.07s-.75-.3-1.31-.28v-.04ZM476.22,172.22c-.26-.32-.63-.84-1.1-1.56s-.84-1.17-1.09-1.36c-.4-.27-.8-.33-1.22-.18-.4.15-.69.44-.86.84-.18.4-.18.84,0,1.3.2.51.56.93,1.07,1.27.39.25.79.36,1.2.32.27-.02.75-.15,1.43-.43l.57-.21h.01Z"/>
    <path class="st35" d="M473.04,179.7l15.04-5.1.98,2.89-15.04,5.1-.98-2.89Z"/>
    <path class="st35" d="M485.61,180.77l.91,3.11-7.05,4.95,8.59.27.89,3.02-11.76-.77-2.13-.13c-.72-.07-1.28-.17-1.69-.3-.4-.13-.76-.32-1.07-.56-.3-.24-.57-.56-.82-.97-.25-.4-.45-.89-.62-1.44-.17-.56-.27-1.12-.31-1.7l2.21-.93c.05.49.12.91.22,1.28.2.67.54,1.12,1.04,1.33s1.08.31,1.74.3l9.83-7.46h0Z"/>
    <path class="st35" d="M481.28,195.26l1.16,2.86c-.54.26-.92.63-1.12,1.08-.21.46-.22,1.03-.06,1.73.18.77.46,1.31.83,1.63.26.21.56.28.89.2.22-.06.39-.17.51-.34.11-.18.15-.54.15-1.09-.04-2.51.08-4.14.37-4.89.39-1.03,1.12-1.67,2.2-1.93.97-.22,1.87-.04,2.72.57.84.6,1.46,1.72,1.83,3.33.37,1.53.38,2.73.06,3.6-.32.86-.93,1.55-1.85,2.06l-1.18-2.67c.4-.22.69-.53.84-.91s.15-.89,0-1.51c-.19-.78-.43-1.31-.72-1.6-.21-.19-.44-.25-.69-.19-.21.05-.37.19-.47.43-.13.31-.19,1.3-.18,2.96s-.17,2.86-.53,3.62c-.38.75-1.04,1.23-1.99,1.44-1.03.25-2.01.02-2.95-.66s-1.61-1.86-2.01-3.54c-.37-1.53-.34-2.8.07-3.83.4-1.04,1.11-1.81,2.11-2.34h.01Z"/>
    <path class="st35" d="M485.83,214.79l.04,3.08c-1.16-.19-2.11-.64-2.83-1.36-.72-.72-1.2-1.7-1.42-2.95-.36-1.96.02-3.54,1.14-4.72.9-.93,2.13-1.54,3.7-1.82,1.88-.34,3.43-.12,4.67.67,1.24.79,2,1.93,2.26,3.43.31,1.68,0,3.11-.95,4.28-.93,1.17-2.56,1.95-4.85,2.32l-1.36-7.5c-.89.18-1.53.54-1.94,1.1s-.56,1.17-.43,1.86c.08.47.28.84.6,1.11.31.27.77.44,1.37.5h-.01ZM488.89,214.41c.86-.18,1.48-.52,1.86-1.03s.51-1.07.39-1.68c-.12-.65-.45-1.15-1.01-1.49s-1.24-.44-2.06-.27l.8,4.47h.01Z"/>
    <path class="st35" d="M106.72,447.22l8.07-10.43-3.73-2.89,1.65-2.12,9.98,7.73-1.65,2.12-3.72-2.88-8.07,10.43-2.53-1.96Z"/>
    <path class="st35" d="M121.25,453.37l2.19,2.15c-.96.69-1.95,1.03-2.97,1.02-1.02,0-2.05-.37-3.09-1.1-1.63-1.15-2.47-2.53-2.51-4.15-.02-1.29.43-2.59,1.34-3.89,1.09-1.56,2.36-2.5,3.79-2.82,1.43-.31,2.78-.04,4.02.84,1.4.98,2.19,2.21,2.34,3.72.17,1.49-.44,3.18-1.82,5.07l-6.25-4.38c-.5.76-.7,1.47-.6,2.15.09.67.43,1.22,1.01,1.62.39.27.79.39,1.21.37s.85-.22,1.33-.6h.02ZM123.16,450.95c.49-.73.69-1.41.59-2.04s-.39-1.11-.9-1.47c-.54-.38-1.14-.5-1.76-.36-.63.14-1.18.57-1.66,1.24l3.73,2.62Z"/>
    <path class="st35" d="M125.09,456.49l2.84,1.22c-.2.57-.21,1.09-.05,1.56.18.47.57.9,1.17,1.28.66.41,1.24.6,1.74.58.33-.02.59-.19.77-.47.12-.2.17-.4.12-.6s-.27-.5-.65-.88c-1.8-1.76-2.85-3.01-3.17-3.73-.44-1.01-.37-1.98.21-2.92.53-.84,1.3-1.35,2.33-1.5,1.03-.15,2.24.2,3.65,1.08,1.34.84,2.19,1.67,2.57,2.51.38.84.43,1.76.13,2.77l-2.71-1.08c.13-.45.12-.86-.05-1.24-.17-.38-.52-.75-1.05-1.08-.67-.43-1.23-.64-1.63-.63-.28,0-.49.13-.62.34-.12.19-.13.39-.04.63.13.32.78,1.07,1.95,2.24,1.18,1.17,1.89,2.15,2.17,2.95.25.79.12,1.61-.39,2.43-.56.89-1.41,1.43-2.56,1.61s-2.45-.19-3.92-1.11c-1.33-.83-2.21-1.75-2.65-2.78-.44-1.02-.49-2.07-.14-3.15h-.02Z"/>
    <path class="st35" d="M145.4,459.08l-1.2,2.11-1.81-1.03-2.28,4.04c-.46.82-.72,1.3-.76,1.46-.05.15-.02.31.05.47.07.15.2.28.37.39.25.14.65.26,1.21.36l-.95,2.18c-.77-.08-1.54-.36-2.32-.79-.47-.27-.86-.59-1.15-.97-.3-.38-.45-.75-.49-1.1s.04-.77.21-1.24c.12-.34.44-.98.97-1.92l2.47-4.36-1.22-.69,1.2-2.11,1.22.69,1.12-1.99,3.54-.04-2.01,3.53,1.81,1.03h.01Z"/>
    <g>
      <path class="st35" d="M366.84,455.11l5.04-2.98c1.14-.67,2.06-1.1,2.76-1.28.95-.24,1.88-.22,2.8.05.92.26,1.8.75,2.62,1.44s1.6,1.69,2.36,2.97c.66,1.12,1.1,2.18,1.3,3.16.25,1.2.24,2.28-.04,3.28-.2.75-.64,1.49-1.3,2.24-.5.56-1.25,1.12-2.27,1.73l-5.2,3.07-8.07-13.67h0ZM370.97,455.8l5.35,9.05,2.06-1.22c.77-.45,1.3-.83,1.6-1.11.38-.38.64-.78.78-1.23.14-.44.12-1.02-.06-1.75-.18-.72-.58-1.61-1.2-2.67-.63-1.05-1.2-1.81-1.72-2.27s-1.04-.75-1.56-.86-1.08-.08-1.66.11c-.44.14-1.22.54-2.34,1.21l-1.24.73v.02Z"/>
      <path class="st35" d="M392.58,453.46l2.8-1.28c.3,1.14.26,2.19-.11,3.14s-1.08,1.79-2.13,2.49c-1.66,1.11-3.25,1.41-4.78.85-1.22-.44-2.26-1.33-3.16-2.65-1.07-1.59-1.49-3.1-1.27-4.54s.97-2.6,2.22-3.46c1.42-.96,2.85-1.24,4.31-.86s2.82,1.55,4.08,3.52l-6.32,4.26c.52.73,1.11,1.18,1.79,1.34s1.29.04,1.87-.36c.39-.27.65-.6.78-.99s.09-.88-.09-1.46h0ZM391.01,450.81c-.51-.72-1.08-1.15-1.69-1.29s-1.18-.04-1.69.32c-.56.37-.88.88-.96,1.53-.09.64.11,1.3.57,1.99l3.78-2.54h0Z"/>
      <path class="st35" d="M396.87,450.98l2.15-2.21c.46.39.95.59,1.44.6.5,0,1.04-.2,1.61-.64.63-.47,1.02-.95,1.16-1.42.09-.32.04-.62-.17-.89-.14-.19-.31-.3-.52-.33-.21-.02-.56.07-1.05.3-2.28,1.04-3.82,1.59-4.63,1.62-1.1.05-1.99-.37-2.65-1.24-.6-.79-.79-1.7-.57-2.72s.99-2.02,2.31-3.02c1.25-.95,2.34-1.44,3.27-1.49s1.8.24,2.63.86l-1.98,2.15c-.37-.28-.76-.41-1.17-.4-.41.01-.88.21-1.38.59-.64.49-1.03.92-1.17,1.3-.09.27-.06.5.09.7.13.18.32.26.58.26.34,0,1.27-.34,2.78-1.03s2.69-1.01,3.53-.96c.83.05,1.54.46,2.12,1.23.64.84.83,1.83.58,2.97s-1.07,2.22-2.44,3.25c-1.25.95-2.44,1.43-3.55,1.48s-2.11-.28-2.99-.99l.02.02Z"/>
      <path class="st35" d="M401.52,435.09l-1.78-2.18,2.36-1.93,1.78,2.18-2.36,1.93ZM409.77,445.22l-7.27-8.91,2.36-1.93,7.27,8.91-2.36,1.93Z"/>
      <path class="st35" d="M415.15,441.82l2.88-1.99c.31.26.59.38.85.36.36-.02.77-.25,1.23-.66.59-.53.96-1.02,1.1-1.46.09-.3.07-.63-.06-.98-.09-.25-.37-.63-.82-1.14l-1.11-1.25c.14,1.53-.31,2.76-1.34,3.68-1.16,1.03-2.51,1.35-4.05.97-1.22-.31-2.33-1.03-3.35-2.18-1.28-1.44-1.91-2.85-1.89-4.23s.54-2.52,1.57-3.44c1.07-.95,2.36-1.25,3.88-.93l-1.08-1.21,2.13-1.89,6.85,7.72c.9,1.02,1.49,1.85,1.78,2.5s.39,1.25.34,1.81c-.05.56-.25,1.14-.62,1.75-.37.62-.92,1.25-1.7,1.94-1.46,1.29-2.71,1.96-3.76,2-1.05.05-1.92-.32-2.6-1.09-.07-.07-.14-.17-.24-.28h0ZM412.7,434.97c.8.91,1.57,1.42,2.31,1.54.73.11,1.35-.07,1.87-.52.56-.5.83-1.12.83-1.91s-.38-1.59-1.14-2.44c-.79-.89-1.56-1.38-2.31-1.49s-1.41.09-1.96.59c-.54.49-.8,1.1-.78,1.83s.41,1.54,1.2,2.41v-.02Z"/>
      <path class="st35" d="M432.74,424.25l-2.15,2.14-4.14-4.15c-.88-.88-1.49-1.41-1.83-1.57s-.7-.21-1.05-.15c-.36.06-.67.24-.96.53-.38.37-.6.8-.7,1.31s-.02.97.2,1.42.79,1.12,1.7,2.04l3.68,3.69-2.15,2.14-8.12-8.15,2-1.99,1.2,1.2c-.2-1.63.24-2.98,1.31-4.06.47-.47.99-.82,1.56-1.04s1.08-.3,1.55-.24c.46.07.91.22,1.33.49s.93.7,1.56,1.34l5.04,5.07h-.02Z"/>
    </g>
  </g>
  <g>
    <path class="st42" d="M50.17,321.05c28.18,86.77,109.68,149.51,205.83,149.51v-216.39l-205.83,66.88h0Z"/>
    <path class="st6" d="M256.01,470.56c96.16,0,177.67-62.74,205.83-149.51l-205.83-66.88v216.39h0Z"/>
    <path class="st23" d="M383.2,79.1c-35.71-25.99-79.65-41.33-127.19-41.33s-91.48,15.34-127.19,41.33l127.19,175.06,127.19-175.06Z"/>
    <path class="st41" d="M461.84,321.05c6.84-21.07,10.56-43.54,10.56-66.88,0-71.97-35.15-135.72-89.2-175.06l-127.19,175.06,205.83,66.88h0Z"/>
    <path class="st8" d="M39.62,254.17c0,23.34,3.72,45.81,10.56,66.88l205.83-66.88-127.19-175.06c-54.05,39.34-89.2,103.09-89.2,175.06Z"/>
  </g>
  <g>
    <path class="st18" d="M337.66,358.47c.71.34,1.25.88,1.6,1.6,1.49.91,2.79,2.24,3.72,3.72.72.14,1.42.88,1.6,1.6h.39c1.2,1.21,2.53,2.15,4.26,2.34l.26.31c.73-.21,2.01-.32,2.8-.26l.26.26c19.02-.06,28.05,22.92,13.75,35.48-13.23,11.62-33.47,1.67-33.42-15.81l-.26-.26c-.06-.78.06-2.07.26-2.8l-.31-.26c-.2-1.73-1.15-3.07-2.34-4.26v-.39c-.71-.17-1.46-.88-1.6-1.6-1.48-.93-2.8-2.24-3.72-3.72-.71-.34-1.25-.88-1.6-1.6-.53-.53-.97-1.16-1.6-1.6,1.18-1.87,2.99-3.5,4.66-4.97l.31.08,20.89,23.72c.08.26.11.45-.17.56-5.08.52-4.67,8.2.54,7.99,3.01-.12,4.25-3.16,3.72-5.8l.2-.31c0-.11.02-.26.09-.26.64-.04,4.98-.13,5.2,0l.15.26-.26-.12v-6.1l.26-.15c.02-.11.07-.26.15-.26.24-.02,2.28-.07,2.38,0s.17.15.19.26l.06-.28c4.19-.85,4.56-6.67.3-7.85-2.76-.76-5.15,1.72-5.01,4.41-.08.24-.27.26-.51.26l-23.66-20.76c-.06-.11-.17-.32-.14-.34.08-.15.18-.3.28-.44.63-.82,3.49-3.66,4.27-4.07.13-.07.27-.12.41-.18.44.63,1.07,1.07,1.6,1.6h.01Z"/>
    <path d="M321.72,371.22c-.77.75-2.33,2.46-3.18,2.85-2.92,1.34-5.7-1.48-4.45-4.45.14-.33.49-.49.47-.85-2.21-1.14-2.4-3.78-.82-5.57-1.59-1.56-3.12-3.21-3.78-5.4-2.38-7.94,4.88-15.15,12.79-12.66,2.17.69,3.75,2.17,5.29,3.75,1.79-1.59,4.44-1.4,5.57.82,2.88-2.24,6.86.57,5.3,3.98-.39.86-2.11,2.43-2.85,3.18-1.56,1.6-3.25,3.09-4.78,4.72l23.85,20.92c-.19-3.4,2.96-6.04,6.2-4.47s3.04,6.6-.46,7.83c-.13.05-.76.24-.83.24h-2.72v5.22c0,.64-.52,1.16-1.16,1.16h-4.28c.72,2.95-.67,6.34-4.05,6.39-5.44.06-5.82-8.08-.33-8.51l-21.05-23.91c-1.63,1.53-3.11,3.22-4.72,4.78v-.02Z"/>
    <path d="M324.9,374.41l.12.25-10.41,10.34c1.09,1.22,2.22,2.34,3.42,3.37l10.3-10.33.3.07c.52.54,1.08,1.04,1.6,1.6l.12.25-10.31,10.36c.33.47,3.12,3.3,3.38,3.29l9.15-9.05.31.07c.18,1.22,0,1.91,0,3.05l-8.98,8.88-13.91,4.31c-.19.06-.39.09-.6.09h0c-1.11,0-2.02-.9-2.02-2.02v-.13c0-.2.04-.4.09-.6l4.31-13.76,10.41-10.51,2.72.45v.04Z"/>
    <path d="M352.53,368.03c-1.15,0-1.83.18-3.05,0,1.21-1.85,2.83-3.54,4.65-4.78,1.31-1.86,2.94-3.47,4.78-4.78l-.04-.34,2.39-2.25c4.33-3.86,1.29-6.69-2.06-9.55-2.67-2.28-4.32-1.62-6.72.69l-2.26,2.44-.36-.02c-1.31,1.85-2.94,3.48-4.78,4.78l.11.27c-1.88,1.88-3.76,3.76-5.65,5.65l-.3-.07-1.6-1.6,14.27-14.21c4.82-4.11,8.95-.25,12.17,3.52,2.3,2.69,2.34,5.86.06,8.57l-11.62,11.69h0Z"/>
    <path class="st43" d="M328.62,378.13l-10.58,10.62c-.26.05-3.3-3.25-3.76-3.66l.12-.25,10.51-10.43c1.24,1.24,2.5,2.46,3.72,3.72h0Z"/>
    <path class="st43" d="M332.88,384.64l-9.52,9.42-3.76-3.66,10.62-10.68c1.57,1.69,2.31,2.47,2.66,4.91Z"/>
    <path class="st43" d="M348.82,357.94c.07.08.15.22.11.27-1.55,1.66-3.43,3.61-5.11,5.11-.28.41-.56.56-.83.45-1.25-1.23-2.47-2.47-3.72-3.72l5.85-5.85c.09-.06.24-.13.3-.08.59.52,3.21,3.01,3.47,3.47l-.05.32v.02Z"/>
    <path class="st43" d="M354.13,363.25c-1.57,1.57-3.1,3.18-4.65,4.78-2.45-.36-3.22-1.08-4.91-2.66-.07-.08-.15-.22-.11-.27,1.53-1.65,3.29-3.38,4.92-4.92.34-.49.69-.7,1.02-.64.09-.06.24-.13.3-.08.46.41,3.48,3.36,3.48,3.61,0,.06-.02.13-.06.19h.01Z"/>
    <path d="M367.91,388.22c.63,0,1.11.54,1.07,1.17-.44,6.1-4.51,11.52-10.17,13.72-.6.24-1.29-.08-1.47-.71h0c-.15-.54.13-1.12.65-1.3,4.95-1.75,8.49-6.69,8.85-11.91.04-.54.51-.96,1.05-.96h.01Z"/>
    <path d="M350.4,359.52l-5.85,5.85c-.56-.52-1.05-1.07-1.6-1.6l5.85-5.85c.71.34,1.25.88,1.6,1.6Z"/>
    <path class="st37" d="M354.05,401.97h0c.53-.04,1.02.34,1.1.86v.02c.11.62-.34,1.2-.97,1.23h-.01c-.6.04-1.11-.44-1.11-1.05v-.02c0-.56.43-1.01.98-1.05h.01Z"/>
    <polygon class="st18" points="355.19 390.35 350.34 390.35 327.95 364.91 329.75 363.12 355.19 385.37 355.19 390.35"/>
    <path class="st43" d="M318.63,346.81c3.22-.37,5.99,1.21,7.86,3.73l-11.2,11.1c-1.95-1.68-3.48-3.62-3.67-6.31-.31-4.15,2.84-8.06,7.01-8.53h0Z"/>
    <path class="st18" d="M335.62,351.05c1.15-.25,2.01,1.09,1.17,1.96l-19,19c-.95.76-2.24-.2-1.87-1.34,6.27-6.54,12.83-12.86,19.21-19.33.14-.13.3-.26.5-.31h-.01Z"/>
    <path class="st18" d="M330.31,349.98c1.1-.25,1.96.99,1.23,1.91l-15.14,15.02c-.97.32-1.85-.59-1.54-1.54l14.95-15.08c.14-.13.3-.26.5-.31h0Z"/>
    <path class="st18" d="M357.32,383.97v-2.59c0-.33.64-1.12.93-1.33,2.01-1.31,4.37,1.18,2.85,3.12-.2.26-.9.79-1.2.79h-2.59Z"/>
    <path class="st18" d="M347.31,392.51c.34-.06,1.8-.11,2.07,0,.8.27.92,3.86-1.21,4.2-2.98.49-3.44-3.75-.86-4.19h0Z"/>
    <polygon class="st43" points="321.18 395.26 309.62 398.72 313.08 387.16 321.18 395.26"/>
    <path class="st43" d="M358.91,358.47c-.07.07-.2.17-.25.12-2.71-2.59-5.6-5.44-8.18-8.18-.46-.32-.66-.65-.6-.97,2.2-2.17,4.52-5.95,8.06-4.41.88.38,4.24,3.69,4.88,4.56,2.8,3.73-1.59,6.54-3.91,8.89Z"/>
    <path class="st18" d="M358.91,358.47c-1.59,1.61-3.18,3.18-4.78,4.78l-3.72-3.72-1.6-1.6-3.72-3.72c1.6-1.6,3.17-3.2,4.78-4.78l9.03,9.03h0Z"/>
  </g>
  <g>
    <path d="M185.64,343.25c1.38-.02,2.41.77,3.22,1.85.25.33.63.92.67,1.55.01.21.01.27.01.27v12.18l-.25.89.25-.92c.38-.85,2.11-3.88,2.7-4.54,4.57-5.15,11.35-.06,8.32,5.65-1.01,1.92-2.05,3.81-3.15,5.68-2.75,4.4-5.37,8.89-7.86,13.44v24.46c-.21,2.18-1.93,4.12-4.21,4.01h-42.81c-2.34.15-4.12-1.78-4.34-4.01v-56.55c.18-2,1.69-3.87,3.78-3.94h43.67,0Z"/>
    <path class="st43" d="M174.82,385.04c.09.08-1.14,1.93-1.23,2.24-.82,2.66-.56,6.62-1.29,9.42.04,1.34.99,1.78,2.13,1.11,2.44-1.42,4.94-4.15,7.39-5.7l4.97-8.44v20.2c0,.51-1.23,1.48-1.82,1.33h-42.18c-.96-.02-1.78-.73-1.82-1.69l.07-56.46c.27-.67.88-1.24,1.63-1.27h42.43c.84.02,1.6.76,1.69,1.57l-.02,17.09-10.36,17.97-.37.13h-18.5c-.82.22-1.4,1.05-.89,1.87.09.14.63.64.75.64h17.43-.01Z"/>
    <polygon class="st11" points="192.44 359.49 196.45 361.82 180.23 389.39 176.7 387.37 176.63 387.05 192.44 359.49"/>
    <path class="st20" d="M197.84,359.49l-4.02-2.14c.5-1.6,2.15-2.89,3.76-1.81s1.04,2.59.26,3.95Z"/>
    <path class="st40" d="M175.2,393.97c.3-1.23.26-2.62.51-3.83.02-.12.07-.3.19-.32.21-.05,2.36,1.33,2.7,1.57l-3.4,2.58Z"/>
    <path d="M147.34,364.42c.73-.17,4.52-.13,5.38-.02.66.07,1.11.37,1.2,1.07.14,1.21.12,4.06,0,5.29-.07.77-.43,1.1-1.21,1.2-1.17.13-3.85.12-5.04,0-.95-.08-1.23-.69-1.31-1.59-.11-1.08-.11-3.33,0-4.4.06-.59.3-1.4.97-1.55h.01Z"/>
    <path d="M147.34,377.51c.73-.17,4.52-.13,5.38-.02.66.07,1.11.37,1.2,1.07.14,1.21.12,4.06,0,5.29-.07.77-.43,1.1-1.21,1.2-1.17.13-3.85.12-5.04,0-.95-.08-1.23-.69-1.31-1.59-.11-1.08-.11-3.33,0-4.4.06-.59.3-1.4.97-1.55h.01Z"/>
    <path d="M147.34,390.6c.73-.17,4.52-.13,5.38-.02.66.07,1.11.37,1.2,1.07.14,1.21.12,4.06,0,5.29-.07.77-.43,1.1-1.21,1.2-1.17.13-3.85.12-5.04,0-.95-.08-1.23-.69-1.31-1.59-.11-1.08-.11-3.33,0-4.4.06-.59.3-1.4.97-1.55h.01Z"/>
    <path d="M157.41,369.46l17.22-.02c1.29.15,1.56,1.82.4,2.43-5.91.15-11.91.15-17.81,0-1.14-.67-1.02-1.88.18-2.39h.01Z"/>
    <path d="M166.98,348.82c1.04-.15,3.47-.3,3.25,1.36-.27,2.12-3.57.27-3.47,1.94.06.89,1.38.66,2.09.93,3.17,1.18,2.53,5.96-.91,6.32-.7.07-2.63.12-3.15-.25-.69-.49-.77-1.21-.19-1.83.96-1.04,3.57.21,3.79-1.01s-1.23-.85-2.01-1.12c-3.12-1.1-2.65-5.85.59-6.32v-.02Z"/>
    <path d="M158.96,351.31c-.14.09-.14,1.25-.13,1.51h1.95c1.24,0,1.24,2.52,0,2.52h-1.95c-.05.18.02,1.51.13,1.51h2.33c.19,0,.8.5.89.75.27.85-.13,1.62-1.02,1.76-1.73.26-4.02.02-4.63-1.91-.37-1.2-.37-5.88.11-7.03.69-1.69,2.84-1.82,4.4-1.65,1.05.13,1.66,1.28.95,2.08-.07.08-.65.44-.7.44-.34,0-2.22-.06-2.33,0Z"/>
    <path d="M150.52,351.31c-.78.05-1.59.08-1.99-.72-.34-.69.08-1.61.82-1.78.54-.12,4.17-.11,4.72,0s.97.56.98,1.17c.04,1.22-1.02,1.41-2.02,1.33-.15,2.13.2,4.52,0,6.62-.07.73-.49,1.49-1.33,1.46-.36-.01-1.2-.47-1.2-.83v-7.23h.01Z"/>
    <path d="M177.21,351.31v7.23c0,.36-.84.8-1.2.83-.84.04-1.25-.71-1.33-1.46-.2-2.09.15-4.49,0-6.62-1.01.09-2.06-.11-2.02-1.33.02-.6.39-1.04.98-1.17s4.19-.12,4.72,0c.72.17,1.15,1.09.82,1.78-.4.8-1.21.77-1.99.72h.01Z"/>
    <path d="M157.41,395.64l11.29-.02c1.49.31,1.43,2.33-.12,2.51h-11.08c-1.36-.44-1.47-1.93-.11-2.5h.01Z"/>
    <path class="st3" d="M179.32,369.46c1.93-.32,1.93,2.66.11,2.49-1.43-.14-1.49-2.26-.11-2.49Z"/>
    <rect class="st17" x="148.89" y="366.92" width="2.52" height="2.52"/>
    <rect class="st17" x="148.89" y="380.01" width="2.52" height="2.52"/>
    <rect class="st17" x="148.89" y="393.1" width="2.52" height="2.52"/>
  </g>
  <g>
    <path class="st44" d="M256.16,87.98c.34.04-.43.21-.06.56h11.99l.33.56c.21.02.54.09.56.25.07.72.08,5.59-.19,5.86-.09.09-.22.14-.37.18l.58.08c.97,2.05,2.63,2.18,4.65,2.01l.36.57c.7,1.08,1.22,4.81-.28,4.75l-.45.49c-2.22-.27-4.5-.36-6.73-.2-3.01.96,1.78,1.57,2.9,1.22l3.83-.33.45.51c.11-.07.22-.13.33-.15.91-.17.69,7.21-.06,8.81l-.8.34c-21.8-3.74-24.1,27.63-2.43,27.63l.71.49c1.07-.02,1.29.25.44,1.04l-2.25.64h-31.49l-.75-.57-.63-.08c-.43-6.66-.46-13.4-.12-20.18.06-1.31,0-2.2-.65-3.18v-6.98l.73.15.83,2.92c2.43,2.75,6.46,1.23,6.66-2.66,1.16-1.36,1.6-3.07,1.3-5.14,6.9-4.26,7.66-14.45.31-18.76l-4.12-.82c2.57,0,12.5.04,14.42.02h0Z"/>
    <path d="M274.01,113.09l.49-.43c1.1.24,3.8,1.75,3.99,2.94,5.57,4.27,7.11,12,3.95,18.25,2.32,3.21,10.73,7.85,5.68,12.19-3.72,3.2-6.84-1.21-9.36-3.63l-.56.22c-1.72-2.3-1.83-2.34-4.4-1.1-.86.49-1.63.5-2.3.04-11.82,1.43-20.56-11.29-14.63-21.75,3.3-5.83,10.7-8.78,17.15-6.72h-.01Z"/>
    <path d="M245.53,87.97c7.3,3.54,8.1,13.44,2.08,18.7-.33.28-1.43.83-1.47.9-.47.8.53,2.92-.62,4.28-1.23,1.47-.76,1.27-1.38,3.07-.88,2.5-2.69,2.4-5.18,2.09s-1.83-3.28-2.92-4.76c-.09-.13-.5-.26-.69-.56-.89-1.4-.07-3.42-.49-4.13-.05-.07-1.15-.62-1.47-.9-10.14-8.86.43-24.37,12.14-18.7h-.01Z"/>
    <path d="M236.05,119.24c.71,0,1.15.56,1.12,1.24-.18,7.09-.32,14.39-.02,20.97.02.56.12.75.3,1.23l.64.22c.57.79,1.28,1.38,2.3,1.44,7.59-.22,15.18-.14,22.77.27,4.76.41,9.28.06,13.56-1.07.58-.06-1.16,1.21.07,1.18,1.1.17,1.07,1.34.82,1.7-.58.85-2.17.67-3.18.7-11.3.26-21.69,0-34.07,0-2.99-.17-5.29-2.18-5.43-5.17-.32-6.82-.06-14.42-.01-21.5-.01-.69.43-1.24,1.12-1.24h.02Z"/>
    <path d="M278.48,112.54c-.56,1.16-1.7-.24-1.67-1.28-.08-4.17-.06-8.32.07-12.49-1.15,0-2.11-.26-2.86-.75-1.23-.04-2.54.2-3.7-.34-.58-.27-1.88-1.29-1.88-2.31v-6.28h-12.41c-.69,0-.98-.58-.98-1.11s.3-1.11,1.24-1.12c2.09-.04,10.78-.26,12.73.14.66.14,1.51.59,2.07.99,1.3.95,6.25,5.92,7.27,7.25.77,1.01,1.27,1.93,1.27,3.21-.01,4.51.12,8.97-.02,13.13-.04.38-.08.91-1.11.98v-.02Z"/>
    <path class="st34" d="M278.75,142.41c0,.58-.09,1.48-1.08,2.05s-2.26.44-3.8.47c-11.41.25-22.04.05-33.5,0-1.4-.08-2.49-.97-2.94-2.24h32.25l2.36-.7-.56-.41c1.48-.18,3.42-1.11,4.84-1.63.47.09,1.94,2.01,2.41,2.47h.01Z"/>
    <path class="st34" d="M274.01,98.02c1.11.04,2.24-.02,3.35,0,0,2.46-.04,13.27.26,14.13.13.38.86.39.86.39v3.07s-3.2-2.11-4.46-2.51c-.02-2.57.02-5.14.02-7.7,0-.5-.3-.9-.3-.95-.82-.15-.82-1.53,0-1.68,0-.04.28-.32.28-.67.04-1.35-.04-2.71,0-4.07h-.02Z"/>
    <path class="st13" d="M240.16,80.19c2.45-.67,1.88,6-.37,4.18-.65-.53-.73-3.87.37-4.18Z"/>
    <path class="st13" d="M223.4,96.96c.75-.21,3.2-.25,3.57.5.97,1.92-2.45,1.95-3.57,1.62-1.04-.31-.99-1.82,0-2.12Z"/>
    <path class="st13" d="M228.14,85.21c1.43-.49,4.12,2.63,2.91,3.48-1.38.98-4.66-2.89-2.91-3.48Z"/>
    <path class="st13" d="M229.83,107.28c3.48-1.04-.06,4.75-1.89,3.46-1.12-.79,1.16-3.24,1.89-3.46Z"/>
    <path class="st3" d="M252.52,87.7c-.98,1.1-3.07.91-2.79-.28s1.7-2.45,2.92-2.25c1.44.24.52,1.8-.13,2.53Z"/>
    <path d="M249.02,109.19h13.13c.85,0,.85,2.24,0,2.24h-13.13c-.7,0-1.03-1.89,0-2.24Z"/>
    <path d="M241.21,135.98h13.13c.85,0,.85,2.24,0,2.24h-13.13c-.7,0-1.03-1.89,0-2.24Z"/>
    <path d="M241.21,122.59h10.89c.85,0,.85,2.24,0,2.24h-10.89c-.7,0-1.03-1.89,0-2.24Z"/>
    <path d="M241.21,129.28h10.89c.85,0,.85,2.24,0,2.24h-10.89c-.7,0-1.03-1.89,0-2.24Z"/>
    <path d="M254.61,95.79h9.78c.85,0,.85,2.24,0,2.24h-9.78c-.7,0-1.03-1.89,0-2.24h0Z"/>
    <path d="M253.5,102.49h8.65c.85,0,.85,2.24,0,2.24h-8.65c-.7,0-1.03-1.89,0-2.24Z"/>
    <path d="M246.8,115.89h8.65c.85,0,.85,2.24,0,2.24h-8.65c-.7,0-1.03-1.89,0-2.24Z"/>
    <path class="st3" d="M273.74,102.76v1.68c-2.02.24-5.72.64-7.67.27-1.01-.19-1.38-1.36-.59-1.98.72-.57,6.96-.31,8.26.02Z"/>
    <path class="st10" d="M267.81,114.84c16.7-2.12,18.92,22.78,3.25,24.46s-18.72-22.51-3.25-24.46Z"/>
    <path class="st24" d="M286.58,144.36l-.65.02c-1.41-2.07-4.11-4.84-6.33-4.49-.22-.24-1.4-1.04-1.4-1.25,1.17-.78,2.14-1.75,2.92-2.92,1.25,1.79,5.05,4.31,5.96,6.04.58,1.11.43,1.85-.52,2.62h.01Z"/>
    <path class="st4" d="M286.58,144.36c-.34.27-.45.51-.99.56-1.69.15-4.77-3.74-5.99-5.03-.15-.8.41-.6.95-.53,2.27.32,4.89,3.12,6.04,4.99h0Z"/>
    <path class="st38" d="M242.47,89.36c6.44,2.53,7.23,13.24,1.11,16.47-.65.04-1.31-.02-1.95,0,.14-1.15-.2-2.67,0-3.76.26-1.37,4.66-3.54,2.95-4.91-1.35-1.09-2.86,1.88-3.96,2.52-1.34-.39-2.73-3.67-4.18-2.52-1.73,1.38,2.96,3.95,2.96,4.63v4.05c-3.09.44-4.92-.57-6.47-3.16-4.15-6.94,1.67-14.88,9.55-13.31h0Z"/>
    <path class="st5" d="M243.58,105.84c5.28-4.77,4.66-12.41-1.11-16.47,6.18,1.22,8.79,8.17,5.54,13.49-1.05,1.73-2.34,2.88-4.41,2.98h-.01Z"/>
    <path class="st0" d="M241.63,108.08c.85.12.82,2.05,0,2.24-.56.01-4.43.12-4.47-.17v-2.07c1.49.02,2.98-.04,4.47,0Z"/>
    <path class="st32" d="M239.12,114.22c-.25-.54-.54-1.05-.56-1.67h3.91c-.45,1.3.05,2.13-1.4,2.24-.88-.45-1.53-.64-1.95-.56h0Z"/>
    <path class="st31" d="M241.63,108.08c.44,0,2.19-.14,2.24.17v2.07c-.75.01-1.49-.02-2.24,0v-2.24Z"/>
    <path class="st19" d="M241.07,114.77c-.45.04-1.42.09-1.78.01s-.12-.44-.18-.57c-.2-1.22,1.62-.26,1.95.56Z"/>
    <path class="st25" d="M275.69,95.79h-4.19c-.46,0-.83-.38-.83-.83v-4.19l5.03,5.03h-.01Z"/>
    <path d="M268.08,117.08c11.98-1.62,16.06,15.49,4.89,19.41-14.07,4.94-18.96-17.49-4.89-19.41Z"/>
    <path class="st44" d="M269.55,119.24c6.69,2.04,6.69,13.6,0,15.63-10.33,0-10.26-15.65,0-15.63Z"/>
    <path class="st34" d="M269.55,134.87c5.95-3.63,5.95-12,0-15.63,10.33,0,10.25,15.63,0,15.63Z"/>
  </g>
  <g>
    <path d="M140.73,183.62c1.65,0,4.96-.49,3.23,2.15l-4.24,4.07-.13.28c7.54,11.85,2.46,27.75-10.25,33.33l.79,5.09c-.11,1.15-1.5,1.02-1.57,1.09-.12.12-.26,2.99-.3,3.43.72-.13,1.66.17,1.83.96.2.88.13,4.82.04,5.86-.19,2.05-2.12,1.01-2.71,1.37-.13.08-.25,2-.36,2.45-1.38,6.08-11.86,6.25-13.5.26-.14-.5-.26-2.63-.37-2.72-.13-.13-2.36.33-2.69-.83v-6.53c.17-.73,1.18-.9,1.83-.82-.11-.45-.17-3.33-.28-3.44-.08-.08-1.44.25-1.59-1.08-.09-.95.98-4.76.7-5.21-.69-.32-1.42-.62-2.08-1.01-11.7-6.73-15.31-21.85-7.48-33.04,7.46-10.65,22.46-12.85,32.72-4.85l4.3-4.27c2.53-1.42,2.08,1.89,2.08,3.44h.01Z"/>
    <path class="st28" d="M127.55,227.19h-10.97c.14-1.46.34-2.94.6-4.4-6.14-2.32-10.97-7.63-12.9-13.89-.27-.88-1.01-3.46-.66-4.13.04-.06,1.24.04,1.42.07.62,7.54,6.78,13.68,14.33,14.19.12.88-.41,2.95.67,3.27,2.05.6,1.61-2.06,1.62-3.27,1.15-.05,2.34-.32,3.44-.65s4.98-1.56,3.59-3.22c.05-.25.25-.44.59-.58l.98-.86.3.14.34-.14c1.22.22,1.34-.82,1.23-1.72-.36-.3.41-1.53.86-1.43,1.56.76,2.25-2.08,2.51-3.15.11-.44.34-2.49.41-2.59.36-.53,3.38.64,3.38-1.21,0-1.55-2.44-1.2-3.44-1.22-.11-2.27-.89-4.69-2.04-6.64-.24-.39-1.56-2.11-1.53-2.3.02-.12.79-.88.93-.92,1.31-.39,3.56.64,4.56-.75,6.23,9.67,2.49,23.02-7.43,28.55-.65.37-3.04,1.3-3.31,1.7-.11.17-.19.44-.2.63-.01.62.85,4.36.69,4.52h.01Z"/>
    <path class="st28" d="M117.37,182.19c.46-.07,1.03-.25,1.5-.28,4.83-.32,10.06,1.21,13.82,4.23-1.62.91-.4,3.35-.93,4.51-.07.17-1.1,1.15-1.27,1.12-.17-.01-1.35-.98-1.68-1.18-2.18-1.34-4.58-2.25-7.16-2.38-.06-1.05.44-3.41-1.22-3.37s-.92,2.32-1.08,3.37c-7.6.47-13.67,6.65-14.36,14.18-.46.06-.95-.02-1.42.01-.07-.09-.14-.2-.19-.31-.4-.89.41-4.54.73-5.66,1.8-6.27,6.84-12.38,13.22-14.25h.02Z"/>
    <path class="st2" d="M117.37,182.19c-8.17,3.33-13.8,11.3-13.76,20.21-.72.06-1.72,0-1.86.95-.3,2.02,2.21,1.05,3.29,1.49h-1.29c.8,7.94,6.28,15.02,13.74,17.79l-.7,4.57h10.75l-14.62.14c.09-1.14,1.11-4.49.56-5.36-.18-.28-2.94-1.44-3.53-1.79-16.75-9.66-11.85-35.27,7.41-38.01h.01Z"/>
    <path class="st29" d="M117.94,196.8c2.49-.89,4.45-.58,6.73.72.06.21-.06.24-.14.36-.12.18-1.74,1.81-1.87,1.87-.07.04-1.16-.45-1.53-.49-3.68-.45-6.28,3.22-4.51,6.51,2.27,4.2,9.03,2.15,8.14-3.12-.06-.34-.51-1.08-.5-1.18,0-.14,1.91-2.02,2.05-2.07.25-.09.19.09.25.18,3.62,5.03-.76,11.88-6.92,11.29-5.59-1.91-6.72-10.86-1.72-14.05h.01Z"/>
    <path class="st45" d="M128.7,215.15c-.83-.99-2.13.22-3.05.6-1.27.51-2.62.82-3.96.98v-3.59c3.01-.39,5.94-2.37,7.34-5.07.58-1.11.73-2.26,1.2-3.4h3.37c.02.63-.08,1.25-.21,1.87-.22,1.09-1.63,3.4-.37,4.01l-.86,1.43c-.97-.19-1.85.06-1.73,1.24.15.2.2.4.15.62-.59.38-1.12,1.21-1.86,1.29h-.01Z"/>
    <path class="st45" d="M112.92,192.93c2-1.43,3.93-2.28,6.45-2.44v3.59c-4.32.47-7.79,3.89-8.38,8.18-.18.25-1.29.13-1.66.14-.07-.09-.13-.19-.18-.28-.25-.56.27-2.73.47-3.47.58-2.14,1.56-4.27,3.29-5.7h0Z"/>
    <path class="st45" d="M127.83,235.5v3.3l-10.11.05c-.09-.08-.17-.17-.21-.26-.07-.17-.26-2.96-.2-3.1h10.52Z"/>
    <path class="st29" d="M110.92,204.83c-.09.28-.4.39-.92.28.78,4.86,4.41,8.85,8.9,10.57.09-.72.11-1.49.04-2.3l.31-.25c.33,1.11.06,2.43.14,3.59-5.44-.46-10.12-4.31-11.57-9.57-.11-.38-.51-2.01-.45-2.24s.31-.21.47-.24c.66-.07,1.6,0,2.31,0,.24,0,.64-.09.78.14h0Z"/>
    <path class="st45" d="M116.93,229.63c3.1-.02,6.21.01,9.31,0l-.28,3.44c-2.91-.01-5.83.01-8.75,0l-.3-.14-.26-3.08.27-.22h0Z"/>
    <path class="st45" d="M118.08,241.24c2.34-.01,4.69,0,7.02,0-.21.78-.08,1.5-.37,2.28-.65,1.85-2.86,2.64-4.65,2.58-.89-.2-1.33-1.05-1.67-1.83s-.82-2.36-.33-3.04h0Z"/>
    <path class="st45" d="M110.92,204.83c.7,4.33,3.93,7.69,8.31,8.31-.08.83.12,1.85,0,2.65-.02.19.07.26-.21.21-.46-.07-1.61-.67-2.08-.93-3.86-2.09-6.65-5.87-7.3-10.25h1.29,0Z"/>
    <path class="st45" d="M121.67,194.08v-3.59c2.62.24,5.17,1.25,7.16,2.96.04.19-2.28,2.5-2.5,2.5-1.4-.93-2.95-1.72-4.66-1.87Z"/>
    <path class="st45" d="M133.56,202.4h-3.59c-.13-1.72-.89-3.28-1.87-4.66,0-.21,2.31-2.54,2.5-2.5,1.67,1.99,2.79,4.54,2.96,7.16Z"/>
    <path class="st9" d="M117.94,196.8c-4.53,4-3.6,11.24,1.72,14.05-7.54-.73-8.96-11.44-1.72-14.05Z"/>
    <path class="st29" d="M127.83,235.5l-10.32.07c.17,1.07.31,2.15.28,3.22h10.04l-15.05.14v-3.59l15.05.14h0Z"/>
    <path class="st29" d="M112.92,192.93c-.47.82-1.12,1.51-1.6,2.34-1.27,2.22-1.82,4.57-1.98,7.12h-2.01c.41-3.37,1.99-6.6,4.58-8.82.33-.28.71-.43,1.01-.64h0Z"/>
    <path class="st29" d="M118.08,241.24c.14,1.94.51,3.54,2.01,4.88-1.5-.05-3.44-.82-4.12-2.26-.41-.88-.27-1.69-.47-2.62h2.58Z"/>
    <path class="st45" d="M120.09,201.54c3.09-.39,3.35,4.11.43,4.15-1.46-.51-1.8-3.37-.43-4.15Z"/>
    <path class="st29" d="M138.72,185.62l.05.3c-1.31,1.24-2.58,2.53-3.81,3.86.58-.05,1.03.05,1.31.3-.59.32-1.47.06-2.15.14v-2.22c0-.3,3.83-3.61,4.23-4.23.17.63-.08,1.31.36,1.86h.02Z"/>
    <path class="st21" d="M138.72,185.62c.19-.01,1.29.49,1.72.36-.76.51-3.61,3.95-4.15,4.08-.59.13-1.41-.04-2.01-.07.6-.46,4.13-4.36,4.44-4.37h.01Z"/>
    <path class="st29" d="M116.93,229.63l.28,3.44h-2.58l-.28-3.44h2.58Z"/>
    <path class="st27" d="M120.09,201.54c-.9,1.42-.69,2.95.43,4.15-2.71.05-2.79-3.86-.43-4.15Z"/>
    <path class="st46" d="M132.13,212c.96.96-.36,2.64-1.57,1.86-1.3-.83.34-3.1,1.57-1.86Z"/>
  </g>
  <g>
    <path d="M386.06,180.34c21.23-.32,35.14,22.39,25.14,41.22-.62,1.16-1.47,2.24-2.01,3.4.04.13,1.76,1.88,1.89,1.91.36.06.9-1.12,1.31-.91l11.61,11.61c5.03,5.61-2.21,13.39-8.18,8.46l-11.76-11.74c-.21-.41.97-.96.91-1.31-.02-.13-1.78-1.86-1.91-1.89-.19-.05-2.82,1.7-3.3,1.96-16.13,8.71-36.18-.34-40.5-18-4.27-17.48,8.88-34.43,26.81-34.7h-.01Z"/>
    <path class="st30" d="M384.8,182.72c18.64-1.21,32.43,17.3,25.76,34.85-7.29,19.2-33.22,22.45-45.09,5.65-11.57-16.39-.58-39.21,19.33-40.5h0Z"/>
    <path class="st16" d="M412.19,229.11c3.53,3.22,6.82,6.78,10.26,10.13,2.88,3.29-1.1,7.78-4.75,5.44l-10.44-10.41.07-.36,4.85-4.81h0Z"/>
    <path class="st15" d="M404.83,229.38c.97-.63,2.02-1.69,2.66-2.66.22-.17,1.68,1.51,1.94,1.76.05.25-2.39,2.46-2.73,2.84-.14.02-1.59-1.38-1.73-1.6-.08-.12-.19-.14-.13-.36h-.01Z"/>
    <path d="M384.8,184.96c18.79-1.33,31.55,19.05,21.95,35.39-8.82,15.01-30.49,15.47-39.98.86s.31-35.01,18.01-36.25h.01Z"/>
    <path class="st22" d="M384.94,187.19c17.56-1.29,29.13,18.39,19.22,33.07-8.65,12.82-27.75,12.45-35.8-.76-8.28-13.59.83-31.15,16.58-32.31Z"/>
    <path d="M401.05,212.89h2.24v3.99c0,1.12-2.06,2.94-3.28,2.73h-27.28c-1.12.05-3.01-1.68-3.01-2.73v-3.99h2.24v-15.17c0-1.12,2.06-2.94,3.28-2.73l22.92.02c1.08.01,2.88,1.7,2.88,2.71v15.17h.01Z"/>
    <path class="st39" d="M398.81,212.89h-24.62v-14.89c0-.26.7-.85,1.04-.77h22.38c.38-.13,1.18.45,1.18.77v14.89h.01Z"/>
    <path class="st16" d="M401.05,215.12c-.04.78.22,1.69-.59,2.13-9.12.25-18.31.04-27.45.11-1.27-.14-1.05-1.25-1.04-2.24h29.09-.01Z"/>
    <path d="M396.57,200.58v4.49c0,.62-.5,1.12-1.12,1.12h0c-.62,0-1.12-.5-1.12-1.12v-1.68l-4.65,4.58c-1.12,1.11-2.92,1.12-4.07.05l-2.08-1.96c-.25-.24-.64-.24-.89,0-1.11,1.03-2.62,2.51-3.53,3.4-.44.43-1.12.41-1.55-.02h0c-.41-.43-.4-1.11.01-1.53l3.49-3.47c1.12-1.11,2.92-1.14,4.08-.06l2.05,1.93c.26.24.66.24.91-.01l4.53-4.58h-1.68c-.62,0-1.12-.5-1.12-1.12h0c0-.62.5-1.12,1.12-1.12h4.49c.62,0,1.11.5,1.11,1.11h.02Z"/>
  </g>
  <circle class="st14" cx="256.01" cy="254.17" r="70.84"/>
  <g>
    <path d="M240.34,262.58c.09-.02.62-.52.69-.65.46-.86-.3-2.41-.5-3.38-1.2-5.78-.3-11.39,2.84-16.38,3.6-5.75,9.88-9.42,16.63-10.07.33.02-.06.91-.07,1.18-.18,2.95,2.38,4.77,5.18,4.34,3.12-.49,6.88-2.22,10.02-2.98,1.95-1.17,2.73-3.59,1.69-5.67-1.35-2.71-4.26-5.62-5.78-8.34-2.84-3.22-7.6-1.07-7.48,3.08-11.74-.57-22.64,5.44-28.27,15.71-6.51,11.86-4.07,26.63,5.48,36.04h-4.76c.88-3.5-2.32-6.5-5.73-5.1-1.29.52-7.4,5.01-8.59,6.08-1.93,1.74-1.91,4.44-.15,6.3,2.72,1.65,5.47,4.44,8.2,5.93,3.56,1.94,7.16-.95,6.28-4.82h52.09c1.91-.25,3.15-1.59,3.7-3.36v-1.68c-.09-1.41-.78-2.3-1.96-3.02-.39-.24-1.5-.8-1.74-.34,0-.11-.02-.27-.09-.28-.88-.05-4.18-.17-4.82,0l-.62.28c.14-.04.27-.07.4-.13s.24-.12.33-.2c4.88-4.82,8.15-11.7,8.5-18.55v-.7l-.14-.28s.11-.13.14-.28v-.41c-.12-.27-.12-.57,0-.84v-.56c-.12-.26-.12-.57,0-.84-.04-.51.05-1.04,0-1.54-.39-4.38-3.17-12.7-6.37-15.8-2.26-2.19-6.21-1.17-7.02,1.93-.66,2.56.95,3.7,2.08,5.67,5.73,9.97,2.76,22.49-6.69,28.88-8.18,5.54-18.95,4.69-26.44-1.62-.44-.12-1.09-.05-1.43.25-.73-.22-.86.8-.71,1.41.37,1.51,4.94,3.92,6.14,4.47,2.43,1.11,5.36,2.02,8.02,2.2,3.3.21,6.63.24,9.95.18,6.06-.24,12.11-.21,18.17-.14,1.37.01,1.67,1.91.28,2.25-8.19-.05-16.38,0-24.58.13-16.83.7-30.55-13.91-28.31-30.69,1.98-14.77,15.89-25.37,30.51-23.15,2.14.11,2.63-1.75,1.38-3.27-.56-1.69,1.43-2.2,2.24-.77,1.68,2.49,3.37,4.96,5.07,7.43.24.63-.04,1.12-.54,1.5-2.49.67-4.95,1.44-7.39,2.3-2.72,1.23-4.84-.83-1.47-2.21.89-.59.88-1.89.07-2.53-.99-.79-4.39-.59-5.6-.49-12.76,1.05-22.46,12.79-22.23,25.4.02,1.53.49,7.29,2.04,8.27.38.24,1.28.47,1.36-.11h-.04Z"/>
    <path class="st36" d="M291.78,253.49v-.84c-.22.14-.22.71,0,.84Z"/>
    <path class="st33" d="M291.78,254.89v-.84c-.22.13-.22.7,0,.84Z"/>
    <path class="st1" d="M291.64,255.59c.04.12.08.12.14,0v-.28c-.14.04-.14.15-.14.28Z"/>
    <path class="st7" d="M291.78,255.87v-.28h-.14c0,.12,0,.25.14.28Z"/>
    <path class="st26" d="M240.34,262.58c-1.82.49-2.13-1.61-2.45-2.94-3.79-15.63,8.91-31.73,25.16-30.34.85.07,1.82.21,2,1.22.36,2.02-2.83,1.3-2.28,3.4.25.97,1.07,1.08,1.93.95,2.77-.41,6.13-2.09,8.96-2.64.69-.49.99-1.07.67-1.91-1.93-2.34-3.47-5.62-5.42-7.86-1.03-1.18-2.75-.36-2.5,1.08.13.77.79.97.77,1.92-.06,2.08-2.94,1.1-4.27,1.04-17.97-.77-31.88,15.85-27.84,33.43,2.64,11.46,12.9,20.45,24.75,21.13,9.15.52,18.78-.4,27.98,0,1.75-.45,1.47-2.65-.28-2.8-9.05-.4-18.56.53-27.55,0-4.24-.25-8.82-1.95-12.27-4.37-.92-.65-3.34-2.15-1.78-3.47-.92-.54-1.88-1.55-2.38-2.52l-.28-.14c-1.4.77-2.38-.99-1.2-1.93l-.06-.31c-.32.06-.46-.39-.58-.6-.43-.75-.78-1.54-1.1-2.33h.02Z"/>
    <path class="st3" d="M242.01,265.52s-.39.36-.41.39c-1.05,1.44.62,3.04,1.95,1.99,1.18-.93.17-2.84-1.54-2.38h0Z"/>
    <path class="st12" d="M278.29,275.45c.09-.02,1.4-1.14,1.61-1.33,8.9-7.86,11.56-20.97,6.59-31.78-.43-.92-2.63-4.97-3.38-5.29-.98-.41-2.2.28-2.09,1.38.05.52,1.73,2.78,2.12,3.49,6.06,10.95,2.84,24.72-7.34,31.87l-2.62,1.65h5.11Z"/>
    <path class="st12" d="M248.86,281.04l-4.83-2.79c-3.56-.26-7.54.32-11.04,0-1.04-.09-1.53-.84-1.29-1.87.15-.66.99-.83,1.35-1.31.93-1.27-.37-2.89-1.98-1.99-2.54,1.42-5.07,4-7.63,5.52-.64.7-.56,1.59.13,2.21,2.54,1.44,4.99,3.98,7.5,5.36.95.52,2.13.3,2.27-.9.18-1.46-2-1.57-1.65-3.17.08-.38.8-1.08,1.16-1.08h16.01v.02Z"/>
    <g>
      <path d="M260.78,240.52c10.31-.69,17.53,10.31,12.64,19.49-4.88,9.16-18.12,9.46-23.26.41-4.85-8.53.85-19.26,10.62-19.91Z"/>
      <path class="st47" d="M260.78,243.33c8.38-.73,14.19,8.37,9.98,15.72-3.98,6.94-14.15,6.98-18.13.05-3.98-6.94.5-15.1,8.15-15.76Z"/>
      <path d="M267.62,249.46c1.31-.26,2.13,1.4,1.23,2.36l-9.12,6.26c-.52.09-1.07.08-1.44-.32-1.07-1.47-2.71-2.77-3.78-4.2-.97-1.33.12-2.86,1.48-2.32,1.02.41,2.53,2.88,3.48,3.61.44.04,6.27-4.39,7.3-4.97.21-.12.64-.38.85-.41h0Z"/>
    </g>
  </g>
  <path d="M130.82,65.99c-.51.12-1.04-.24-1.33-.54-.06-.07-.36-.4-.41-.83-.19-1.22,1.49-2.54,2.64-3.44.6-.49,1.11-1.08,1.72-1.57,0,0,.22-.18.44-.53.08-.13.2-.32.14-.38-.07-.09-.41.08-.53.14-.47.22-.96.45-1.43.67-1.17.59-2.97,1.55-5.08,2.84-1.59.97-8.3,5.27-15.05,12.23-1.6,1.65-2.89,3.15-4.11,4.6-1.14,1.37-3.16,4.49-4,5.12s-2.02.41-2.75.02c-1.21-.66-1.69-2.25-1.17-3.36s4.25-4.98,6.56-7.28c7.04-7.03,14.91-12.72,24.03-16.73.07-.04,1.51-.44,1.48-.66-.01-.07-.2-.11-.31-.12-1.67-.21-3.63.05-3.63.05-.45.06-.73.11-1.15.06-.41-.05-.96-.11-1.27-.5-.37-.45-.33-1.22-.04-1.68.51-.78,1.79-.72,3.52-.69,3.09.08,4.64.12,5.91.04.9-.06,4.3-.31,6.41.2.21.05.69.18.82.52.22.58-.62,1.42-1.01,1.79-2.72,2.63-3.69,3.21-5.01,4.5-1.61,1.59-3.03,3.56-4.69,5.15-.22.22-.51.34-.7.39h0Z"/>
</svg>