<?xml version="1.0" encoding="UTF-8"?>
<svg id="Layer_1" xmlns="http://www.w3.org/2000/svg" version="1.1" viewBox="0 0 156 50">
  <!-- Generator: Adobe Illustrator 29.3.0, SVG Export Plug-In . SVG Version: 2.1.0 Build 146)  -->
  <defs>
    <style>
      .st0 {
        fill: #fff;
      }

      .st1 {
        fill: #a259ff;
      }
    </style>
  </defs>
  <g>
    <g>
      <path d="M52.4,24.9c0,12.6-10.2,22.9-22.9,22.9h-12c-6,0-10.9-4.8-10.9-10.7s.3-2.8.8-4.1c.5-1.3,1.3-2.5,2.3-3.5l4.6-4.6-4.6-4.6c-2-2-3.1-4.7-3.1-7.5s1.1-5.6,3.1-7.6c2-2,4.7-3.1,7.6-3.1h12.2c3.6,0,7.1.9,10.2,2.4,4.5,2.2,8.1,5.9,10.4,10.4,1.5,3.1,2.4,6.5,2.4,10.2v-.2Z"/>
      <g>
        <path class="st1" d="M29.5,35.3l10.4-10.4,3.5,3.5c.7.7,1.2,1.5,1.6,2.4s.6,1.8.6,2.8c0,4.1-3.3,7.3-7.3,7.3h0c-1.9,0-3.8-.8-5.2-2.1l-3.5-3.5h0Z"/>
        <path class="st1" d="M51.5,4.9v7.6c0,.5-.2,1-.6,1.4l-1,1c-2.2-4.5-5.9-8.1-10.4-10.4l1-1c.4-.4.9-.6,1.4-.6h7.6c1.1,0,1.9.9,1.9,1.9h0Z"/>
        <path class="st1" d="M50,14.9l-.6.6-9.5,9.5-10.4-10.4,10.2-10.2c4.5,2.2,8.1,5.9,10.4,10.4h0Z"/>
        <polygon class="st0" points="39.9 24.9 29.5 35.3 29.5 35.3 19.1 24.9 29.5 14.7 39.9 24.9"/>
        <path class="st0" d="M19.1,24.9h0l-7-7c-1.4-1.4-2.1-3.2-2.1-5.2s.8-3.9,2.1-5.2,3.2-2.1,5.2-2.1,1.9.2,2.8.6c.9.4,1.7.9,2.4,1.6l7,7-10.4,10.4h0Z"/>
        <path class="st0" d="M19.1,24.9l10.4,10.4-7,7c-1.4,1.4-3.2,2.1-5.2,2.1h0c-4.1,0-7.3-3.3-7.3-7.3s.2-1.9.6-2.8c.4-.9.9-1.7,1.6-2.4l7-7h0Z"/>
      </g>
    </g>
    <path d="M50.3,5.4v5.9c0,.8-1,1.2-1.6.7l-6.2-6.2c-.6-.6-.2-1.6.6-1.6h5.9c.7,0,1.2.6,1.2,1.2h0Z"/>
  </g>
  <g>
    <polygon class="st0" points="59.3 33 59.3 17.3 69.5 17.3 69.5 20.9 63 20.9 63 23.3 68.9 23.3 68.9 26.9 63 26.9 63 29.3 69.5 29.3 69.5 33 59.3 33"/>
    <path class="st0" d="M76.1,33c-.7,0-1.4,0-2-.4-.6-.3-1.2-.7-1.7-1.2s-.9-1.1-1.1-1.8c-.3-.7-.4-1.5-.4-2.3s0-1.6.4-2.3c.3-.7.7-1.3,1.1-1.8.5-.5,1-.9,1.7-1.2.6-.3,1.3-.4,2-.4s1.6.2,2.2.5c0,0,.3.2.4.3h0v-5.1h3.7v15.6h-3.5v-.6c-.2.1-.4.3-.6.4-.6.3-1.3.5-2.2.5v-.2ZM76.6,24.8c-.3,0-.6,0-.8.2-.3.1-.5.3-.7.5s-.4.4-.5.7c0,.3-.2.6-.2,1s0,.7.2,1c0,.3.3.5.5.7s.4.4.7.5c.3.1.5.2.8.2s.6,0,.8-.2c.3-.1.5-.3.7-.5s.4-.4.5-.7c0-.3.2-.6.2-1s0-.7-.2-1c0-.3-.3-.5-.5-.7s-.4-.3-.7-.4c-.3-.1-.5-.2-.8-.2h0Z"/>
    <path class="st0" d="M87.8,33c-1.4,0-2.5-.5-3.2-1.3-.7-.9-1-2-1-3.4v-6.5h3.7v6.2c0,.6,0,1,.3,1.3.2.2.6.4,1,.4s.5,0,.7-.2c.2-.1.4-.3.6-.5s.3-.5.4-.8c0-.3,0-.7,0-1v-5.4h3.7v11h-3.5v-.6c-.2.2-.4.3-.7.5-.6.3-1.3.5-2.1.5v-.2Z"/>
    <g>
      <path class="st1" d="M101.7,33c-1.5,0-2.7-.5-3.7-1.5s-1.4-2.3-1.4-3.8.5-2.8,1.4-3.8c1-1,2.2-1.5,3.7-1.5s1.9.3,2.7.8c.8.5,1.3,1.2,1.7,2.1l-1.7.7c-.5-1.2-1.5-1.9-2.8-1.9s-1.6.3-2.2,1-.9,1.5-.9,2.6.3,1.9.9,2.6,1.4,1,2.2,1c1.4,0,2.3-.6,2.9-1.9l1.7.7c-.4.9-.9,1.6-1.7,2.1s-1.7.8-2.7.8h0Z"/>
      <path class="st1" d="M111.4,22.3c1.4,0,2.5.4,3.3,1.1s1.2,1.8,1.2,3v6.1h-1.8v-1.4h0c-.8,1.1-1.8,1.7-3.1,1.7s-2-.3-2.8-1c-.7-.7-1.1-1.5-1.1-2.4s.4-1.9,1.2-2.5c.8-.6,1.8-.9,3.1-.9s2,.2,2.7.6v-.4c0-.7-.3-1.2-.8-1.7s-1.1-.7-1.8-.7c-1,0-1.9.4-2.5,1.3l-1.6-1c.9-1.3,2.3-2,4-2v.2ZM109,29.6c0,.5.2.9.6,1.2.4.3.9.5,1.5.5s1.5-.3,2.1-.9.9-1.3.9-2.1c-.6-.5-1.4-.7-2.4-.7s-1.4.2-1.9.5c-.5.4-.8.8-.8,1.4h0Z"/>
      <path class="st1" d="M121.8,32.8c-.8,0-1.5-.3-2-.8s-.8-1.2-.8-2.1v-5.6h-1.8v-1.7h1.8v-3.1h1.9v3.1h2.4v1.7h-2.4v5c0,.7,0,1.1.4,1.4.3.2.5.4.9.4h.4c0,0,.3,0,.4-.1l.6,1.7c-.5.2-1.1.3-1.7.3v-.2Z"/>
      <path class="st1" d="M127.6,19.2c0,.4,0,.7-.4.9-.3.3-.6.4-.9.4s-.7-.1-.9-.4c-.3-.3-.4-.6-.4-.9s0-.7.4-.9.6-.4.9-.4.7.1.9.4.4.6.4.9ZM127.2,22.7v10h-1.9v-10s1.9,0,1.9,0Z"/>
      <path class="st1" d="M129,27.7c0-1.5.5-2.8,1.4-3.8,1-1,2.2-1.5,3.7-1.5s2.7.5,3.7,1.5,1.5,2.3,1.5,3.8-.5,2.8-1.5,3.8-2.2,1.5-3.7,1.5-2.7-.5-3.7-1.5-1.4-2.3-1.4-3.8ZM130.8,27.7c0,1.1.3,1.9.9,2.6s1.4,1,2.3,1,1.7-.3,2.3-1,.9-1.5.9-2.6-.3-1.9-.9-2.6c-.6-.7-1.4-1-2.3-1s-1.7.3-2.3,1c-.6.7-.9,1.5-.9,2.6Z"/>
      <path class="st1" d="M140.7,22.7h1.8v1.4h0c.3-.5.7-.9,1.3-1.2.6-.3,1.2-.5,1.8-.5,1.2,0,2.2.3,2.8,1,.7.7,1,1.7,1,3v6.3h-1.9v-6.1c0-1.6-.9-2.4-2.5-2.4s-1.4.3-1.9.9-.8,1.3-.8,2.2v5.5h-1.9v-10h.3Z"/>
    </g>
  </g>
</svg>