<?xml version="1.0" encoding="UTF-8"?>
<svg id="Layer_1" xmlns="http://www.w3.org/2000/svg" version="1.1" viewBox="0 0 128 128">
  <!-- Generator: Adobe Illustrator 29.3.0, SVG Export Plug-In . SVG Version: 2.1.0 Build 146)  -->
  <defs>
    <style>
      .st0 {
        fill: #2b3dda;
      }

      .st1 {
        fill: #fff;
      }
    </style>
  </defs>
  <g>
    <g>
      <path class="st0" d="M112.4,30.1c0,0,0-.2-.1-.3,0,0,0,0,0,0-.1-.2-.2-.3-.3-.4-.1-.2-.3-.3-.5-.4L64.8,1.6c-.7-.4-1.5-.4-2.2,0l-23.4,13.9s0,0-.1,0l-22.6,13.5c-.7.4-1.1,1.1-1.1,1.9v80.2c0,.8.4,1.5,1.1,1.9l23.3,13.4c.3.2.7.3,1.1.3s.2,0,.3,0c0,0,.2,0,.2,0,0,0,.2,0,.2,0,0,0,.2,0,.3-.1,0,0,0,0,0,0h.2c.5-.6.8-1.2.8-1.9v-22.3l15.7,8.9,4.4,2.5,22.6,12.8c0,0,.2,0,.3.1.4.2.9.2,1.4,0,.2,0,.4-.1.5-.2h.2c.5-.6.8-1.2.8-1.9v-26.3c0-.8-.4-1.5-1.1-1.9l-1.1-.7-18.7-11.3,18.7-11.1,4.3-2.6,20.3-12.1c.7-.4,1.1-1.1,1.1-1.9v-25.8c0-.3,0-.6-.2-.8h0ZM108.2,55.4l-19.1,11.4-4.4,2.6-21.8,13c-.7.4-1.1,1.1-1.1,1.9,0,.8.4,1.5,1,1.9l21.9,13.3v21.3l-20.4-11.6s0,0-.1,0l-22.1-12.6c-.3-.2-.7-.3-1.1-.3s-.8,0-1.1.3c-.7.4-1.1,1.1-1.1,1.9v22.3l-19-10.9V32.2l20.5-12.2,4.3-2.6,19.2-11.4,42.4,24.9,2.1,1.2v23.2h0Z"/>
      <path class="st1" d="M62.8,82.4l21.9-13v-23.3l-44.4-26.1-20.5,12.2v77.6l19,10.9v-22.3c0-.8.4-1.5,1.1-1.9.3-.2.7-.3,1.1-.3s.8,0,1.1.3l22.1,12.6c0,0,.1,0,.1,0l20.4,11.6v-21.3l-21.9-13.3c-.7-.4-1.1-1.1-1-1.9,0-.8.4-1.5,1.1-1.9h0,0ZM41.3,73.2c-.3.2-.8.3-1.1.3s-.8,0-1.1-.3c-.7-.4-1.1-1.1-1.1-1.9v-27.3c0-.8.4-1.5,1.1-1.9.7-.4,1.5-.4,2.2,0l23,13.3c.7.4,1.1,1.1,1.1,1.9,0,.8-.4,1.5-1.1,1.9l-23,14h0Z"/>
    </g>
    <path class="st0" d="M112.6,30.9c0,.8-.4,1.5-1.1,1.9l-3.3,2-19.1,11.3-1.1.7c-.3.2-.7.3-1.1.3s-.8-.1-1.1-.3l-1.1-.6-44.4-26.1-1.1-.7c-1-.6-1.4-2-.8-3,.2-.3.4-.6.7-.8,0,0,0,0,.1,0,.7-.4,1.5-.4,2.1,0l3.2,1.9,42.3,24.9,19.2-11.4,3.2-1.9c.7-.4,1.5-.4,2.2,0,.2,0,.3.2.5.4.1.1.2.3.3.4,0,0,0,0,0,0,0,0,0,.2.1.3.1.3.2.5.2.8h0Z"/>
    <path class="st0" d="M111.9,82.6c-.1-.1-.3-.2-.4-.3-.7-.4-1.5-.4-2.2,0l-3.2,1.9-19.2,11.5-1.1.7c-.7.4-1.1,1.1-1.1,1.9v26.3c0,.8.4,1.5,1.1,1.9,0,0,.2,0,.3.1.3.1.5.2.8.2s.4,0,.6,0c.2,0,.4-.1.5-.2h.2c0-.1,23.3-13.9,23.3-13.9.7-.4,1.1-1.1,1.1-1.9v-26.5c0-.6-.2-1.1-.7-1.6h0ZM108.2,109.4l-19.1,11.3v-21.2l19.1-11.5v21.4h0Z"/>
    <path class="st0" d="M112.6,84.1c0,.4,0,.8-.3,1.1-.4.7-1.2,1.1-1.9,1.1s-.8,0-1.1-.3l-3.3-1.9-19.2-10.9-1.1-.6c-.7-.4-1.1-1.1-1.1-1.9v-25.8c0-1.2,1-2.2,2.2-2.2s2.2,1,2.2,2.2v24.5l2.1,1.2,20.3,11.6c.2.1.3.2.4.3.4.4.7,1,.7,1.6h0Z"/>
    <path class="st0" d="M64.3,55.5l-23-13.3c-.7-.4-1.5-.4-2.2,0-.7.4-1.1,1.1-1.1,1.9v27.3c0,.8.4,1.5,1.1,1.9.3.2.7.3,1.1.3s.8-.1,1.1-.3l23-14c.7-.4,1.1-1.1,1.1-1.9,0-.8-.4-1.5-1.1-1.9h0ZM42.4,67.5v-19.6l16.5,9.5-16.5,10h0Z"/>
  </g>
  <path class="st0" d="M64.3,112.9l-1.1.7-20.9,12.7h-.2c0,.1,0,.2,0,.2,0,0-.2,0-.3.1,0,0-.2,0-.2,0,0,0-.2,0-.2,0-.1,0-.2,0-.3,0-.4,0-.8-.1-1.1-.3-.3-.2-.6-.4-.8-.8-.6-1-.3-2.4.7-3l3.3-2,15.7-9.5,3.2-1.9c.7-.4,1.5-.4,2.1,0,0,0,.1,0,.1,0,.3.2.6.4.8.7.6,1.1.3,2.4-.7,3h0Z"/>
</svg>