<?xml version="1.0" encoding="UTF-8"?>
<svg id="Layer_1" xmlns="http://www.w3.org/2000/svg" version="1.1" xmlns:xlink="http://www.w3.org/1999/xlink" viewBox="0 0 371 220">
  <!-- Generator: Adobe Illustrator 29.3.0, SVG Export Plug-In . SVG Version: 2.1.0 Build 146)  -->
  <defs>
    <style>
      .st0 {
        fill: #525252;
      }

      .st1 {
        fill: #ef5269;
      }

      .st2 {
        fill: #fdedef;
      }

      .st3 {
        fill: #fff;
        filter: url(#drop-shadow-1);
      }

      .st4 {
        stroke-linecap: round;
        stroke-linejoin: round;
      }

      .st4, .st5 {
        fill: none;
        stroke: #ee4a62;
        stroke-width: 2px;
      }

      .st5 {
        stroke-miterlimit: 10;
      }
    </style>
    <filter id="drop-shadow-1" x="51" y="11" width="269" height="118" filterUnits="userSpaceOnUse">
      <feOffset dx="0" dy="0"/>
      <feGaussianBlur result="blur" stdDeviation="3"/>
      <feFlood flood-color="#000" flood-opacity=".2"/>
      <feComposite in2="blur" operator="in"/>
      <feComposite in="SourceGraphic"/>
    </filter>
  </defs>
  <path class="st3" d="M60,70c0-27.6,22.4-50,50-50h191c5.5,0,10,4.5,10,10v40c0,27.6-22.4,50-50,50H70c-5.5,0-10-4.5-10-10v-40Z" shape-rendering="crispEdges"/>
  <circle class="st2" cx="119" cy="70" r="30"/>
  <path class="st4" d="M126.7,61.8c-.3,3.6-3,6.6-6,6.6s-5.8-2.9-6-6.6c-.3-3.8,2.4-6.6,6-6.6s6.3,2.9,6,6.6Z"/>
  <path class="st5" d="M120.7,72.8c-5.9,0-12,3.3-13.1,9.5,0,.7.3,1.5,1.1,1.5h24.1c.8,0,1.2-.7,1.1-1.5-1.1-6.2-7.2-9.5-13.1-9.5h-.1Z"/>
  <path class="st4" d="M107,64v7.7M110.8,67.9h-7.7"/>
  <path class="st0" d="M165.5,77.7v3.5h3.8v1.1h-3.8v3.6h4.3v1.1h-5.6v-10.5h5.6v1.1h-4.3ZM175.9,78.6c1,0,1.8.3,2.4.9.6.6.9,1.5.9,2.6v4.8h-1.4v-4.7c0-.8-.2-1.4-.6-1.9-.4-.4-1-.7-1.7-.7s-1.3.2-1.7.7-.6,1.1-.6,2v4.5h-1.4v-8.2h1.4v1.2c.3-.4.6-.7,1.1-1,.5-.2,1-.3,1.5-.3h.1ZM182.8,80.1c.2-.5.6-.8,1-1.1.4-.3,1-.4,1.6-.4v1.4h-.4c-1.5,0-2.3.8-2.3,2.5v4.5h-1.4v-8.2h1.4v1.3h0ZM190.6,87.1c-.8,0-1.5-.2-2.1-.5s-1.1-.8-1.5-1.5c-.3-.7-.5-1.4-.5-2.2s.2-1.6.5-2.2c.4-.7.9-1.1,1.5-1.5.6-.3,1.3-.5,2.1-.5s1.5.2,2.1.5,1.1.8,1.5,1.5c.4.6.6,1.4.6,2.2s-.2,1.6-.6,2.2c-.4.6-.9,1.1-1.5,1.5-.6.3-1.4.5-2.1.5ZM190.6,85.9c.5,0,.9,0,1.4-.3.4-.2.8-.6,1-1,.3-.5.4-1,.4-1.7s-.1-1.2-.4-1.7c-.3-.5-.6-.8-1-1s-.9-.3-1.4-.3-1,0-1.4.3c-.4.2-.7.6-1,1s-.4,1-.4,1.7.1,1.2.4,1.7c.2.5.6.8,1,1s.9.3,1.4.3ZM198,75.9v11.1h-1.4v-11.1h1.4ZM201.7,75.9v11.1h-1.4v-11.1h1.4ZM211.5,82.6v.8h-6.6c0,.8.3,1.4.8,1.9.5.4,1.1.7,1.8.7s1.1,0,1.5-.4.7-.6.8-1.1h1.5c-.2.8-.7,1.4-1.3,1.9-.7.5-1.5.7-2.5.7s-1.5-.2-2.1-.5-1.1-.8-1.4-1.5c-.4-.7-.5-1.4-.5-2.2s.2-1.6.5-2.2.8-1.1,1.4-1.5c.6-.3,1.3-.5,2.1-.5s1.5.2,2.1.5,1.1.8,1.4,1.4c.3.6.5,1.3.5,2ZM210.1,82.3c0-.5-.1-1-.3-1.3-.2-.4-.5-.7-.9-.9-.4-.2-.8-.3-1.3-.3s-1.3.2-1.8.7c-.5.4-.8,1.1-.8,1.8h5.2,0ZM212.8,82.9c0-.8.2-1.6.5-2.2s.8-1.1,1.4-1.5c.6-.3,1.3-.5,2-.5s1.2.2,1.8.5c.5.3,1,.7,1.3,1.2v-4.3h1.4v11.1h-1.4v-1.5c-.3.5-.7.9-1.2,1.2-.5.3-1.2.5-1.9.5s-1.4-.2-2-.5c-.6-.4-1.1-.9-1.4-1.5s-.5-1.4-.5-2.2v-.3ZM219.8,82.9c0-.6-.1-1.2-.4-1.6s-.6-.8-1-1-.9-.4-1.4-.4-1,0-1.4.4c-.4.2-.8.6-1,1s-.4,1-.4,1.6.1,1.2.4,1.7c.2.5.6.8,1,1.1.4.2.9.4,1.4.4s1,0,1.4-.4c.4-.2.8-.6,1-1.1s.4-1,.4-1.6h0ZM228.8,85.9h3.7v1.1h-5v-10.5h1.4v9.3h0ZM241.4,82.6v.8h-6.6c0,.8.3,1.4.8,1.9.5.4,1.1.7,1.8.7s1.1,0,1.5-.4.7-.6.8-1.1h1.5c-.2.8-.7,1.4-1.3,1.9-.7.5-1.5.7-2.5.7s-1.5-.2-2.1-.5-1.1-.8-1.4-1.5c-.3-.7-.5-1.4-.5-2.2s.2-1.6.5-2.2.8-1.1,1.4-1.5c.6-.3,1.3-.5,2.1-.5s1.5.2,2.1.5,1.1.8,1.4,1.4c.3.6.5,1.3.5,2ZM240,82.3c0-.5-.1-1-.3-1.3-.2-.4-.5-.7-.9-.9-.4-.2-.8-.3-1.3-.3s-1.3.2-1.8.7c-.5.4-.8,1.1-.8,1.8h5.2,0ZM242.7,82.9c0-.8.2-1.6.5-2.2s.8-1.1,1.4-1.5c.6-.3,1.3-.5,2-.5s1.3.2,1.9.5.9.7,1.2,1.2v-1.5h1.4v8.2h-1.4v-1.5c-.3.5-.7.9-1.2,1.2-.5.3-1.2.5-1.9.5s-1.4-.2-2-.5c-.6-.4-1.1-.9-1.4-1.5-.3-.7-.5-1.4-.5-2.2v-.2ZM249.7,82.9c0-.6-.1-1.2-.4-1.6s-.6-.8-1-1-.9-.4-1.4-.4-1,0-1.4.4c-.4.2-.8.6-1,1s-.4,1-.4,1.6.1,1.2.4,1.7c.2.5.6.8,1,1.1.4.2.9.4,1.4.4s1,0,1.4-.4c.4-.2.8-.6,1-1.1s.4-1,.4-1.6h0ZM254.7,80.1c.2-.5.6-.8,1-1.1.5-.3,1-.4,1.6-.4v1.4h-.4c-1.5,0-2.3.8-2.3,2.5v4.5h-1.4v-8.2h1.4v1.3h.1ZM263,78.6c1,0,1.8.3,2.4.9s.9,1.5.9,2.6v4.8h-1.4v-4.7c0-.8-.2-1.4-.6-1.9-.4-.4-1-.7-1.7-.7s-1.3.2-1.7.7c-.4.5-.6,1.1-.6,2v4.5h-1.4v-8.2h1.4v1.2c.3-.4.6-.7,1.1-1,.5-.2,1-.3,1.5-.3h.1ZM276.1,82.6v.8h-6.6c0,.8.3,1.4.8,1.9.5.4,1.1.7,1.8.7s1.1,0,1.5-.4.7-.6.8-1.1h1.5c-.2.8-.7,1.4-1.3,1.9-.7.5-1.5.7-2.5.7s-1.5-.2-2.1-.5-1.1-.8-1.4-1.5c-.4-.7-.5-1.4-.5-2.2s.2-1.6.5-2.2.8-1.1,1.4-1.5c.6-.3,1.3-.5,2.1-.5s1.5.2,2.1.5,1.1.8,1.4,1.4.5,1.3.5,2h0ZM274.6,82.3c0-.5-.1-1-.3-1.3-.2-.4-.5-.7-.9-.9-.4-.2-.8-.3-1.3-.3s-1.3.2-1.8.7c-.5.4-.8,1.1-.8,1.8h5.2-.1ZM279.2,80.1c.2-.5.6-.8,1-1.1.5-.3,1-.4,1.6-.4v1.4h-.4c-1.5,0-2.3.8-2.3,2.5v4.5h-1.4v-8.2h1.4v1.3h0ZM286.4,87.1c-.6,0-1.2,0-1.7-.3-.5-.2-.9-.5-1.2-.9-.3-.4-.4-.8-.5-1.3h1.4c0,.4.2.7.6,1s.8.4,1.4.4.9,0,1.2-.3c.3-.2.5-.5.5-.9s-.2-.6-.5-.8c-.3-.2-.8-.4-1.5-.5-.6-.2-1.1-.3-1.5-.5s-.7-.4-1-.7c-.3-.3-.4-.8-.4-1.3s.1-.8.4-1.2c.2-.4.6-.6,1.1-.8.5-.2,1-.3,1.6-.3.9,0,1.6.2,2.2.7s.9,1.1.9,1.9h-1.4c0-.4-.2-.8-.5-1-.3-.3-.7-.4-1.3-.4s-.9,0-1.2.3c-.3.2-.4.5-.4.8s0,.5.3.7c.2.2.4.3.7.4.3,0,.6.2,1.1.3.6.2,1.1.3,1.4.5.4.2.7.4.9.7.3.3.4.7.4,1.2s-.1.9-.4,1.2c-.2.4-.6.6-1.1.9-.5.2-1,.3-1.6.3h.1Z"/>
  <g>
    <path class="st1" d="M177.6,58.5c0,1.7-.6,3.1-1.9,4.2-1.3,1.1-2.9,1.7-4.8,1.7s-3.5-.6-4.8-1.7c-1.3-1.1-1.9-2.5-1.9-4.2s.3-2,.8-2.8c.6-.9,1.4-1.5,2.4-2h0c-.8-.6-1.4-1.2-1.9-2-.5-.7-.7-1.5-.7-2.3,0-1.6.6-2.9,1.7-4,1.1-1.1,2.6-1.6,4.3-1.6s3.2.5,4.3,1.6,1.7,2.4,1.7,4-.2,1.6-.7,2.3-1.1,1.3-1.9,1.8h0c1,.6,1.8,1.3,2.4,2.2.6.9.8,1.8.8,2.8h.2ZM166.9,58.3c0,.5.1,1,.3,1.4s.5.8.8,1.1.8.6,1.3.7,1,.3,1.6.3,1.1,0,1.6-.3.9-.4,1.3-.7.6-.7.8-1.1c.2-.4.3-.9.3-1.4,0-1-.4-1.8-1.2-2.5s-1.7-1-2.8-1-2.1.3-2.9,1c-.8.7-1.1,1.5-1.1,2.5h0ZM167.5,49.3c0,.9.3,1.7.9,2.2.6.6,1.4.9,2.4.9s1.8-.3,2.4-.9c.6-.6.9-1.3.9-2.2s-.3-1.7-.9-2.2c-.6-.5-1.4-.8-2.4-.8s-1.8.3-2.4.8c-.6.5-.9,1.3-.9,2.2Z"/>
    <path class="st1" d="M180,54.1c0-3,.7-5.5,2.2-7.4s3.4-2.9,5.7-2.9,4.2,1,5.7,2.9,2.2,4.4,2.2,7.4-.7,5.4-2.2,7.4c-1.5,1.9-3.4,2.9-5.7,2.9s-4.2-1-5.7-2.9c-1.5-2-2.2-4.5-2.2-7.4ZM193.2,54.1c0-2.3-.5-4.1-1.4-5.6s-2.2-2.2-3.8-2.2-2.8.7-3.8,2.2-1.4,3.3-1.4,5.6.5,4.2,1.4,5.6c.9,1.4,2.2,2.2,3.8,2.2s2.8-.7,3.8-2.2,1.4-3.4,1.4-5.6Z"/>
    <path class="st1" d="M198.4,54.1c0-3,.7-5.5,2.2-7.4s3.4-2.9,5.7-2.9,4.2,1,5.7,2.9,2.2,4.4,2.2,7.4-.7,5.4-2.2,7.4c-1.5,1.9-3.4,2.9-5.7,2.9s-4.2-1-5.7-2.9c-1.5-2-2.2-4.5-2.2-7.4ZM211.6,54.1c0-2.3-.5-4.1-1.4-5.6s-2.2-2.2-3.8-2.2-2.8.7-3.8,2.2-1.4,3.3-1.4,5.6.5,4.2,1.4,5.6c.9,1.4,2.2,2.2,3.8,2.2s2.8-.7,3.8-2.2,1.4-3.4,1.4-5.6Z"/>
    <path class="st1" d="M229.9,55v2.2h-5.2v5.2h-2.2v-5.2h-5.2v-2.2h5.2v-5.2h2.2v5.2h5.2Z"/>
  </g>
</svg>