<?xml version="1.0" encoding="UTF-8"?>
<svg id="Layer_1" xmlns="http://www.w3.org/2000/svg" version="1.1" viewBox="0 0 512 164">
  <!-- Generator: Adobe Illustrator 29.3.0, SVG Export Plug-In . SVG Version: 2.1.0 Build 146)  -->
  <defs>
    <style>
      .st0 {
        fill: #fff;
      }

      .st1 {
        fill: #a259ff;
      }
    </style>
  </defs>
  <g>
    <g>
      <path class="st0" d="M115.91,82.21c0,28.81-23.36,52.17-52.17,52.17h-27.42c-13.54,0-24.72-10.88-24.75-24.42,0-3.25.62-6.41,1.86-9.41,1.24-2.98,3.02-5.65,5.31-7.94l10.4-10.4-10.41-10.41c-4.62-4.62-7.16-10.76-7.16-17.3s2.55-12.68,7.17-17.3c4.62-4.62,10.76-7.17,17.3-7.17h27.71c8.31,0,16.17,1.94,23.14,5.4,10.23,5.07,18.56,13.4,23.63,23.63,3.46,6.97,5.4,14.83,5.4,23.14h-.01Z"/>
      <g>
        <path class="st1" d="M63.75,105.84l23.63-23.63,7.95,7.95c1.57,1.57,2.79,3.41,3.62,5.42s1.27,4.18,1.27,6.39c0,9.23-7.48,16.71-16.71,16.71h0c-4.43,0-8.68-1.76-11.81-4.89l-7.96-7.96h.01Z"/>
        <path class="st1" d="M113.97,36.39v17.41c0,1.16-.46,2.28-1.29,3.11l-2.17,2.17c-5.07-10.23-13.4-18.56-23.63-23.63l2.17-2.17c.82-.83,1.94-1.29,3.11-1.29h17.41c2.43,0,4.4,1.97,4.4,4.4Z"/>
        <path class="st1" d="M110.51,59.07l-1.38,1.38-21.75,21.75-23.64-23.63,23.14-23.14c10.23,5.07,18.56,13.4,23.63,23.63h0Z"/>
        <polygon points="87.38 82.21 63.75 105.84 63.74 105.84 40.11 82.21 63.74 58.58 87.38 82.21"/>
        <path d="M40.12,82.21h0l-15.92-15.92c-3.13-3.13-4.89-7.38-4.89-11.82s1.87-8.79,4.89-11.82,7.2-4.89,11.81-4.89c2.22,0,4.39.44,6.4,1.27,2.01.84,3.85,2.06,5.42,3.62l15.92,15.92-23.63,23.63h0Z"/>
        <path d="M40.11,82.21l23.63,23.63-15.92,15.92c-3.13,3.13-7.38,4.89-11.81,4.89h0c-9.23,0-16.71-7.48-16.71-16.71,0-2.22.44-4.39,1.27-6.39.83-2.01,2.06-3.85,3.62-5.42l15.91-15.91h.01Z"/>
      </g>
    </g>
    <path d="M111.18,37.4v13.41c0,1.87-2.26,2.8-3.58,1.48l-14.14-14.14c-1.32-1.32-.38-3.58,1.48-3.58h13.41c1.56,0,2.83,1.27,2.83,2.83Z"/>
  </g>
  <g>
    <path class="st0" d="M149.08,63.6v13.43h23.22v10.36h-23.22v13.43h25.81v10.36h-36.73v-57.93h36.73v10.36h-25.81Z"/>
    <path class="st0" d="M211.54,106.41h-.65c-.97,1.67-2.48,3.1-4.53,4.29s-4.59,1.78-7.61,1.78c-2.54,0-4.95-.53-7.24-1.58-2.29-1.05-4.32-2.51-6.07-4.37s-3.14-4.09-4.17-6.68c-1.03-2.59-1.54-5.42-1.54-8.5s.51-5.91,1.54-8.5c1.02-2.59,2.41-4.81,4.17-6.68,1.75-1.86,3.77-3.32,6.07-4.37,2.29-1.05,4.71-1.58,7.24-1.58,3.02,0,5.56.59,7.61,1.78s3.56,2.62,4.53,4.29h.65l-.65-5.66v-17.4h10.6v57.93h-9.95v-4.77.02ZM200.94,102.68c1.4,0,2.74-.26,4.01-.77,1.27-.51,2.39-1.25,3.36-2.23s1.75-2.16,2.35-3.56c.59-1.4.89-2.99.89-4.77s-.3-3.37-.89-4.77c-.59-1.4-1.38-2.59-2.35-3.56s-2.09-1.71-3.36-2.23c-1.27-.51-2.6-.77-4.01-.77s-2.74.27-4,.81c-1.27.54-2.39,1.29-3.36,2.27s-1.75,2.16-2.35,3.56c-.59,1.4-.89,2.97-.89,4.69s.3,3.29.89,4.69,1.38,2.59,2.35,3.56,2.09,1.73,3.36,2.27c1.27.54,2.6.81,4,.81Z"/>
    <path class="st0" d="M257.98,106h-.65c-1.24,2-2.91,3.57-5.02,4.73-2.1,1.16-4.51,1.74-7.2,1.74-5.02,0-8.75-1.54-11.21-4.61-2.45-3.07-3.68-7.17-3.68-12.3v-24.03h10.6v22.74c0,2.86.63,4.98,1.9,6.35,1.27,1.38,3.12,2.06,5.54,2.06,1.46,0,2.74-.31,3.84-.93,1.1-.62,2.05-1.46,2.83-2.51s1.38-2.29,1.78-3.72c.4-1.43.61-2.95.61-4.57v-19.42h10.6v39.65h-9.95v-5.18h.01Z"/>
    <path class="st0" d="M305.56,112.48c-8.58,0-15.75-2.89-21.52-8.66-5.72-5.77-8.58-12.97-8.58-21.6s2.86-15.8,8.58-21.52c5.72-5.83,12.89-8.74,21.52-8.74s15.83,3.16,21.28,9.47l-5.34,5.18c-4.15-5.02-9.47-7.52-15.94-7.52s-11.79,2.16-16.1,6.47c-4.26,4.26-6.39,9.82-6.39,16.67s2.13,12.41,6.39,16.67c4.32,4.32,9.68,6.47,16.1,6.47,6.74,0,12.59-2.83,17.56-8.5l5.42,5.26c-2.75,3.29-6.12,5.84-10.11,7.65-3.99,1.81-8.28,2.71-12.87,2.71h0Z"/>
    <path class="st0" d="M349.42,70.24c5.5,0,9.84,1.47,13.03,4.41,3.18,2.94,4.77,6.97,4.77,12.1v24.44h-7.12v-5.5h-.32c-3.08,4.53-7.18,6.8-12.3,6.8-4.37,0-8.02-1.29-10.96-3.88s-4.41-5.83-4.41-9.71c0-4.1,1.55-7.36,4.65-9.79s7.24-3.64,12.42-3.64c4.42,0,8.06.81,10.92,2.43v-1.7c0-2.59-1.03-4.79-3.08-6.59-2.05-1.81-4.45-2.71-7.2-2.71-4.15,0-7.44,1.75-9.87,5.26l-6.55-4.13c3.61-5.18,8.95-7.77,16.02-7.77v-.02ZM339.79,99.04c0,1.94.82,3.56,2.47,4.85,1.64,1.29,3.57,1.94,5.78,1.94,3.13,0,5.92-1.16,8.37-3.48,2.45-2.32,3.68-5.04,3.68-8.17-2.32-1.83-5.56-2.75-9.71-2.75-3.02,0-5.54.73-7.56,2.19s-3.03,3.26-3.03,5.42Z"/>
    <path class="st0" d="M390.52,111.83c-3.24,0-5.92-1-8.05-2.99-2.13-2-3.22-4.77-3.28-8.33v-22.17h-6.96v-6.8h6.96v-12.14h7.44v12.14h9.71v6.8h-9.71v19.74c0,2.64.51,4.44,1.54,5.38,1.02.94,2.19,1.42,3.48,1.42.59,0,1.17-.07,1.74-.2.57-.13,1.09-.31,1.58-.53l2.35,6.64c-1.94.7-4.21,1.05-6.8,1.05h0Z"/>
    <path class="st0" d="M413.5,57.86c0,1.46-.51,2.7-1.54,3.72-1.02,1.03-2.27,1.54-3.72,1.54s-2.7-.51-3.72-1.54c-1.03-1.02-1.54-2.27-1.54-3.72s.51-2.7,1.54-3.72,2.27-1.54,3.72-1.54,2.7.51,3.72,1.54c1.02,1.03,1.54,2.27,1.54,3.72ZM411.96,71.53v39.65h-7.44v-39.65h7.44Z"/>
    <path class="st0" d="M419,91.36c0-6.1,1.91-11.14,5.75-15.13,3.88-3.99,8.77-5.99,14.65-5.99s10.73,2,14.56,5.99c3.88,3.99,5.83,9.04,5.83,15.13s-1.94,11.19-5.83,15.13c-3.83,3.99-8.68,5.99-14.56,5.99s-10.76-2-14.65-5.99c-3.83-3.99-5.75-9.03-5.75-15.13ZM426.44,91.36c0,4.26,1.24,7.71,3.72,10.36,2.48,2.64,5.56,3.96,9.22,3.96s6.74-1.32,9.22-3.96,3.72-6.09,3.72-10.36-1.24-7.63-3.72-10.28c-2.54-2.7-5.61-4.05-9.22-4.05s-6.69,1.35-9.22,4.05c-2.48,2.64-3.72,6.07-3.72,10.28Z"/>
    <path class="st0" d="M465.77,71.53h7.12v5.5h.32c1.13-1.94,2.87-3.56,5.22-4.85s4.79-1.94,7.32-1.94c4.85,0,8.59,1.39,11.21,4.17s3.92,6.73,3.92,11.85v24.92h-7.44v-24.44c-.16-6.47-3.43-9.71-9.79-9.71-2.97,0-5.45,1.2-7.44,3.6-2,2.4-2.99,5.27-2.99,8.62v21.93h-7.44v-39.65h-.01Z"/>
  </g>
</svg>